<svg width="115" height="143" viewBox="0 0 115 143" fill="none" xmlns="http://www.w3.org/2000/svg">
<path fill-rule="evenodd" clip-rule="evenodd" d="M89.6812 61.4503C87.9541 60.2912 86.9167 58.3397 86.9167 56.25V31.25C86.9167 20.8947 95.2554 12.5 105.542 12.5H130.375C133.804 12.5 136.583 15.2982 136.583 18.75C136.583 80.882 80.3428 137.5 18.625 137.5C15.1962 137.5 12.4167 134.702 12.4167 131.25V106.25C12.4167 95.8947 20.7554 87.5 31.0417 87.5H55.875C57.9508 87.5 59.8892 88.5444 61.0407 90.2831L72.8697 108.146C85.7533 99.7593 97.0409 88.6824 105.723 75.931L107.425 73.3587L89.6812 61.4503ZM52.5525 100H31.0417C27.613 100 24.8334 102.798 24.8334 106.25V124.783C36.8605 123.946 48.598 120.707 59.5458 115.572L62.0579 114.354L52.5525 100ZM123.951 25H105.542C102.113 25 99.3334 27.7982 99.3334 31.25V52.9051L113.592 62.4744C119.394 50.7403 123.055 38.0391 123.951 25Z" fill="#F8F8F8"/>
</svg>
