<svg width="170" height="26" viewBox="0 0 170 26" fill="none" xmlns="http://www.w3.org/2000/svg">
<path d="M19.1007 0H6.20455C2.77866 0 0 2.77867 0 6.20456V19.1007C0 22.5266 2.77866 25.3052 6.20455 25.3052H19.1007C22.5265 25.3052 25.3052 22.5266 25.3052 19.1007V6.20456C25.3052 2.77656 22.5265 0 19.1007 0Z" fill="#00FFFF"/>
<path d="M8.43505 8.43457H4.21857V12.6511V16.8675H8.43505V12.6511V8.43457Z" fill="black"/>
<path d="M16.8701 8.4349V4.21631H12.6536H8.43506V8.4349H12.6536H16.8701Z" fill="black"/>
<path d="M8.43506 16.8682V21.0868H12.6536H16.8701V16.8682H12.6536H8.43506Z" fill="black"/>
<path d="M21.0866 12.6514H16.8701V16.8678H21.0866V12.6514Z" fill="black"/>
<path d="M37.3643 6.50175C36.4747 6.51861 35.7136 6.69149 35.079 7.02459C34.4444 7.35769 33.9237 7.80253 33.5189 8.357C33.1141 8.91358 32.8169 9.5587 32.6271 10.2966C32.4374 11.0345 32.3404 11.8166 32.3404 12.6409C32.3404 13.4674 32.4395 14.2474 32.6377 14.9853C32.8358 15.7232 33.1457 16.3746 33.5653 16.9375C33.9848 17.5004 34.5203 17.9453 35.1718 18.2699C35.8232 18.5946 36.5927 18.757 37.4803 18.757C38.9244 18.757 40.0481 18.3796 40.8492 17.6269C41.6504 16.8722 42.0678 15.894 42.0994 14.6859H37.1725V12.3563H44.7432C44.7432 12.9593 44.7305 13.5665 44.7073 14.1778C44.6841 14.7892 44.5914 15.428 44.4333 16.0942C44.2435 16.8089 43.9652 17.4794 43.6005 18.1055C43.2358 18.7316 42.7678 19.2756 42.1964 19.7352C41.6251 20.1948 40.9462 20.5616 40.162 20.8293C39.3756 21.0992 38.4754 21.2341 37.4592 21.2341C36.1416 21.2341 34.9862 21.0233 33.9954 20.6038C33.0024 20.1842 32.1738 19.5918 31.5076 18.8307C30.8414 18.0697 30.3418 17.1652 30.0087 16.1174C29.6756 15.0696 29.509 13.927 29.509 12.6894C29.509 11.435 29.6756 10.2776 30.0087 9.21295C30.3418 8.15039 30.8372 7.23331 31.4971 6.4638C32.1549 5.69429 32.9813 5.09555 33.9722 4.66547C34.963 4.2375 36.1184 4.02246 37.436 4.02246C38.3552 4.02246 39.209 4.13841 39.9954 4.36821C40.7818 4.59801 41.4754 4.93111 42.0784 5.36752C42.6813 5.80392 43.181 6.34363 43.5773 6.98665C43.9737 7.62966 44.2351 8.36333 44.3637 9.18765H41.5787C41.3721 8.34646 40.8914 7.68869 40.1388 7.21223C39.384 6.73998 38.4585 6.50175 37.3643 6.50175Z" fill="black"/>
<path d="M52.5394 8.31104C53.5387 8.31104 54.42 8.46916 55.181 8.7875C55.9421 9.10584 56.5893 9.54647 57.1206 10.1094C57.6519 10.6723 58.0525 11.3511 58.3223 12.1459C58.5922 12.9386 58.7271 13.8199 58.7271 14.7876C58.7271 15.7721 58.5964 16.6554 58.335 17.4418C58.0735 18.2282 57.6793 18.9049 57.1565 19.4763C56.6336 20.0476 55.9864 20.484 55.2169 20.7855C54.4474 21.087 53.5535 21.2367 52.5394 21.2367C51.5401 21.2367 50.6589 21.0828 49.8978 20.7729C49.1367 20.4629 48.4979 20.0265 47.9814 19.4636C47.4649 18.9007 47.077 18.2219 46.8155 17.4292C46.5541 16.6365 46.4234 15.7552 46.4234 14.7876C46.4234 13.8199 46.5541 12.9386 46.8155 12.1459C47.077 11.3532 47.4712 10.6744 47.994 10.1094C48.5169 9.54647 49.1599 9.10584 49.9231 8.7875C50.6863 8.46916 51.5549 8.31104 52.5394 8.31104ZM52.5394 18.8796C53.1592 18.8796 53.6863 18.7721 54.1227 18.5571C54.5591 18.342 54.9154 18.0532 55.1937 17.6885C55.472 17.3238 55.6786 16.8958 55.8135 16.4025C55.9484 15.9112 56.0159 15.3779 56.0159 14.8065C56.0159 14.2352 55.9484 13.6997 55.8135 13.2C55.6786 12.7004 55.472 12.2682 55.1937 11.9035C54.9154 11.5388 54.5591 11.252 54.1227 11.0475C53.6863 10.8409 53.1592 10.7376 52.5394 10.7376C51.9365 10.7376 51.4199 10.8409 50.992 11.0475C50.564 11.2541 50.2056 11.5388 49.921 11.9035C49.6342 12.2682 49.4255 12.7004 49.2906 13.2C49.1557 13.6997 49.0882 14.2352 49.0882 14.8065C49.0882 15.3779 49.1557 15.9091 49.2906 16.4025C49.4255 16.8937 49.6321 17.3238 49.9104 17.6885C50.1887 18.0532 50.545 18.3442 50.9814 18.5571C51.4157 18.7742 51.9365 18.8796 52.5394 18.8796Z" fill="black"/>
<path d="M72.1166 8.52588V21.072H69.7596L69.5698 19.358C69.1566 20.0411 68.5452 20.5492 67.7378 20.8823C67.0399 21.1353 66.302 21.2639 65.5241 21.2639C64.588 21.2639 63.8101 21.1205 63.1903 20.8359C62.5705 20.5513 62.0708 20.1507 61.6913 19.6342C61.3097 19.1177 61.0441 18.5084 60.8944 17.8C60.7426 17.0938 60.6688 16.3285 60.6688 15.5021V8.52799H63.3821V15.0741C63.3821 15.5505 63.4095 16.0186 63.4665 16.4782C63.5213 16.9378 63.6478 17.3467 63.8481 17.7052C64.0462 18.0614 64.3308 18.3524 64.704 18.5738C65.0772 18.7951 65.581 18.9068 66.2156 18.9068C66.8186 18.9068 67.3266 18.7846 67.7399 18.5379C68.1531 18.2912 68.482 17.9666 68.7286 17.5618C68.9753 17.157 69.1524 16.6974 69.2641 16.1809C69.3759 15.6644 69.4307 15.1205 69.4307 14.5491V8.52588H72.1166Z" fill="black"/>
<path d="M74.7498 21.0698V4.23975H77.4631V21.0698H74.7498Z" fill="black"/>
<path d="M88.076 19.5227C87.6627 20.1109 87.1146 20.543 86.4336 20.8192C85.7506 21.0975 84.9895 21.2367 84.1483 21.2367C83.4821 21.2367 82.8749 21.1566 82.3268 20.9984C81.7786 20.8403 81.298 20.5979 80.8869 20.2732C80.4736 19.9485 80.149 19.5437 79.9107 19.0589C79.6725 18.5761 79.5544 18.0237 79.5544 17.4039C79.5544 16.7208 79.6894 16.1389 79.9592 15.654C80.2291 15.1713 80.598 14.777 81.0661 14.4755C81.5341 14.1741 82.0864 13.9485 82.721 13.7967C83.3556 13.647 84.0218 13.5711 84.7217 13.5711H87.9347C87.9347 12.6498 87.7281 11.9372 87.3149 11.4291C86.9017 10.921 86.1806 10.6596 85.1476 10.6427C84.5447 10.6427 84.0239 10.7461 83.5875 10.9527C83.1511 11.1593 82.8623 11.5008 82.7189 11.9773H79.9339C80.0288 11.3111 80.2481 10.7482 80.5896 10.2865C80.9311 9.82687 81.3422 9.44527 81.8271 9.14379C82.312 8.84231 82.8517 8.62728 83.4463 8.50078C84.0408 8.37429 84.6395 8.31104 85.2446 8.31104C86.0225 8.31104 86.7435 8.41435 87.4119 8.62095C88.0781 8.82756 88.6578 9.17752 89.149 9.66874C89.7035 10.2401 90.0767 10.9231 90.2685 11.7158C90.4583 12.5085 90.5552 13.375 90.5552 14.3111V21.0722H88.1982L88.076 19.5227ZM87.9326 15.5001H85.3142C84.8546 15.5001 84.3929 15.536 83.9333 15.6077C83.4737 15.6793 83.0794 15.8459 82.7548 16.1073C82.4301 16.3687 82.2677 16.7461 82.2677 17.2373C82.2677 17.8403 82.4849 18.2957 82.9213 18.6056C83.3577 18.9155 83.8932 19.0694 84.5278 19.0694C85.019 19.0694 85.4765 19.0061 85.896 18.8796C86.3156 18.7531 86.6782 18.5423 86.9797 18.2493C87.2812 17.9562 87.5152 17.5831 87.6817 17.1298C87.8504 16.6786 87.9326 16.1347 87.9326 15.5001Z" fill="black"/>
<path d="M97.601 10.5732C97.3627 10.5732 97.114 10.59 96.8504 10.6196C96.589 10.6512 96.3424 10.7187 96.1126 10.822C95.8828 10.9253 95.6909 11.0728 95.5412 11.2626C95.3894 11.4523 95.3156 11.699 95.3156 12.0005C95.3156 12.3336 95.4295 12.595 95.6614 12.7868C95.8912 12.9766 96.1653 13.1326 96.4836 13.2507C96.7998 13.3687 97.1393 13.4657 97.4956 13.5353C97.8519 13.6048 98.1575 13.666 98.4126 13.7145C99.0957 13.8578 99.7092 14.0075 100.257 14.1677C100.805 14.3258 101.269 14.5367 101.651 14.7981C102.032 15.0595 102.33 15.3968 102.543 15.81C102.758 16.2233 102.863 16.763 102.863 17.4292C102.863 18.1439 102.716 18.7468 102.423 19.238C102.129 19.7293 101.748 20.1235 101.28 20.4166C100.812 20.7096 100.281 20.9204 99.6839 21.0469C99.0894 21.1734 98.4738 21.2367 97.8392 21.2367C97.2046 21.2367 96.5764 21.1734 95.9586 21.0469C95.3409 20.9204 94.7717 20.7054 94.2573 20.4039C93.7408 20.1024 93.3128 19.7019 92.9713 19.2022C92.6297 18.7026 92.4189 18.0954 92.3409 17.3807H95.0795C95.1428 17.699 95.2777 17.9604 95.4843 18.1671C95.6909 18.3737 95.9333 18.5402 96.2095 18.6667C96.4878 18.7932 96.7766 18.8818 97.0781 18.9281C97.3796 18.9766 97.6579 18.9998 97.9109 18.9998C98.1006 18.9998 98.3346 18.9851 98.6129 18.9513C98.8912 18.9197 99.1484 18.848 99.3866 18.7363C99.6249 18.6245 99.8273 18.4791 99.9938 18.2957C100.16 18.1144 100.245 17.8782 100.245 17.5936C100.245 17.3238 100.181 17.0982 100.055 16.9148C99.9285 16.7335 99.7577 16.5775 99.5427 16.451C99.3276 16.3245 99.0704 16.2254 98.7689 16.1537C98.4675 16.082 98.1491 16.0061 97.816 15.9281C97.2932 15.8332 96.7324 15.7131 96.1379 15.5718C95.5433 15.4285 94.9868 15.2429 94.4723 15.0131C93.9558 14.7833 93.5321 14.4376 93.199 13.978C92.8659 13.5184 92.6993 12.9302 92.6993 12.2155C92.6993 11.4544 92.849 10.8262 93.1526 10.335C93.4541 9.84373 93.842 9.44317 94.3184 9.13325C94.7949 8.82334 95.3262 8.61041 95.9144 8.49024C96.5005 8.37218 97.0802 8.31104 97.6516 8.31104C99.0325 8.31104 100.162 8.62938 101.044 9.26396C101.925 9.89854 102.406 10.8199 102.484 12.0258H99.9369C99.8568 11.5177 99.5996 11.1572 99.1632 10.9421C98.7226 10.7271 98.2039 10.6048 97.601 10.5732Z" fill="black"/>
<path d="M104.858 21.0698V4.23975H107.571V10.263C108.016 9.59678 108.591 9.09713 109.297 8.76403C110.004 8.43092 110.746 8.26438 111.524 8.26438C112.411 8.26438 113.162 8.41617 113.773 8.71554C114.385 9.01702 114.884 9.42602 115.272 9.94254C115.66 10.4591 115.938 11.0726 116.105 11.7872C116.272 12.5019 116.356 13.2862 116.356 14.1443V21.0719H113.643V14.5722C113.643 14.0325 113.603 13.5287 113.525 13.0606C113.444 12.5926 113.303 12.1794 113.097 11.8231C112.89 11.4668 112.597 11.1843 112.215 10.9777C111.834 10.7711 111.351 10.6678 110.763 10.6678C110.255 10.6678 109.778 10.7985 109.333 11.0599C108.888 11.3213 108.536 11.6671 108.275 12.095C108.014 12.523 107.83 12.9805 107.727 13.4633C107.624 13.9482 107.573 14.4204 107.573 14.88V21.0698H104.858Z" fill="black"/>
<path d="M120.558 17.7617C121.066 17.7617 121.481 17.9198 121.808 18.2382C122.132 18.5565 122.295 18.9845 122.295 19.5242C122.295 20.0808 122.132 20.5088 121.808 20.8102C121.483 21.1117 121.066 21.2635 120.558 21.2635C120.049 21.2635 119.632 21.1117 119.307 20.8102C118.983 20.5088 118.82 20.0808 118.82 19.5242C118.82 18.9845 118.983 18.5565 119.307 18.2382C119.634 17.9198 120.049 17.7617 120.558 17.7617Z" fill="black"/>
<path d="M127.669 8.52619H130.835V10.8832H127.669V16.6197C127.669 17.3344 127.795 17.8657 128.05 18.2157C128.303 18.5656 128.788 18.7385 129.503 18.7385H130.74V21.0723H129.265C127.726 21.0723 126.625 20.7561 125.967 20.1194C125.31 19.4848 124.979 18.4455 124.979 17.0013V10.8811H123.003V8.52408H124.979V4.97803H127.669V8.52619Z" fill="black"/>
<path d="M134.493 15.7145C134.525 16.1741 134.62 16.6042 134.778 17.0006C134.936 17.3969 135.155 17.7427 135.433 18.0357C135.712 18.3287 136.053 18.5628 136.458 18.7377C136.863 18.9127 137.335 18.9992 137.875 18.9992C138.446 18.9992 138.969 18.8959 139.445 18.6893C139.922 18.4827 140.27 18.1264 140.493 17.6183H143.278C143.12 18.2529 142.861 18.801 142.504 19.2606C142.148 19.7202 141.726 20.0976 141.244 20.3906C140.759 20.6837 140.227 20.8987 139.648 21.0336C139.068 21.1686 138.452 21.236 137.803 21.236C136.804 21.236 135.927 21.0842 135.172 20.7849C134.417 20.4834 133.787 20.047 133.279 19.4756C132.771 18.9043 132.393 18.2254 132.149 17.4412C131.902 16.6548 131.78 15.7715 131.78 14.7869C131.78 13.834 131.915 12.9654 132.185 12.179C132.454 11.3926 132.847 10.7159 133.363 10.1446C133.88 9.57323 134.501 9.12417 135.231 8.7995C135.96 8.47483 136.793 8.3125 137.731 8.3125C138.716 8.3125 139.565 8.47483 140.278 8.7995C140.993 9.12417 141.591 9.5648 142.076 10.1214C142.561 10.6779 142.922 11.3273 143.16 12.0736C143.398 12.8199 143.516 13.6295 143.516 14.5023C143.516 14.9155 143.493 15.3203 143.445 15.7166H134.493V15.7145ZM140.875 13.6653C140.843 12.7124 140.542 11.9745 139.97 11.4517C139.399 10.9288 138.661 10.6653 137.757 10.6653C137.249 10.6653 136.804 10.7454 136.424 10.9035C136.043 11.0617 135.722 11.2767 135.461 11.5465C135.199 11.8164 134.988 12.1347 134.83 12.4995C134.672 12.8642 134.569 13.2542 134.52 13.6653H140.875Z" fill="black"/>
<path d="M151.062 21.2363C150.046 21.2363 149.164 21.0824 148.42 20.7725C147.674 20.4626 147.052 20.0262 146.552 19.4633C146.053 18.9004 145.679 18.2258 145.433 17.4394C145.186 16.653 145.064 15.7844 145.064 14.8315C145.064 13.8786 145.194 13.0057 145.456 12.213C145.717 11.4203 146.112 10.7373 146.634 10.166C147.157 9.59462 147.792 9.14135 148.538 8.80825C149.284 8.47514 150.149 8.30859 151.133 8.30859C152.578 8.30859 153.775 8.63748 154.728 9.29736C155.681 9.95513 156.284 10.9987 156.537 12.4281H153.752C153.608 11.8736 153.299 11.452 152.824 11.1674C152.348 10.8806 151.768 10.7394 151.087 10.7394C150.484 10.7394 149.968 10.8511 149.54 11.0725C149.112 11.2939 148.762 11.5953 148.492 11.9769C148.222 12.3585 148.028 12.797 147.908 13.2988C147.79 13.7984 147.729 14.3192 147.729 14.8589C147.729 15.4155 147.792 15.9383 147.918 16.4295C148.045 16.9207 148.243 17.3466 148.513 17.7029C148.783 18.0592 149.133 18.3459 149.561 18.5589C149.989 18.7739 150.505 18.8814 151.108 18.8814C151.823 18.8814 152.413 18.7233 152.881 18.4049C153.349 18.0887 153.646 17.6671 153.773 17.1421H156.581C156.455 17.8568 156.221 18.4745 155.879 18.9995C155.537 19.5223 155.12 19.9524 154.629 20.2855C154.138 20.6186 153.589 20.8611 152.987 21.0107C152.388 21.1604 151.745 21.2363 151.062 21.2363Z" fill="black"/>
<path d="M158.502 21.0698V4.23975H161.215V10.263C161.66 9.59678 162.235 9.09713 162.942 8.76403C163.648 8.43092 164.39 8.26438 165.168 8.26438C166.056 8.26438 166.806 8.41617 167.417 8.71554C168.029 9.01702 168.528 9.42602 168.916 9.94254C169.304 10.4591 169.583 11.0726 169.749 11.7872C169.916 12.5019 170 13.2862 170 14.1443V21.0719H167.287V14.5722C167.287 14.0325 167.247 13.5287 167.169 13.0606C167.089 12.5926 166.945 12.1794 166.741 11.8231C166.534 11.4668 166.241 11.1843 165.859 10.9777C165.478 10.7711 164.995 10.6678 164.407 10.6678C163.899 10.6678 163.422 10.7985 162.977 11.0599C162.533 11.3213 162.181 11.6671 161.919 12.095C161.658 12.523 161.474 12.9805 161.371 13.4633C161.268 13.9482 161.217 14.4204 161.217 14.88V21.0698H158.502Z" fill="black"/>
</svg>
