<svg width="169" height="63" viewBox="0 0 169 63" fill="none" xmlns="http://www.w3.org/2000/svg">
<path d="M80.3235 12.7823C79.3259 12.8004 78.4706 12.9967 77.7574 13.3693C77.0443 13.7438 76.4614 14.2426 76.0067 14.8656C75.552 15.4886 75.2175 16.2157 75.0051 17.043C74.7908 17.8723 74.6846 18.7497 74.6846 19.6751C74.6846 20.6026 74.7948 21.4799 75.0192 22.3072C75.2415 23.1365 75.5901 23.8657 76.0608 24.4987C76.5335 25.1316 77.1345 25.6304 77.8656 25.995C78.5968 26.3596 79.4601 26.5418 80.4577 26.5418C82.0782 26.5418 83.3402 26.1192 84.2396 25.2719C85.139 24.4265 85.6057 23.3248 85.6418 21.9707H80.1091V19.3526H88.6084C88.6084 20.0297 88.5944 20.7107 88.5683 21.3978C88.5423 22.0849 88.4381 22.8 88.2619 23.5492C88.0475 24.3504 87.737 25.1036 87.3264 25.8067C86.9157 26.5098 86.3909 27.1207 85.7499 27.6376C85.1089 28.1544 84.3477 28.565 83.4644 28.8675C82.583 29.1699 81.5714 29.3222 80.4316 29.3222C78.9533 29.3222 77.6573 29.0858 76.5435 28.6131C75.4298 28.1403 74.4983 27.4773 73.7512 26.622C73.002 25.7666 72.4411 24.751 72.0666 23.5752C71.692 22.3994 71.5057 21.1174 71.5057 19.7272C71.5057 18.319 71.692 17.019 72.0666 15.8251C72.4411 14.6312 72.998 13.6036 73.7372 12.7383C74.4763 11.8749 75.4038 11.2019 76.5175 10.7211C77.6312 10.2404 78.9273 10 80.4056 10C81.4392 10 82.3967 10.1302 83.2781 10.3866C84.1594 10.645 84.9387 11.0196 85.6157 11.5084C86.2928 11.9991 86.8536 12.6041 87.3003 13.3252C87.745 14.0463 88.0395 14.8716 88.1817 15.7971H85.0548C84.8225 14.8536 84.2836 14.1124 83.4383 13.5796C82.591 13.0488 81.5534 12.7823 80.3235 12.7823Z" fill="white"/>
<path d="M97.3601 14.8135C98.4819 14.8135 99.4714 14.9918 100.327 15.3483C101.182 15.7049 101.907 16.1996 102.504 16.8306C103.101 17.4636 103.55 18.2248 103.854 19.1162C104.157 20.0076 104.309 20.9951 104.309 22.0828C104.309 23.1886 104.163 24.1801 103.868 25.0635C103.574 25.9449 103.133 26.7081 102.546 27.3491C101.959 27.9901 101.232 28.4808 100.369 28.8194C99.5055 29.1579 98.5019 29.3261 97.3621 29.3261C96.2404 29.3261 95.2508 29.1519 94.3955 28.8053C93.5402 28.4588 92.823 27.968 92.2441 27.335C91.6652 26.702 91.2286 25.9409 90.9341 25.0495C90.6396 24.1581 90.4934 23.1705 90.4934 22.0828C90.4934 20.9971 90.6396 20.0076 90.9341 19.1162C91.2286 18.2248 91.6692 17.4636 92.2562 16.8306C92.8431 16.1976 93.5662 15.7049 94.4216 15.3483C95.2749 14.9918 96.2544 14.8135 97.3601 14.8135ZM97.3601 26.678C98.0552 26.678 98.6482 26.5578 99.1369 26.3175C99.6277 26.0771 100.028 25.7526 100.339 25.3419C100.651 24.9313 100.882 24.4505 101.034 23.8997C101.184 23.3468 101.26 22.7499 101.26 22.1089C101.26 21.4679 101.184 20.8669 101.034 20.3041C100.882 19.7432 100.651 19.2584 100.339 18.8478C100.026 18.4391 99.6257 18.1166 99.1369 17.8863C98.6461 17.6559 98.0552 17.5397 97.3601 17.5397C96.6831 17.5397 96.1042 17.6559 95.6234 17.8863C95.1427 18.1186 94.7421 18.4391 94.4216 18.8478C94.1011 19.2584 93.8647 19.7432 93.7124 20.3041C93.5602 20.8649 93.4861 21.4659 93.4861 22.1089C93.4861 22.7519 93.5622 23.3468 93.7124 23.8997C93.8647 24.4525 94.095 24.9333 94.4075 25.3419C94.72 25.7526 95.1206 26.0771 95.6094 26.3175C96.1002 26.5578 96.6831 26.678 97.3601 26.678Z" fill="white"/>
<path d="M119.338 15.0537V29.1377H116.692L116.478 27.2127C116.015 27.9799 115.328 28.5488 114.421 28.9234C113.636 29.2078 112.808 29.35 111.935 29.35C110.883 29.35 110.01 29.1898 109.317 28.8693C108.622 28.5488 108.061 28.0981 107.632 27.5192C107.206 26.9403 106.905 26.2552 106.737 25.462C106.567 24.6687 106.482 23.8094 106.482 22.8839V15.0537H109.529V22.4032C109.529 22.938 109.559 23.4629 109.623 23.9797C109.685 24.4965 109.828 24.9552 110.05 25.3558C110.272 25.7564 110.593 26.0829 111.011 26.3313C111.43 26.5817 111.995 26.7059 112.708 26.7059C113.385 26.7059 113.954 26.5677 114.419 26.2913C114.882 26.0148 115.252 25.6503 115.529 25.1956C115.805 24.7408 116.005 24.224 116.129 23.6451C116.254 23.0662 116.316 22.4553 116.316 21.8143V15.0537H119.338Z" fill="white"/>
<path d="M122.293 29.1386V10.2451H125.34V29.1386H122.293Z" fill="white"/>
<path d="M137.254 27.3991C136.792 28.0582 136.177 28.5449 135.41 28.8554C134.642 29.1679 133.789 29.3221 132.844 29.3221C132.094 29.3221 131.413 29.232 130.798 29.0557C130.183 28.8774 129.645 28.605 129.182 28.2405C128.719 27.8759 128.353 27.4212 128.086 26.8783C127.82 26.3355 127.685 25.7165 127.685 25.0214C127.685 24.2562 127.838 23.6012 128.14 23.0564C128.443 22.5135 128.857 22.0728 129.382 21.7343C129.907 21.3958 130.526 21.1414 131.239 20.9731C131.952 20.8048 132.699 20.7187 133.485 20.7187H137.092C137.092 19.6851 136.86 18.8838 136.397 18.3129C135.934 17.7421 135.123 17.4496 133.965 17.4316C133.288 17.4316 132.705 17.5477 132.215 17.7781C131.724 18.0105 131.399 18.3931 131.239 18.9279H128.112C128.218 18.1787 128.465 17.5477 128.847 17.0309C129.23 16.5141 129.693 16.0875 130.237 15.7489C130.78 15.4104 131.387 15.17 132.054 15.0278C132.723 14.8856 133.394 14.8135 134.071 14.8135C134.945 14.8135 135.756 14.9297 136.503 15.16C137.252 15.3924 137.901 15.783 138.454 16.3359C139.077 16.9769 139.496 17.7441 139.71 18.6334C139.925 19.5248 140.031 20.4943 140.031 21.546V29.1358H137.385L137.254 27.3991ZM137.094 22.8841H134.154C133.637 22.8841 133.12 22.9241 132.603 23.0043C132.086 23.0844 131.646 23.2707 131.281 23.5651C130.917 23.8596 130.732 24.2823 130.732 24.8351C130.732 25.5122 130.977 26.025 131.467 26.3715C131.956 26.7181 132.559 26.8924 133.272 26.8924C133.825 26.8924 134.336 26.8222 134.809 26.678C135.281 26.5358 135.686 26.2994 136.025 25.9689C136.363 25.6404 136.625 25.2197 136.814 24.7129C137 24.2061 137.094 23.5952 137.094 22.8841Z" fill="white"/>
<path d="M147.947 17.3515C147.681 17.3515 147.4 17.3696 147.106 17.4056C146.811 17.4417 146.535 17.5178 146.277 17.632C146.018 17.7482 145.804 17.9124 145.636 18.1268C145.465 18.3411 145.381 18.6175 145.381 18.956C145.381 19.3306 145.509 19.6251 145.768 19.8374C146.026 20.0518 146.333 20.224 146.689 20.3582C147.046 20.4924 147.424 20.5986 147.825 20.6787C148.226 20.7589 148.568 20.825 148.855 20.879C149.62 21.0393 150.311 21.2096 150.926 21.3858C151.541 21.5641 152.062 21.8005 152.49 22.095C152.917 22.3894 153.251 22.768 153.492 23.2307C153.732 23.6934 153.852 24.3004 153.852 25.0476C153.852 25.8488 153.688 26.5259 153.358 27.0787C153.027 27.6316 152.6 28.0723 152.076 28.4008C151.551 28.7313 150.954 28.9657 150.285 29.1099C149.616 29.2541 148.927 29.3242 148.214 29.3242C147.5 29.3242 146.797 29.2521 146.102 29.1099C145.407 28.9677 144.77 28.7273 144.191 28.3888C143.612 28.0503 143.132 27.5995 142.749 27.0387C142.366 26.4778 142.13 25.7967 142.04 24.9935H145.113C145.183 25.35 145.335 25.6445 145.567 25.8749C145.798 26.1072 146.07 26.2935 146.383 26.4357C146.695 26.578 147.02 26.6761 147.358 26.7302C147.697 26.7843 148.009 26.8103 148.294 26.8103C148.508 26.8103 148.77 26.7923 149.083 26.7562C149.395 26.7202 149.684 26.6401 149.952 26.5159C150.219 26.3917 150.447 26.2274 150.633 26.0211C150.82 25.8168 150.914 25.5544 150.914 25.2319C150.914 24.9294 150.842 24.675 150.699 24.4707C150.557 24.2663 150.365 24.0921 150.125 23.9498C149.884 23.8076 149.594 23.6954 149.255 23.6153C148.917 23.5352 148.56 23.4511 148.185 23.3609C147.597 23.2548 146.97 23.1205 146.301 22.9603C145.632 22.8 145.009 22.5917 144.43 22.3313C143.851 22.0729 143.374 21.6863 142.999 21.1695C142.625 20.6527 142.439 19.9937 142.439 19.1924C142.439 18.3371 142.607 17.634 142.945 17.0811C143.284 16.5283 143.721 16.0795 144.255 15.731C144.79 15.3845 145.387 15.1441 146.046 15.0099C146.705 14.8757 147.356 14.8096 147.997 14.8096C149.548 14.8096 150.818 15.1661 151.805 15.8792C152.795 16.5924 153.334 17.626 153.422 18.9801H150.561C150.471 18.4092 150.183 18.0046 149.692 17.7642C149.207 17.5258 148.624 17.3876 147.947 17.3515Z" fill="white"/>
<path d="M156.092 29.1386V10.2451H159.139V17.0057C159.637 16.2565 160.282 15.6956 161.076 15.321C161.869 14.9465 162.702 14.7602 163.574 14.7602C164.571 14.7602 165.412 14.9304 166.1 15.267C166.785 15.6055 167.348 16.0642 167.784 16.6431C168.221 17.222 168.533 17.9131 168.72 18.7143C168.906 19.5156 169 20.399 169 21.3605V29.1366H165.953V21.8412C165.953 21.2363 165.909 20.6694 165.819 20.1446C165.729 19.6198 165.569 19.155 165.338 18.7544C165.106 18.3538 164.777 18.0373 164.349 17.8049C163.922 17.5726 163.377 17.4584 162.718 17.4584C162.147 17.4584 161.613 17.6046 161.114 17.8991C160.615 18.1935 160.218 18.5801 159.924 19.0609C159.629 19.5416 159.425 20.0544 159.309 20.5973C159.193 21.1401 159.135 21.671 159.135 22.1878V29.1366H156.092V29.1386Z" fill="white"/>
<path d="M73.9636 48.1616C74.5344 48.1616 75.0012 48.3399 75.3657 48.6965C75.7303 49.053 75.9146 49.5338 75.9146 50.1387C75.9146 50.7617 75.7323 51.2444 75.3657 51.581C75.0012 51.9195 74.5324 52.0877 73.9636 52.0877C73.3927 52.0877 72.9259 51.9175 72.5614 51.581C72.1968 51.2424 72.0125 50.7617 72.0125 50.1387C72.0125 49.5338 72.1948 49.053 72.5614 48.6965C72.9239 48.3399 73.3927 48.1616 73.9636 48.1616Z" fill="white"/>
<path d="M81.9441 37.7917H85.4977V40.4379H81.9441V46.8779C81.9441 47.6792 82.0863 48.2761 82.3708 48.6687C82.6552 49.0613 83.2001 49.2576 84.0013 49.2576H85.3915V51.8757H83.7349C82.0062 51.8757 80.7723 51.5192 80.0331 50.8061C79.294 50.093 78.9234 48.9271 78.9234 47.3046V40.4359H76.7079V37.7897H78.9254V33.8115H81.9461V37.7917H81.9441Z" fill="white"/>
<path d="M89.606 45.8643C89.6421 46.3811 89.7483 46.8618 89.9266 47.3065C90.1048 47.7512 90.3492 48.1398 90.6617 48.4683C90.9742 48.7988 91.3568 49.0613 91.8115 49.2576C92.2662 49.4539 92.795 49.552 93.402 49.552C94.043 49.552 94.6319 49.4358 95.1667 49.2055C95.7016 48.9731 96.0922 48.5725 96.3426 48.0036H99.4695C99.2912 48.7167 99.0027 49.3317 98.6001 49.8485C98.1995 50.3653 97.7267 50.788 97.1839 51.1185C96.641 51.449 96.0441 51.6894 95.3931 51.8396C94.7421 51.9898 94.053 52.0659 93.3218 52.0659C92.2001 52.0659 91.2146 51.8957 90.3692 51.5592C89.5219 51.2206 88.8148 50.7299 88.2439 50.0889C87.673 49.4479 87.2504 48.6867 86.9739 47.8033C86.6975 46.9219 86.5593 45.9284 86.5593 44.8226C86.5593 43.753 86.7095 42.7774 87.014 41.8961C87.3165 41.0147 87.7572 40.2515 88.3361 39.6105C88.915 38.9695 89.6141 38.4667 90.4333 38.1001C91.2526 37.7356 92.1881 37.5513 93.2397 37.5513C94.3435 37.5513 95.2969 37.7336 96.1002 38.1001C96.9014 38.4647 97.5745 38.9595 98.1173 39.5824C98.6602 40.2054 99.0668 40.9366 99.3332 41.7739C99.5997 42.6112 99.7339 43.5206 99.7339 44.5001C99.7339 44.9628 99.7078 45.4176 99.6537 45.8623H89.606V45.8643ZM96.7692 43.5647C96.7332 42.495 96.3947 41.6677 95.7537 41.0788C95.1126 40.4919 94.2834 40.1974 93.2678 40.1974C92.6969 40.1974 92.1981 40.2876 91.7714 40.4638C91.3448 40.6421 90.9822 40.8825 90.6897 41.1849C90.3953 41.4874 90.1589 41.844 89.9806 42.2546C89.8024 42.6653 89.6862 43.1019 89.6341 43.5647H96.7692Z" fill="white"/>
<path d="M108.207 52.0639C107.067 52.0639 106.078 51.8896 105.24 51.5431C104.403 51.1965 103.704 50.7058 103.143 50.0728C102.582 49.4398 102.164 48.6826 101.887 47.8012C101.611 46.9199 101.473 45.9443 101.473 44.8747C101.473 43.805 101.619 42.8255 101.913 41.9341C102.208 41.0427 102.648 40.2775 103.235 39.6365C103.822 38.9955 104.535 38.4867 105.373 38.1141C106.21 37.7395 107.181 37.5532 108.285 37.5532C109.906 37.5532 111.252 37.9238 112.321 38.663C113.391 39.4021 114.068 40.5739 114.353 42.1764H111.226C111.065 41.5535 110.719 41.0807 110.184 40.7602C109.649 40.4397 108.998 40.2795 108.233 40.2795C107.556 40.2795 106.977 40.4037 106.496 40.6541C106.016 40.9045 105.623 41.243 105.321 41.6697C105.018 42.0963 104.8 42.5911 104.665 43.152C104.531 43.7128 104.465 44.2978 104.465 44.9027C104.465 45.5257 104.535 46.1146 104.68 46.6675C104.822 47.2203 105.044 47.6971 105.349 48.0977C105.651 48.4983 106.044 48.8188 106.524 49.0592C107.005 49.2996 107.584 49.4198 108.261 49.4198C109.062 49.4198 109.725 49.2415 110.252 48.8849C110.777 48.5284 111.112 48.0556 111.254 47.4687H114.407C114.264 48.27 114.002 48.9651 113.617 49.554C113.235 50.1429 112.766 50.6236 112.215 50.9962C111.662 51.3708 111.047 51.6412 110.37 51.8115C109.693 51.9798 108.972 52.0639 108.207 52.0639Z" fill="white"/>
<path d="M116.558 51.8755V32.9819H119.605V39.7425C120.104 38.9933 120.749 38.4325 121.542 38.0579C122.335 37.6833 123.168 37.497 124.04 37.497C125.037 37.497 125.879 37.6673 126.566 38.0038C127.251 38.3423 127.812 38.801 128.25 39.3799C128.687 39.9588 129 40.6499 129.186 41.4512C129.372 42.2524 129.466 43.1358 129.466 44.0973V51.8734H126.42V44.5781C126.42 43.9731 126.375 43.4062 126.285 42.8814C126.195 42.3566 126.035 41.8919 125.805 41.4912C125.572 41.0906 125.244 40.7741 124.815 40.5417C124.388 40.3094 123.843 40.1952 123.184 40.1952C122.614 40.1952 122.079 40.3414 121.58 40.6359C121.081 40.9304 120.685 41.317 120.39 41.7977C120.096 42.2785 119.891 42.7913 119.775 43.3341C119.659 43.877 119.601 44.4078 119.601 44.9246V51.8734H116.558V51.8755Z" fill="white"/>
<path d="M46.9594 0H15.2558C6.83067 0 0 6.83067 0 15.2558V46.9594C0 55.3845 6.83067 62.2152 15.2558 62.2152H46.9594C55.3845 62.2152 62.2152 55.3845 62.2152 46.9594V15.2538C62.2152 6.82867 55.3845 0 46.9594 0Z" fill="#00FFFF"/>
<path d="M20.7384 20.7383H10.3702V31.1065V41.4747H20.7384V31.1065V20.7383Z" fill="black"/>
<path d="M41.4768 20.7379V10.3677H31.1086H20.7384V20.7379H31.1086H41.4768Z" fill="black"/>
<path d="M20.7384 41.4746V51.8448H31.1086H41.4768V41.4746H31.1086H20.7384Z" fill="black"/>
<path d="M51.845 31.1055H41.4768V41.4737H51.845V31.1055Z" fill="black"/>
</svg>
