<svg width="405" height="207" viewBox="0 0 405 207" fill="none" xmlns="http://www.w3.org/2000/svg">
<path d="M2.00006 137.621C3.25583 143.272 16.6691 149.614 20.891 152.408C41.4729 166.028 61.7177 180.108 84.5991 189.734C110.471 200.617 138.086 206.274 166.156 204.195C191.261 202.335 216.035 186.516 234.815 170.712C253.495 154.992 266.522 130.478 251.23 107.395C246.887 100.839 240.943 93.5235 233.056 91.4356C224.267 89.109 213.47 90.5552 204.459 90.7191C180.898 91.1474 168.042 113.099 168.501 134.885C168.929 155.203 184.707 163.673 203.286 161.984C211.098 161.273 218.096 158.555 225.304 155.6C238.817 150.059 252.728 144.225 264.128 134.885C285.593 117.299 304.826 96.5232 325.622 78.0817C342.158 63.4172 355.069 45.6906 371.611 31.18C376.247 27.1134 381.739 22.9312 385.421 18.0215" stroke="white" stroke-width="3" stroke-linecap="round" stroke-dasharray="6 6"/>
<path d="M367.241 11.2212C379.084 9.64214 391.226 6.11532 402.453 2.0502C404.189 1.42167 400.319 6.88559 399.736 7.82453C394.446 16.3481 389.537 24.4141 385.583 33.6392" stroke="white" stroke-width="3" stroke-linecap="round" stroke-dasharray="6 6"/>
</svg>
