<svg width="591" height="164" viewBox="0 0 591 164" fill="none" xmlns="http://www.w3.org/2000/svg">
<path d="M569.561 162.307C576.708 149.173 580.436 132.881 583.929 118.336C586.901 105.961 591.683 91.4059 588.385 78.8937C580.082 47.3947 525.632 58.5539 505.06 66.5246C489.096 72.7097 471.493 78.0741 456.717 87.5762C443.247 96.2379 432.13 107.578 417.433 113.839C391.93 124.705 364.446 126.809 352.174 95.8641C343.946 75.1161 337.167 51.7676 332.026 29.6808C328.84 15.993 327.081 4.51351 312.928 2.0638C296.139 -0.841931 274.133 9.74453 259.103 18.8677C243.119 28.5696 227.609 42.3714 214.508 56.4172C195.941 76.3221 176.519 99.0519 151.541 108.189C133.62 114.744 113.716 116.107 95.5096 113.68C59.1964 108.84 32.732 87.7988 2.25479 68.7776" stroke="#0176FE" stroke-width="3" stroke-linecap="round" stroke-dasharray="6 6"/>
</svg>
