<svg width="548" height="301" viewBox="0 0 548 301" fill="none" xmlns="http://www.w3.org/2000/svg">
<path d="M121.816 299.344C108.903 298.292 95.8941 289.249 84.9356 282.658C68.4256 272.73 51.5043 259.857 37.6474 246.592C28.1513 237.501 21.1591 224.727 14.763 213.371C9.32109 203.709 1.72162 192.72 2.09208 181.116C3.02468 151.902 56.1673 145.535 77.0566 146.323C93.2662 146.935 110.825 146.371 126.646 150.151C141.067 153.596 153.874 160.004 168.919 161.05C195.027 162.865 221.089 156.65 225.84 126.751C229.025 106.704 230.298 84.8676 230.317 64.5812C230.329 52.0091 229.489 41.7314 242.147 35.5249C257.161 28.1631 279.952 30.7588 295.926 34.1419C312.914 37.7397 330.346 44.963 345.587 53.0956C367.184 64.6205 390.19 78.2994 415.435 78.7966C433.549 79.1533 452.388 74.515 468.827 67.1477C501.616 52.4535 521.728 26.8455 546.016 1.78728" stroke="#0176FE" stroke-width="3" stroke-linecap="round" stroke-dasharray="6 6"/>
</svg>
