<svg width="42" height="40" viewBox="0 0 42 40" fill="none" xmlns="http://www.w3.org/2000/svg">
<g clip-path="url(#clip0_442_965)">
<path d="M19.7689 17.8006C19.7764 17.4024 19.8517 17.0079 19.991 16.6357C20.1266 16.2636 20.3412 15.9249 20.616 15.6421C20.9021 15.3592 21.2447 15.1434 21.6212 15.0057C22.4909 14.6856 23.4509 14.6856 24.3206 15.0057C24.697 15.1545 25.0359 15.3741 25.3257 15.6532C25.5968 15.9398 25.8076 16.2785 25.9394 16.6469C26.0825 17.0228 26.1578 17.421 26.1615 17.8229V19.814C26.1502 20.2122 26.0712 20.6067 25.9281 20.9789C25.6382 21.712 25.0547 22.2926 24.3168 22.5829C23.4509 22.8918 22.5022 22.8918 21.6363 22.5829C21.256 22.4489 20.9134 22.2293 20.6311 21.9465C20.3487 21.6674 20.1341 21.325 20.0061 20.9528C19.8555 20.5807 19.7764 20.1862 19.7652 19.788C19.7463 19.0995 19.7463 18.4631 19.7652 17.8081L19.7689 17.8006ZM25.0359 17.8602C25.0246 17.5513 24.9643 17.2461 24.8552 16.9558C24.7686 16.7102 24.6217 16.4869 24.4335 16.3082C24.2453 16.1408 24.0194 16.0105 23.7784 15.9286C23.5111 15.8393 23.2325 15.7984 22.9539 15.7984C22.6716 15.7984 22.393 15.8393 22.1294 15.9286C21.8847 16.0068 21.6588 16.1408 21.4744 16.3157C21.2824 16.4943 21.1355 16.7102 21.0414 16.9521C20.9285 17.2424 20.872 17.5475 20.872 17.8564V19.7172C20.872 20.0261 20.9322 20.335 21.0414 20.6216C21.1393 20.8635 21.2861 21.0794 21.4744 21.258C21.6588 21.4366 21.8847 21.5669 22.1294 21.645C22.6678 21.8125 23.2438 21.8125 23.7822 21.645C24.2754 21.485 24.6707 21.124 24.8702 20.6514C24.9832 20.3611 25.0396 20.0559 25.0396 19.747V17.8564L25.0359 17.8602Z" fill="#00FFFF"/>
<path d="M32.204 16.5277C32.1852 16.6356 32.1363 16.7361 32.0647 16.818C32.0196 16.8626 31.9631 16.8999 31.9029 16.9259C31.8389 16.9371 31.7749 16.9371 31.7109 16.9259H30.8638C30.8374 16.9036 30.8186 16.8775 30.8035 16.8478C30.7998 16.8143 30.7998 16.7808 30.8035 16.7473V16.6766L31.4059 15.1842C31.4473 15.1023 31.4963 15.0242 31.5565 14.9534C31.6054 14.9125 31.6582 14.879 31.7184 14.853C31.7786 14.8381 31.8389 14.8381 31.8991 14.853H32.2003C32.2342 14.8418 32.268 14.8418 32.3019 14.853L32.381 14.9013C32.4036 14.9237 32.4224 14.9497 32.4299 14.9795C32.4375 15.0093 32.4375 15.039 32.4299 15.0688L32.1965 16.524L32.204 16.5277Z" fill="#00FFFF"/>
<path d="M18.9557 3.65853C21.3614 3.65853 23.6918 4.12374 25.8867 5.04298C28.0063 5.92872 29.9113 7.19779 31.5489 8.8167C33.1829 10.4319 34.4704 12.315 35.3664 14.414C36.2963 16.5837 36.7669 18.8874 36.7669 21.2655C36.7669 23.6436 36.2963 25.9473 35.3664 28.117C34.4704 30.2123 33.1866 32.0954 31.5489 33.7144C29.915 35.3295 28.01 36.6023 25.8867 37.4881C23.6918 38.4073 21.3614 38.8725 18.9557 38.8725C16.55 38.8725 14.2196 38.4073 12.0247 37.4881C9.90516 36.6023 8.00018 35.3333 6.3625 33.7144C4.72858 32.0992 3.44102 30.216 2.545 28.117C1.6151 25.9473 1.1445 23.6436 1.1445 21.2655C1.1445 18.8874 1.6151 16.5837 2.545 14.414C3.44102 12.3187 4.72481 10.4356 6.3625 8.8167C7.99641 7.20152 9.9014 5.92872 12.0247 5.04298C14.2196 4.12374 16.55 3.65853 18.9557 3.65853ZM18.9557 2.52344C8.48584 2.52344 0 10.912 0 21.2618C0 31.6116 8.48584 40.0002 18.9557 40.0002C29.4256 40.0002 37.9114 31.6116 37.9114 21.2618C37.9114 10.912 29.4256 2.52344 18.9557 2.52344Z" fill="#00FFFF"/>
<path d="M41.9963 28.8835L12.4351 28.8463V0H13.5871V27.7112L42 27.7484L41.9963 28.8835Z" fill="#00FFFF"/>
</g>
<defs>
<clipPath id="clip0_442_965">
<rect width="42" height="40" fill="white"/>
</clipPath>
</defs>
</svg>
