<svg width="29" height="28" viewBox="0 0 29 28" xmlns="http://www.w3.org/2000/svg">
<path d="M26.1048 10.7088C26.0315 10.4929 25.8965 10.3031 25.7166 10.1629C25.5366 10.0228 25.3196 9.93838 25.0922 9.92018L18.441 9.39168L15.5628 3.02052C15.4712 2.81531 15.3221 2.64103 15.1336 2.51868C14.945 2.39634 14.7251 2.33118 14.5004 2.33105C14.2756 2.33093 14.0557 2.39585 13.867 2.51799C13.6783 2.64012 13.5291 2.81425 13.4372 3.01935L10.559 9.39168L3.90784 9.92018C3.68437 9.93789 3.47074 10.0196 3.29249 10.1555C3.11424 10.2915 2.97894 10.4759 2.90275 10.6867C2.82657 10.8975 2.81274 11.1259 2.86291 11.3443C2.91309 11.5628 3.02514 11.7622 3.18568 11.9187L8.10084 16.7102L6.36251 24.2375C6.30973 24.4654 6.32664 24.7038 6.41107 24.9219C6.49549 25.14 6.64352 25.3278 6.83595 25.4607C7.02837 25.5936 7.25632 25.6657 7.49019 25.6674C7.72407 25.6692 7.95308 25.6007 8.14751 25.4707L14.5 21.2357L20.8525 25.4707C21.0512 25.6026 21.2856 25.6706 21.5241 25.6653C21.7626 25.6601 21.9937 25.582 22.1865 25.4414C22.3792 25.3009 22.5243 25.1047 22.6022 24.8793C22.6802 24.6538 22.6872 24.4099 22.6223 24.1803L20.4885 16.7137L25.7805 11.9514C26.127 11.6387 26.2542 11.151 26.1048 10.7088Z"/>
</svg>
