<svg xmlns="http://www.w3.org/2000/svg" viewBox="0 0 29 34">
    <path fill-rule="evenodd"
          d="M16.213 30.944c5.89 0 10.251-4.208 10.251-10.003 0-3.464-1.586-5.17-3.885-7.644l-.031-.034c-2.09-2.248-4.554-4.967-5.294-9.717-.96.577-2.003 1.462-2.773 2.607-1.141 1.696-1.663 3.903-.313 6.662.875 1.786 1.127 4.06-.402 5.622-.954.974-2.556 1.631-4.289.87-1.09-.48-1.963-1.416-2.666-2.654-.823 1.047-1.385 2.58-1.385 4.288 0 5.7 4.77 10.003 10.787 10.003Zm3.02-29.452c-.026-.51-.432-.926-.918-.804-3.391.852-9.584 5.99-6.093 13.12.687 1.404.567 2.483.005 3.057-.928.948-2.719 1.014-4.172-2.69-.19-.484-.722-.754-1.165-.494-2.245 1.315-3.64 4.239-3.64 7.26 0 7.156 5.98 12.226 12.963 12.226 6.982 0 12.428-5.095 12.428-12.227 0-4.355-2.128-6.641-4.362-9.042-2.336-2.511-5.047-5.152-5.047-10.406Z"
          clip-rule="evenodd"/>
</svg>