<svg viewBox="0 0 50 50" xmlns="http://www.w3.org/2000/svg">
<path fill-rule="evenodd" clip-rule="evenodd" d="M25 13.5833C25.5523 13.5833 26 14.031 26 14.5833V23.9999L35.4166 23.9999C35.9689 23.9999 36.4166 24.4476 36.4166 24.9999C36.4166 25.5522 35.9689 25.9999 35.4166 25.9999H26V35.4166C26 35.9689 25.5523 36.4166 25 36.4166C24.4477 36.4166 24 35.9689 24 35.4166V25.9999H14.5833C14.031 25.9999 13.5833 25.5522 13.5833 24.9999C13.5833 24.4476 14.031 23.9999 14.5833 23.9999L24 23.9999V14.5833C24 14.031 24.4477 13.5833 25 13.5833Z"/>
</svg>
