<svg width="27" height="27" viewBox="0 0 27 27" fill="none" xmlns="http://www.w3.org/2000/svg">
<circle cx="13.0769" cy="13.0769" r="13.0769" fill="#333333"/>
<path d="M13.0816 19.2305C12.0043 19.2305 10.9467 18.9452 10.0121 18.4041L7.61153 19.2305L8.10344 16.6923C7.33114 15.6347 6.92285 14.3901 6.92285 13.0767C6.92285 9.68249 9.68248 6.92285 13.0767 6.92285C16.4709 6.92285 19.2305 9.68249 19.2305 13.0767C19.2404 16.466 16.4807 19.2305 13.0816 19.2305ZM10.1252 17.3957L10.3121 17.5138C11.1484 18.0401 12.1076 18.3156 13.0865 18.3156C15.9741 18.3156 18.3254 15.9642 18.3254 13.0767C18.3254 10.1892 15.9741 7.83781 13.0865 7.83781C10.1941 7.83289 7.84273 10.1842 7.84273 13.0718C7.84273 14.2475 8.22642 15.3592 8.95445 16.2938L9.08235 16.4561L8.8118 17.8433L10.1252 17.3957Z" fill="white"/>
<path d="M9.97759 10.7106C9.97759 10.7106 10.3367 10.0809 10.6318 10.0416C10.927 10.0071 11.3058 10.0071 11.4091 10.199C11.5124 10.3908 11.9698 11.5124 11.9698 11.5124C11.9698 11.5124 12.0485 11.7042 11.9256 11.8912C11.8026 12.0732 11.532 12.3437 11.532 12.3437C11.532 12.3437 11.3795 12.5356 11.532 12.7422C11.6845 12.9488 11.9157 13.3226 12.3978 13.8047C12.8799 14.2868 13.8047 14.6311 13.8047 14.6311C13.8047 14.6311 13.9375 14.6508 14.0211 14.5672C14.1047 14.4836 14.5622 13.9129 14.5622 13.9129C14.5622 13.9129 14.7098 13.726 14.9508 13.8342C15.1919 13.9474 16.2495 14.4737 16.2495 14.4737C16.2495 14.4737 16.3725 14.518 16.3725 14.7049C16.3725 14.8918 16.2987 15.3493 16.1413 15.5018C15.9888 15.6543 15.5362 16.1315 14.8574 16.1315C14.1785 16.1315 12.5651 15.5805 11.7042 14.7197C10.8434 13.8588 10.0809 12.9881 9.89889 12.1962C9.73164 11.3943 9.75623 11.0352 9.97759 10.7106Z" fill="white"/>
</svg>
