<svg viewBox="0 0 30 30" xmlns="http://www.w3.org/2000/svg">
<path fill-rule="evenodd" clip-rule="evenodd" d="M15 0.3125C15.3568 0.3125 15.6828 0.515092 15.8407 0.835095L19.6636 8.58113L28.2118 9.82326C28.565 9.87458 28.8584 10.1219 28.9686 10.4613C29.0789 10.8007 28.9869 11.1733 28.7314 11.4223L22.5458 17.4518L24.0061 25.9655C24.0664 26.3172 23.9218 26.6727 23.6331 26.8824C23.3444 27.0922 22.9616 27.1199 22.6458 26.9538L15 22.9342L7.35421 26.9538C7.03835 27.1199 6.6556 27.0922 6.3669 26.8824C6.0782 26.6727 5.93362 26.3172 5.99394 25.9655L7.45416 17.4518L1.26858 11.4223C1.01305 11.1733 0.921082 10.8007 1.03135 10.4613C1.14163 10.1219 1.43502 9.87458 1.78816 9.82326L10.3364 8.58113L14.1593 0.835095C14.3172 0.515092 14.6431 0.3125 15 0.3125ZM15 3.36833L11.7997 9.85291C11.6631 10.1296 11.3991 10.3214 11.0938 10.3658L3.93762 11.4056L9.11587 16.4532C9.33683 16.6685 9.43765 16.9789 9.38549 17.283L8.16307 24.4102L14.5637 21.0452C14.8369 20.9016 15.1631 20.9016 15.4363 21.0452L21.8369 24.4102L20.6145 17.283C20.5623 16.9789 20.6632 16.6685 20.8841 16.4532L26.0624 11.4056L18.9062 10.3658C18.6009 10.3214 18.3369 10.1296 18.2003 9.85291L15 3.36833Z"/>
</svg>
