<svg width="60" height="60" viewBox="0 0 60 60" fill="none" xmlns="http://www.w3.org/2000/svg">
<path d="M54.275 21.775C57.4 18.65 55.975 15 54.275 13.225L46.775 5.72501C43.625 2.60001 40 4.02501 38.225 5.72501L33.975 10H27.5C22.75 10 20 12.5 18.6 15.375L7.50001 26.475V36.475L5.72501 38.225C2.60001 41.375 4.02501 45 5.72501 46.775L13.225 54.275C14.575 55.625 16.025 56.125 17.4 56.125C19.175 56.125 20.8 55.25 21.775 54.275L28.525 47.5H37.5C41.75 47.5 43.9 44.85 44.675 42.25C47.5 41.5 49.05 39.35 49.675 37.25C53.55 36.25 55 32.575 55 30V22.5H53.525L54.275 21.775ZM50 30C50 31.125 49.525 32.5 47.5 32.5H45V35C45 36.125 44.525 37.5 42.5 37.5H40V40C40 41.125 39.525 42.5 37.5 42.5H26.475L18.275 50.7C17.5 51.425 17.05 51 16.775 50.725L9.30001 43.275C8.57501 42.5 9.00001 42.05 9.27501 41.775L12.5 38.525V28.525L17.5 23.525V27.5C17.5 30.525 19.5 35 25 35C30.5 35 32.5 30.525 32.5 27.5H50V30ZM50.725 18.225L46.475 22.5H27.5V27.5C27.5 28.625 27.025 30 25 30C22.975 30 22.5 28.625 22.5 27.5V20C22.5 18.85 22.925 15 27.5 15H36.025L41.725 9.30001C42.5 8.57501 42.95 9.00001 43.225 9.27501L50.7 16.725C51.425 17.5 51 17.95 50.725 18.225Z" fill="#1A1A1A"/>
</svg>
