<svg viewBox="0 0 30 30" xmlns="http://www.w3.org/2000/svg">
<path fill-rule="evenodd" clip-rule="evenodd" d="M15 1.25C7.40608 1.25 1.25 7.40608 1.25 15C1.25 22.5939 7.40608 28.75 15 28.75C22.5939 28.75 28.75 22.5939 28.75 15C28.75 7.40608 22.5939 1.25 15 1.25ZM3.14117 14.375H9.0728C9.19816 10.579 10.4467 7.51207 11.689 5.37017C12.1765 4.52969 12.6646 3.82873 13.0869 3.27829C7.63862 4.16068 3.43283 8.75011 3.14117 14.375ZM9.10384 16.25H3.19C3.74833 21.5871 7.84184 25.8722 13.0869 26.7217C12.6646 26.1713 12.1765 25.4703 11.689 24.6299C10.5156 22.6068 9.33667 19.7585 9.10384 16.25ZM10.9835 16.25H19.0165C18.7878 19.3491 17.7411 21.8752 16.689 23.6891C16.0943 24.7146 15.5006 25.5072 15.0594 26.0398L15 26.111L14.9406 26.0398C14.4994 25.5072 13.9057 24.7146 13.311 23.6891C12.2589 21.8752 11.2122 19.3491 10.9835 16.25ZM19.051 14.375H10.949C11.0732 10.9896 12.189 8.24529 13.311 6.31089C13.9057 5.28544 14.4994 4.49281 14.9406 3.96022L15 3.88905L15.0594 3.96022C15.5006 4.49281 16.0943 5.28544 16.689 6.31089C17.811 8.24529 18.9268 10.9896 19.051 14.375ZM20.8962 16.25C20.6633 19.7585 19.4844 22.6068 18.311 24.6299C17.8235 25.4703 17.3354 26.1713 16.9131 26.7217C22.1582 25.8722 26.2517 21.5871 26.81 16.25H20.8962ZM26.8588 14.375H20.9272C20.8018 10.579 19.5533 7.51207 18.311 5.37017C17.8235 4.52969 17.3354 3.82873 16.9131 3.27829C22.3614 4.16068 26.5672 8.75011 26.8588 14.375Z"/>
</svg>
