<svg width="60" height="62" viewBox="0 0 60 62" fill="none" xmlns="http://www.w3.org/2000/svg">
<path d="M12.5 20.6667C16.6421 20.6667 20 17.1969 20 12.9167C20 8.63648 16.6421 5.16669 12.5 5.16669C8.35786 5.16669 5 8.63648 5 12.9167C5 17.1969 8.35786 20.6667 12.5 20.6667Z" stroke="#1A1A1A" stroke-width="5"/>
<path d="M47.5 56.8334C51.6421 56.8334 55 53.3636 55 49.0834C55 44.8032 51.6421 41.3334 47.5 41.3334C43.3579 41.3334 40 44.8032 40 49.0834C40 53.3636 43.3579 56.8334 47.5 56.8334Z" stroke="#1A1A1A" stroke-width="5"/>
<path d="M27.5 10.9792C27.0027 10.9792 26.5258 11.1833 26.1742 11.5467C25.8225 11.91 25.625 12.4028 25.625 12.9167C25.625 13.4305 25.8225 13.9234 26.1742 14.2867C26.5258 14.6501 27.0027 14.8542 27.5 14.8542V10.9792ZM32.5 49.0834L33.825 50.4525C34.1761 50.0892 34.3734 49.5968 34.3734 49.0834C34.3734 48.5699 34.1761 48.0775 33.825 47.7142L32.5 49.0834ZM30.075 43.8392C29.7196 43.4969 29.2494 43.3106 28.7637 43.3195C28.2779 43.3283 27.8145 43.5317 27.4709 43.8867C27.1274 44.2416 26.9306 44.7206 26.9221 45.2225C26.9135 45.7245 27.0938 46.2102 27.425 46.5775L30.075 43.8392ZM27.425 51.5892C27.0938 51.9565 26.9135 52.4423 26.9221 52.9442C26.9306 53.4461 27.1274 53.9251 27.4709 54.28C27.8145 54.635 28.2779 54.8384 28.7637 54.8472C29.2494 54.8561 29.7196 54.6698 30.075 54.3275L27.425 51.5892ZM26.0075 35.9239C26.4272 35.6477 26.7236 35.2107 26.8314 34.7087C26.9392 34.2068 26.8497 33.6812 26.5825 33.2475C26.3153 32.8138 25.8923 32.5076 25.4066 32.3962C24.9209 32.2847 24.4122 32.3772 23.9925 32.6534L26.0075 35.9213V35.9239ZM33 26.7298C32.5803 27.0059 32.2839 27.443 32.1761 27.9449C32.0683 28.4468 32.1578 28.9724 32.425 29.4061C32.6922 29.8398 33.1152 30.146 33.6009 30.2575C34.0866 30.3689 34.5953 30.2764 35.015 30.0003L33 26.7298ZM40.33 10.9792H27.5V14.8542H40.33V10.9792ZM32.5 47.1459H19.67V51.0209H32.5V47.1459ZM33.825 47.7142L30.075 43.8392L27.425 46.5775L31.175 50.4525L33.825 47.7142ZM31.175 47.7142L27.425 51.5892L30.075 54.3275L33.825 50.4525L31.175 47.7142ZM19.67 47.1459C16.545 47.1459 15.355 42.9273 17.9925 41.1913L15.98 37.9234C10.1775 41.7389 12.7925 51.0209 19.67 51.0209V47.1459ZM40.33 14.8542C43.455 14.8542 44.645 19.0728 42.0075 20.8088L44.02 24.0767C49.8225 20.2611 47.2075 10.9792 40.33 10.9792V14.8542ZM23.9925 32.6534L15.98 37.9234L17.9925 41.1913L26.0075 35.9213L23.9925 32.6534ZM42.0075 20.8088L33 26.7298L35.015 30.0003L44.02 24.0767L42.0075 20.8088Z" fill="#1A1A1A"/>
</svg>
