<svg width="58" height="59" viewBox="0 0 58 59" fill="none" xmlns="http://www.w3.org/2000/svg">
<path d="M40.1558 29.6443C40.1586 27.336 39.4471 25.0896 38.1289 23.2448L43.2153 17.9321C44.2099 18.3674 45.2742 18.5996 46.3513 18.6163C47.3257 18.6485 48.2966 18.4783 49.2085 18.1153C50.1204 17.7524 50.9554 17.2039 51.6657 16.5012C52.376 15.7985 52.9478 14.9553 53.3484 14.0199C53.7489 13.0845 53.9703 12.0752 54 11.0496C54 8.91473 53.1942 6.86728 51.7597 5.35768C50.3253 3.84808 48.3798 3 46.3513 3C44.3227 3 42.3772 3.84808 40.9428 5.35768C39.5084 6.86728 38.7025 8.91473 38.7025 11.0496C38.7074 12.2946 39.024 13.5162 39.6204 14.5915L34.534 19.9445C32.746 18.8912 30.7317 18.337 28.6827 18.3345C26.1529 18.2978 23.6824 19.1423 21.6558 20.7364C19.6293 22.3305 18.1602 24.585 17.4773 27.1489H14.8385C14.2609 25.6458 13.2655 24.3613 11.9826 23.4636C10.6997 22.5659 9.18918 22.0969 7.64873 22.1179C5.68717 22.0527 3.78097 22.8081 2.34744 24.2187C0.91391 25.6293 0.0698355 27.5802 0 29.6443C0.0296714 30.6698 0.251103 31.6791 0.651637 32.6145C1.05217 33.5499 1.62395 34.3931 2.3343 35.0958C3.04464 35.7986 3.87962 36.3471 4.79151 36.71C5.70339 37.0729 6.6743 37.2431 7.64873 37.2109C9.18918 37.2319 10.6997 36.7628 11.9826 35.8651C13.2655 34.9674 14.2609 33.683 14.8385 32.1799H17.4773C18.1602 34.7438 19.6293 36.9982 21.6558 38.5924C23.6824 40.1865 26.1529 41.0309 28.6827 40.9942C30.1444 41.0425 31.6007 40.7872 32.9685 40.2428C34.3364 39.6985 35.5888 38.8757 36.6544 37.8216C37.7199 36.7675 38.5776 35.5028 39.1784 34.0997C39.7792 32.6965 40.1113 31.1826 40.1558 29.6443ZM46.3513 8.55424C47.0457 8.48695 47.7371 8.71164 48.2746 9.17922C48.812 9.64679 49.1517 10.3192 49.2195 11.0496C49.1081 11.7656 48.7584 12.4166 48.233 12.8863C47.7076 13.356 47.0407 13.6139 46.3513 13.6139C45.6619 13.6139 44.9949 13.356 44.4695 12.8863C43.9441 12.4166 43.5945 11.7656 43.483 11.0496C43.5603 10.3234 43.9026 9.65723 44.4378 9.19164C44.9729 8.72605 45.659 8.49751 46.3513 8.55424ZM7.64873 32.1799C6.95051 32.236 6.25919 32.002 5.723 31.528C5.18681 31.054 4.84845 30.3777 4.78045 29.6443C4.85771 28.9181 5.20005 28.2519 5.73521 27.7863C6.27037 27.3207 6.95648 27.0921 7.64873 27.1489C8.34097 27.0921 9.02708 27.3207 9.56224 27.7863C10.0974 28.2519 10.4397 28.9181 10.517 29.6443C10.449 30.3777 10.1106 31.054 9.57445 31.528C9.03827 32.002 8.34695 32.236 7.64873 32.1799ZM28.6827 35.9632C27.0009 36.0512 25.3542 35.4366 24.1008 34.2532C22.8474 33.0698 22.0888 31.4133 21.9901 29.6443C22.0887 27.8785 22.8486 26.226 24.1032 25.049C25.3578 23.872 27.0047 23.2666 28.6827 23.3655C30.3583 23.2773 31.9995 23.8864 33.2519 25.0612C34.5042 26.2361 35.2669 27.8824 35.3754 29.6443C35.2669 31.4095 34.5055 33.0598 33.2543 34.2411C32.0032 35.4224 30.362 36.0406 28.6827 35.9632Z" fill="#1A1A1A"/>
<path d="M7.73333 14.922C8.82477 14.9293 9.90534 14.6988 10.904 14.2457L17.7093 21.3666C18.6947 20.0128 19.8978 18.8422 21.2667 17.9056L14.5387 10.9438C15.1416 9.88105 15.4617 8.67357 15.4667 7.44301C15.3961 5.40284 14.5426 3.47457 13.0933 2.08031C11.6439 0.686056 9.71659 -0.0605818 7.73333 0.00384907C5.75008 -0.0605818 3.8228 0.686056 2.37341 2.08031C0.924019 3.47457 0.070608 5.40284 0 7.44301C0.0299996 8.45666 0.253881 9.45428 0.658845 10.3789C1.06381 11.3034 1.64192 12.1368 2.36012 12.8314C3.07832 13.526 3.92254 14.0681 4.84451 14.4268C5.76648 14.7855 6.74813 14.9538 7.73333 14.922ZM7.73333 4.97655C8.43324 4.92048 9.12694 5.14637 9.66802 5.60656C10.2091 6.06675 10.5552 6.72523 10.6333 7.44301C10.5646 8.16799 10.2225 8.83639 9.68036 9.3049C9.13824 9.77341 8.43928 10.0047 7.73333 9.94926C7.02739 10.0047 6.32842 9.77341 5.7863 9.3049C5.24419 8.83639 4.90208 8.16799 4.83333 7.44301C4.91145 6.72523 5.25757 6.06675 5.79865 5.60656C6.33973 5.14637 7.03343 4.92048 7.73333 4.97655ZM50.2667 43.7636C49.1752 43.7563 48.0947 43.9868 47.096 44.4399L40.2907 37.2792C39.2838 38.5938 38.0679 39.7236 36.6947 40.6209L43.4227 47.5429C42.8315 48.6088 42.5247 49.8165 42.5333 51.0437C42.5333 53.1538 43.3481 55.1775 44.7984 56.6696C46.2487 58.1617 48.2157 59 50.2667 59C52.3177 59 54.2847 58.1617 55.735 56.6696C57.1852 55.1775 58 53.1538 58 51.0437C57.89 49.0317 57.0194 47.1437 55.5743 45.7834C54.1293 44.423 52.2243 43.6981 50.2667 43.7636ZM50.2667 53.709C49.5607 53.7645 48.8618 53.5332 48.3196 53.0647C47.7775 52.5962 47.4354 51.9278 47.3667 51.2028C47.4794 50.4951 47.8329 49.8517 48.3641 49.3874C48.8953 48.9231 49.5696 48.6682 50.2667 48.6682C50.9637 48.6682 51.638 48.9231 52.1692 49.3874C52.7004 49.8517 53.054 50.4951 53.1667 51.2028C53.0979 51.9278 52.7558 52.5962 52.2137 53.0647C51.6716 53.5332 50.9726 53.7645 50.2667 53.709Z" fill="#1A1A1A"/>
</svg>
