<svg width="328" height="186" viewBox="0 0 328 186" fill="none" xmlns="http://www.w3.org/2000/svg">
<path d="M5.399 151.3V159H3.617V152.73H2.077V151.3H5.399ZM10.0366 159.132C9.39862 159.132 8.83028 158.974 8.33162 158.659C7.83295 158.344 7.44062 157.889 7.15462 157.295C6.87595 156.694 6.73662 155.979 6.73662 155.15C6.73662 154.321 6.87595 153.61 7.15462 153.016C7.44062 152.415 7.83295 151.956 8.33162 151.641C8.83028 151.326 9.39862 151.168 10.0366 151.168C10.6746 151.168 11.243 151.326 11.7416 151.641C12.2403 151.956 12.629 152.415 12.9076 153.016C13.1936 153.61 13.3366 154.321 13.3366 155.15C13.3366 155.979 13.1936 156.694 12.9076 157.295C12.629 157.889 12.2403 158.344 11.7416 158.659C11.243 158.974 10.6746 159.132 10.0366 159.132ZM10.0366 157.625C10.506 157.625 10.8726 157.423 11.1366 157.02C11.408 156.617 11.5436 155.993 11.5436 155.15C11.5436 154.307 11.408 153.683 11.1366 153.28C10.8726 152.877 10.506 152.675 10.0366 152.675C9.57462 152.675 9.20795 152.877 8.93662 153.28C8.67262 153.683 8.54062 154.307 8.54062 155.15C8.54062 155.993 8.67262 156.617 8.93662 157.02C9.20795 157.423 9.57462 157.625 10.0366 157.625ZM20.3734 159V155.458L18.6024 158.428H17.8764L16.1494 155.447V159H14.5984V153.082H16.3914L18.2834 156.503L20.2964 153.082H21.9024L21.9244 159H20.3734Z" fill="#0176FE"/>
<path d="M8.182 120.548V122H2.363V120.845L5.333 118.04C5.64833 117.739 5.861 117.483 5.971 117.27C6.081 117.05 6.136 116.834 6.136 116.621C6.136 116.313 6.02967 116.078 5.817 115.917C5.61167 115.748 5.30733 115.664 4.904 115.664C4.56667 115.664 4.26233 115.73 3.991 115.862C3.71967 115.987 3.49233 116.177 3.309 116.434L2.011 115.598C2.31167 115.151 2.726 114.802 3.254 114.553C3.782 114.296 4.387 114.168 5.069 114.168C5.641 114.168 6.13967 114.263 6.565 114.454C6.99767 114.637 7.33133 114.901 7.566 115.246C7.808 115.583 7.929 115.983 7.929 116.445C7.929 116.863 7.841 117.255 7.665 117.622C7.489 117.989 7.148 118.407 6.642 118.876L4.871 120.548H8.182ZM12.1958 122.132C11.5578 122.132 10.9895 121.974 10.4908 121.659C9.99213 121.344 9.5998 120.889 9.3138 120.295C9.03513 119.694 8.8958 118.979 8.8958 118.15C8.8958 117.321 9.03513 116.61 9.3138 116.016C9.5998 115.415 9.99213 114.956 10.4908 114.641C10.9895 114.326 11.5578 114.168 12.1958 114.168C12.8338 114.168 13.4021 114.326 13.9008 114.641C14.3995 114.956 14.7881 115.415 15.0668 116.016C15.3528 116.61 15.4958 117.321 15.4958 118.15C15.4958 118.979 15.3528 119.694 15.0668 120.295C14.7881 120.889 14.3995 121.344 13.9008 121.659C13.4021 121.974 12.8338 122.132 12.1958 122.132ZM12.1958 120.625C12.6651 120.625 13.0318 120.423 13.2958 120.02C13.5671 119.617 13.7028 118.993 13.7028 118.15C13.7028 117.307 13.5671 116.683 13.2958 116.28C13.0318 115.877 12.6651 115.675 12.1958 115.675C11.7338 115.675 11.3671 115.877 11.0958 116.28C10.8318 116.683 10.6998 117.307 10.6998 118.15C10.6998 118.993 10.8318 119.617 11.0958 120.02C11.3671 120.423 11.7338 120.625 12.1958 120.625ZM22.5326 122V118.458L20.7616 121.428H20.0356L18.3086 118.447V122H16.7576V116.082H18.5506L20.4426 119.503L22.4556 116.082H24.0616L24.0836 122H22.5326Z" fill="#0176FE"/>
<path d="M5.026 80.435C5.70067 80.545 6.21767 80.798 6.577 81.194C6.93633 81.5827 7.116 82.0667 7.116 82.646C7.116 83.0933 6.99867 83.5077 6.764 83.889C6.52933 84.263 6.17 84.5637 5.686 84.791C5.20933 85.0183 4.62267 85.132 3.926 85.132C3.38333 85.132 2.848 85.0623 2.32 84.923C1.79933 84.7763 1.35567 84.571 0.989 84.307L1.682 82.943C1.97533 83.163 2.31267 83.3353 2.694 83.46C3.08267 83.5773 3.47867 83.636 3.882 83.636C4.32933 83.636 4.68133 83.5517 4.938 83.383C5.19467 83.207 5.323 82.9613 5.323 82.646C5.323 82.0153 4.84267 81.7 3.882 81.7H3.068V80.523L4.652 78.73H1.374V77.3H6.764V78.455L5.026 80.435ZM11.2388 85.132C10.6008 85.132 10.0324 84.9743 9.53377 84.659C9.0351 84.3437 8.64277 83.889 8.35677 83.295C8.0781 82.6937 7.93877 81.9787 7.93877 81.15C7.93877 80.3213 8.0781 79.61 8.35677 79.016C8.64277 78.4147 9.0351 77.9563 9.53377 77.641C10.0324 77.3257 10.6008 77.168 11.2388 77.168C11.8768 77.168 12.4451 77.3257 12.9438 77.641C13.4424 77.9563 13.8311 78.4147 14.1098 79.016C14.3958 79.61 14.5388 80.3213 14.5388 81.15C14.5388 81.9787 14.3958 82.6937 14.1098 83.295C13.8311 83.889 13.4424 84.3437 12.9438 84.659C12.4451 84.9743 11.8768 85.132 11.2388 85.132ZM11.2388 83.625C11.7081 83.625 12.0748 83.4233 12.3388 83.02C12.6101 82.6167 12.7458 81.9933 12.7458 81.15C12.7458 80.3067 12.6101 79.6833 12.3388 79.28C12.0748 78.8767 11.7081 78.675 11.2388 78.675C10.7768 78.675 10.4101 78.8767 10.1388 79.28C9.87477 79.6833 9.74277 80.3067 9.74277 81.15C9.74277 81.9933 9.87477 82.6167 10.1388 83.02C10.4101 83.4233 10.7768 83.625 11.2388 83.625ZM21.5756 85V81.458L19.8046 84.428H19.0786L17.3516 81.447V85H15.8006V79.082H17.5936L19.4856 82.503L21.4986 79.082H23.1046L23.1266 85H21.5756Z" fill="#0176FE"/>
<path d="M7.48 46.383H6.226V48H4.488V46.383H0.341V45.184L3.971 40.3H5.841L2.475 44.931H4.543V43.49H6.226V44.931H7.48V46.383ZM11.313 48.132C10.675 48.132 10.1067 47.9743 9.60798 47.659C9.10932 47.3437 8.71698 46.889 8.43098 46.295C8.15232 45.6937 8.01298 44.9787 8.01298 44.15C8.01298 43.3213 8.15232 42.61 8.43098 42.016C8.71698 41.4147 9.10932 40.9563 9.60798 40.641C10.1067 40.3257 10.675 40.168 11.313 40.168C11.951 40.168 12.5193 40.3257 13.018 40.641C13.5167 40.9563 13.9053 41.4147 14.184 42.016C14.47 42.61 14.613 43.3213 14.613 44.15C14.613 44.9787 14.47 45.6937 14.184 46.295C13.9053 46.889 13.5167 47.3437 13.018 47.659C12.5193 47.9743 11.951 48.132 11.313 48.132ZM11.313 46.625C11.7823 46.625 12.149 46.4233 12.413 46.02C12.6843 45.6167 12.82 44.9933 12.82 44.15C12.82 43.3067 12.6843 42.6833 12.413 42.28C12.149 41.8767 11.7823 41.675 11.313 41.675C10.851 41.675 10.4843 41.8767 10.213 42.28C9.94898 42.6833 9.81698 43.3067 9.81698 44.15C9.81698 44.9933 9.94898 45.6167 10.213 46.02C10.4843 46.4233 10.851 46.625 11.313 46.625ZM21.6498 48V44.458L19.8788 47.428H19.1528L17.4258 44.447V48H15.8748V42.082H17.6678L19.5598 45.503L21.5728 42.082H23.1788L23.2008 48H21.6498Z" fill="#0176FE"/>
<path d="M4.069 6.193C5.15433 6.193 5.95367 6.40933 6.467 6.842C6.98767 7.27467 7.248 7.854 7.248 8.58C7.248 9.04933 7.13067 9.47833 6.896 9.867C6.66133 10.2483 6.302 10.5563 5.818 10.791C5.34133 11.0183 4.751 11.132 4.047 11.132C3.50433 11.132 2.969 11.0623 2.441 10.923C1.92033 10.7763 1.47667 10.571 1.11 10.307L1.814 8.943C2.10733 9.163 2.44467 9.33533 2.826 9.46C3.20733 9.57733 3.59967 9.636 4.003 9.636C4.45033 9.636 4.80233 9.548 5.059 9.372C5.31567 9.196 5.444 8.95033 5.444 8.635C5.444 8.305 5.30833 8.05567 5.037 7.887C4.773 7.71833 4.311 7.634 3.651 7.634H1.682L2.078 3.3H6.775V4.73H3.563L3.442 6.193H4.069ZM11.271 11.132C10.633 11.132 10.0647 10.9743 9.56599 10.659C9.06733 10.3437 8.67499 9.889 8.38899 9.295C8.11033 8.69367 7.97099 7.97867 7.97099 7.15C7.97099 6.32133 8.11033 5.61 8.38899 5.016C8.67499 4.41467 9.06733 3.95633 9.56599 3.641C10.0647 3.32567 10.633 3.168 11.271 3.168C11.909 3.168 12.4773 3.32567 12.976 3.641C13.4747 3.95633 13.8633 4.41467 14.142 5.016C14.428 5.61 14.571 6.32133 14.571 7.15C14.571 7.97867 14.428 8.69367 14.142 9.295C13.8633 9.889 13.4747 10.3437 12.976 10.659C12.4773 10.9743 11.909 11.132 11.271 11.132ZM11.271 9.625C11.7403 9.625 12.107 9.42333 12.371 9.02C12.6423 8.61667 12.778 7.99333 12.778 7.15C12.778 6.30667 12.6423 5.68333 12.371 5.28C12.107 4.87667 11.7403 4.675 11.271 4.675C10.809 4.675 10.4423 4.87667 10.171 5.28C9.90699 5.68333 9.77499 6.30667 9.77499 7.15C9.77499 7.99333 9.90699 8.61667 10.171 9.02C10.4423 9.42333 10.809 9.625 11.271 9.625ZM21.6078 11V7.458L19.8368 10.428H19.1108L17.3838 7.447V11H15.8328V5.082H17.6258L19.5178 8.503L21.5308 5.082H23.1368L23.1588 11H21.6078Z" fill="#0176FE"/>
<path d="M50.898 173.2V183H49.876V174.096H43.674V183H42.652V173.2H50.898ZM57.0047 183.07C56.2954 183.07 55.6561 182.911 55.0867 182.594C54.5174 182.267 54.0694 181.819 53.7427 181.25C53.4161 180.681 53.2527 180.037 53.2527 179.318C53.2527 178.599 53.4161 177.955 53.7427 177.386C54.0694 176.817 54.5174 176.373 55.0867 176.056C55.6561 175.739 56.2954 175.58 57.0047 175.58C57.7141 175.58 58.3534 175.739 58.9227 176.056C59.4921 176.373 59.9354 176.817 60.2527 177.386C60.5794 177.955 60.7427 178.599 60.7427 179.318C60.7427 180.037 60.5794 180.681 60.2527 181.25C59.9354 181.819 59.4921 182.267 58.9227 182.594C58.3534 182.911 57.7141 183.07 57.0047 183.07ZM57.0047 182.188C57.5274 182.188 57.9941 182.071 58.4047 181.838C58.8247 181.595 59.1514 181.255 59.3847 180.816C59.6181 180.377 59.7347 179.878 59.7347 179.318C59.7347 178.758 59.6181 178.259 59.3847 177.82C59.1514 177.381 58.8247 177.045 58.4047 176.812C57.9941 176.569 57.5274 176.448 57.0047 176.448C56.4821 176.448 56.0107 176.569 55.5907 176.812C55.1801 177.045 54.8534 177.381 54.6107 177.82C54.3774 178.259 54.2607 178.758 54.2607 179.318C54.2607 179.878 54.3774 180.377 54.6107 180.816C54.8534 181.255 55.1801 181.595 55.5907 181.838C56.0107 182.071 56.4821 182.188 57.0047 182.188ZM65.5411 179.724H63.8611V183H62.8671V175.636H63.8611V178.87H65.5551L68.1451 175.636H69.2231L66.3251 179.206L69.4331 183H68.2571L65.5411 179.724ZM73.1003 173.2V183H72.0923V174.096H69.7823V173.2H73.1003Z" fill="#C5C5C5"/>
<path d="M110.898 173.2V183H109.876V174.096H103.674V183H102.652V173.2H110.898ZM117.005 183.07C116.295 183.07 115.656 182.911 115.087 182.594C114.517 182.267 114.069 181.819 113.743 181.25C113.416 180.681 113.253 180.037 113.253 179.318C113.253 178.599 113.416 177.955 113.743 177.386C114.069 176.817 114.517 176.373 115.087 176.056C115.656 175.739 116.295 175.58 117.005 175.58C117.714 175.58 118.353 175.739 118.923 176.056C119.492 176.373 119.935 176.817 120.253 177.386C120.579 177.955 120.743 178.599 120.743 179.318C120.743 180.037 120.579 180.681 120.253 181.25C119.935 181.819 119.492 182.267 118.923 182.594C118.353 182.911 117.714 183.07 117.005 183.07ZM117.005 182.188C117.527 182.188 117.994 182.071 118.405 181.838C118.825 181.595 119.151 181.255 119.385 180.816C119.618 180.377 119.735 179.878 119.735 179.318C119.735 178.758 119.618 178.259 119.385 177.82C119.151 177.381 118.825 177.045 118.405 176.812C117.994 176.569 117.527 176.448 117.005 176.448C116.482 176.448 116.011 176.569 115.591 176.812C115.18 177.045 114.853 177.381 114.611 177.82C114.377 178.259 114.261 178.758 114.261 179.318C114.261 179.878 114.377 180.377 114.611 180.816C114.853 181.255 115.18 181.595 115.591 181.838C116.011 182.071 116.482 182.188 117.005 182.188ZM125.541 179.724H123.861V183H122.867V175.636H123.861V178.87H125.555L128.145 175.636H129.223L126.325 179.206L129.433 183H128.257L125.541 179.724ZM136.967 182.104V183H130.093V182.286L134.167 178.296C134.68 177.792 135.026 177.358 135.203 176.994C135.39 176.621 135.483 176.247 135.483 175.874C135.483 175.295 135.282 174.847 134.881 174.53C134.489 174.203 133.924 174.04 133.187 174.04C132.039 174.04 131.148 174.404 130.513 175.132L129.799 174.516C130.182 174.068 130.667 173.723 131.255 173.48C131.852 173.237 132.524 173.116 133.271 173.116C134.27 173.116 135.058 173.354 135.637 173.83C136.225 174.297 136.519 174.941 136.519 175.762C136.519 176.266 136.407 176.751 136.183 177.218C135.959 177.685 135.534 178.221 134.909 178.828L131.577 182.104H136.967Z" fill="#C5C5C5"/>
<path d="M173.898 173.2V183H172.876V174.096H166.674V183H165.652V173.2H173.898ZM180.005 183.07C179.295 183.07 178.656 182.911 178.087 182.594C177.517 182.267 177.069 181.819 176.743 181.25C176.416 180.681 176.253 180.037 176.253 179.318C176.253 178.599 176.416 177.955 176.743 177.386C177.069 176.817 177.517 176.373 178.087 176.056C178.656 175.739 179.295 175.58 180.005 175.58C180.714 175.58 181.353 175.739 181.923 176.056C182.492 176.373 182.935 176.817 183.253 177.386C183.579 177.955 183.743 178.599 183.743 179.318C183.743 180.037 183.579 180.681 183.253 181.25C182.935 181.819 182.492 182.267 181.923 182.594C181.353 182.911 180.714 183.07 180.005 183.07ZM180.005 182.188C180.527 182.188 180.994 182.071 181.405 181.838C181.825 181.595 182.151 181.255 182.385 180.816C182.618 180.377 182.735 179.878 182.735 179.318C182.735 178.758 182.618 178.259 182.385 177.82C182.151 177.381 181.825 177.045 181.405 176.812C180.994 176.569 180.527 176.448 180.005 176.448C179.482 176.448 179.011 176.569 178.591 176.812C178.18 177.045 177.853 177.381 177.611 177.82C177.377 178.259 177.261 178.758 177.261 179.318C177.261 179.878 177.377 180.377 177.611 180.816C177.853 181.255 178.18 181.595 178.591 181.838C179.011 182.071 179.482 182.188 180.005 182.188ZM188.541 179.724H186.861V183H185.867V175.636H186.861V178.87H188.555L191.145 175.636H192.223L189.325 179.206L192.433 183H191.257L188.541 179.724ZM196.648 177.4C197.675 177.456 198.454 177.736 198.986 178.24C199.527 178.735 199.798 179.383 199.798 180.186C199.798 180.746 199.663 181.245 199.392 181.684C199.121 182.113 198.72 182.454 198.188 182.706C197.656 182.958 197.007 183.084 196.242 183.084C195.533 183.084 194.861 182.972 194.226 182.748C193.601 182.515 193.097 182.207 192.714 181.824L193.204 181.026C193.531 181.362 193.965 181.637 194.506 181.852C195.047 182.057 195.626 182.16 196.242 182.16C197.045 182.16 197.665 181.987 198.104 181.642C198.543 181.287 198.762 180.802 198.762 180.186C198.762 179.579 198.543 179.103 198.104 178.758C197.665 178.413 197.003 178.24 196.116 178.24H195.416V177.498L198.132 174.096H193.12V173.2H199.42V173.914L196.648 177.4Z" fill="#C5C5C5"/>
<path d="M236.898 173.2V183H235.876V174.096H229.674V183H228.652V173.2H236.898ZM243.005 183.07C242.295 183.07 241.656 182.911 241.087 182.594C240.517 182.267 240.069 181.819 239.743 181.25C239.416 180.681 239.253 180.037 239.253 179.318C239.253 178.599 239.416 177.955 239.743 177.386C240.069 176.817 240.517 176.373 241.087 176.056C241.656 175.739 242.295 175.58 243.005 175.58C243.714 175.58 244.353 175.739 244.923 176.056C245.492 176.373 245.935 176.817 246.253 177.386C246.579 177.955 246.743 178.599 246.743 179.318C246.743 180.037 246.579 180.681 246.253 181.25C245.935 181.819 245.492 182.267 244.923 182.594C244.353 182.911 243.714 183.07 243.005 183.07ZM243.005 182.188C243.527 182.188 243.994 182.071 244.405 181.838C244.825 181.595 245.151 181.255 245.385 180.816C245.618 180.377 245.735 179.878 245.735 179.318C245.735 178.758 245.618 178.259 245.385 177.82C245.151 177.381 244.825 177.045 244.405 176.812C243.994 176.569 243.527 176.448 243.005 176.448C242.482 176.448 242.011 176.569 241.591 176.812C241.18 177.045 240.853 177.381 240.611 177.82C240.377 178.259 240.261 178.758 240.261 179.318C240.261 179.878 240.377 180.377 240.611 180.816C240.853 181.255 241.18 181.595 241.591 181.838C242.011 182.071 242.482 182.188 243.005 182.188ZM251.541 179.724H249.861V183H248.867V175.636H249.861V178.87H251.555L254.145 175.636H255.223L252.325 179.206L255.433 183H254.257L251.541 179.724ZM264.195 180.424H262.235V183H261.227V180.424H255.697V179.696L260.891 173.2H262.011L256.999 179.528H261.255V177.26H262.235V179.528H264.195V180.424Z" fill="#C5C5C5"/>
<path d="M300.898 173.2V183H299.876V174.096H293.674V183H292.652V173.2H300.898ZM307.005 183.07C306.295 183.07 305.656 182.911 305.087 182.594C304.517 182.267 304.069 181.819 303.743 181.25C303.416 180.681 303.253 180.037 303.253 179.318C303.253 178.599 303.416 177.955 303.743 177.386C304.069 176.817 304.517 176.373 305.087 176.056C305.656 175.739 306.295 175.58 307.005 175.58C307.714 175.58 308.353 175.739 308.923 176.056C309.492 176.373 309.935 176.817 310.253 177.386C310.579 177.955 310.743 178.599 310.743 179.318C310.743 180.037 310.579 180.681 310.253 181.25C309.935 181.819 309.492 182.267 308.923 182.594C308.353 182.911 307.714 183.07 307.005 183.07ZM307.005 182.188C307.527 182.188 307.994 182.071 308.405 181.838C308.825 181.595 309.151 181.255 309.385 180.816C309.618 180.377 309.735 179.878 309.735 179.318C309.735 178.758 309.618 178.259 309.385 177.82C309.151 177.381 308.825 177.045 308.405 176.812C307.994 176.569 307.527 176.448 307.005 176.448C306.482 176.448 306.011 176.569 305.591 176.812C305.18 177.045 304.853 177.381 304.611 177.82C304.377 178.259 304.261 178.758 304.261 179.318C304.261 179.878 304.377 180.377 304.611 180.816C304.853 181.255 305.18 181.595 305.591 181.838C306.011 182.071 306.482 182.188 307.005 182.188ZM315.541 179.724H313.861V183H312.867V175.636H313.861V178.87H315.555L318.145 175.636H319.223L316.325 179.206L319.433 183H318.257L315.541 179.724ZM322.892 177.218C324.311 177.218 325.342 177.475 325.986 177.988C326.639 178.492 326.966 179.201 326.966 180.116C326.966 180.685 326.831 181.194 326.56 181.642C326.299 182.09 325.902 182.445 325.37 182.706C324.838 182.958 324.185 183.084 323.41 183.084C322.71 183.084 322.043 182.972 321.408 182.748C320.783 182.515 320.279 182.207 319.896 181.824L320.386 181.026C320.713 181.362 321.142 181.637 321.674 181.852C322.206 182.057 322.78 182.16 323.396 182.16C324.208 182.16 324.833 181.978 325.272 181.614C325.72 181.25 325.944 180.765 325.944 180.158C325.944 179.486 325.692 178.977 325.188 178.632C324.693 178.287 323.853 178.114 322.668 178.114H320.582L321.086 173.2H326.448V174.096H321.968L321.632 177.218H322.892Z" fill="#C5C5C5"/>
<line x1="50" y1="0.5" x2="317" y2="0.5" stroke="#F0F0F0"/>
<line x1="50" y1="37.5" x2="317" y2="37.5" stroke="#F0F0F0"/>
<line x1="50" y1="74.5" x2="317" y2="74.5" stroke="#F0F0F0"/>
<line x1="50" y1="111.5" x2="317" y2="111.5" stroke="#F0F0F0"/>
<line x1="49" y1="159.5" x2="316" y2="159.5" stroke="#F0F0F0"/>
<path d="M50 63C50 60.2386 52.2386 58 55 58H62C64.7614 58 67 60.2386 67 63V160H50V63Z" fill="#2BE2A0"/>
<path d="M111 35C111 32.2386 113.239 30 116 30H123C125.761 30 128 32.2386 128 35V160H111V35Z" fill="#2BE2A0"/>
<path d="M174 19C174 16.2386 176.239 14 179 14H186C188.761 14 191 16.2386 191 19V160H174V19Z" fill="#2BE2A0"/>
<path d="M237 6C237 3.23857 239.239 1 242 1H249C251.761 1 254 3.23858 254 6V160H237V6Z" fill="#2BE2A0"/>
<path d="M300 6C300 3.23857 302.239 1 305 1H312C314.761 1 317 3.23858 317 6V160H300V6Z" fill="#2BE2A0"/>
</svg>
