<svg width="27" height="27" viewBox="0 0 27 27" fill="none" xmlns="http://www.w3.org/2000/svg">
<circle cx="13.9231" cy="13.0769" r="13.0769" fill="#333333"/>
<path d="M17.0116 13.0712C17.2332 13.1815 17.4479 13.309 17.654 13.4513C18.0259 13.7083 18.363 14.0052 18.6683 14.3384C19.0754 14.7825 19.4094 15.2765 19.6719 15.8191C19.838 16.1622 19.9694 16.5182 20.0734 16.8847C20.0814 16.9128 20.0787 16.9235 20.0451 16.9235C19.3426 16.9226 18.64 16.9225 17.9375 16.9238C17.9002 16.9238 17.8938 16.9044 17.8849 16.8772C17.7309 16.4047 17.5101 15.9664 17.208 15.5711C16.7494 14.9712 16.1721 14.5359 15.4471 14.3075C15.2438 14.2435 15.0357 14.2028 14.8244 14.1767C14.7994 14.1736 14.7918 14.1814 14.794 14.2049C14.7951 14.2168 14.7942 14.2289 14.7942 14.241C14.7942 15.1157 14.7942 15.9904 14.7942 16.8651C14.7942 16.9228 14.7942 16.9226 14.7358 16.9228C14.4551 16.924 14.1745 16.9192 13.8947 16.897C12.8333 16.8123 11.8324 16.532 10.9213 15.9664C10.4922 15.7 10.1056 15.3809 9.76074 15.0112C9.09094 14.2934 8.62894 13.4537 8.31097 12.53C8.13956 12.032 8.01589 11.5219 7.93013 11.0023C7.87203 10.6498 7.83051 10.2956 7.80394 9.93939C7.78772 9.72214 7.78052 9.50452 7.7698 9.287C7.76773 9.24515 7.77556 9.23136 7.82141 9.23145C8.49094 9.23316 9.16048 9.23289 9.82992 9.2319C9.86487 9.23181 9.87775 9.23695 9.87847 9.27699C9.88406 9.58938 9.9045 9.90088 9.93891 10.2116C10.0009 10.7716 10.1109 11.3211 10.2908 11.8556C10.4474 12.3206 10.6536 12.7615 10.9314 13.1671C11.2547 13.6392 11.6503 14.0349 12.1543 14.3141C12.3355 14.4145 12.5256 14.4937 12.7259 14.5482C12.7656 14.559 12.7743 14.5515 12.7741 14.5118C12.773 14.1887 12.7735 13.8655 12.7735 13.5424C12.7735 12.1266 12.7735 10.7108 12.7736 9.29503C12.7736 9.22135 12.7665 9.23298 12.8355 9.23289C13.4705 9.23253 14.1055 9.23316 14.7405 9.23172C14.7831 9.23163 14.7952 9.24082 14.7951 9.28529C14.7936 10.2637 14.794 11.2422 14.794 12.2206C14.794 12.2775 14.7938 12.2759 14.8515 12.2671C15.2836 12.201 15.6565 12.0042 15.9971 11.7406C16.5207 11.3355 16.918 10.8247 17.23 10.2444C17.3978 9.93226 17.531 9.60598 17.6261 9.26436C17.6326 9.24073 17.6425 9.23199 17.6687 9.23208C18.3096 9.23298 18.9506 9.2328 19.5917 9.23289C19.6004 9.23289 19.6093 9.23451 19.6284 9.23641C19.2927 10.8845 18.3881 12.1364 17.0116 13.0712Z" fill="#FEFEFF"/>
</svg>
