<svg width="28" height="27" viewBox="0 0 28 27" fill="none" xmlns="http://www.w3.org/2000/svg">
<circle cx="14" cy="13.0769" r="13.0769" fill="#333333"/>
<path d="M19.0145 7.69238C18.9727 7.69238 18.9248 7.69832 18.8829 7.71612L7.3178 12.0781C6.98874 12.2028 7.0007 12.6597 7.32977 12.7725L10.0101 13.6686L11.6256 16.8793L11.6315 16.8853C11.6614 16.9446 11.7213 16.9802 11.7871 16.9802C11.823 16.9802 11.8649 16.9683 11.9008 16.9387L13.4145 15.6627L11.7213 14.3927L11.8529 16.0663L10.6384 13.5678L17.1 9.71612L11.7213 14.3867L15.9094 17.5381C16.047 17.6449 16.2085 17.6924 16.3701 17.6924C16.6991 17.6924 17.0222 17.4787 17.1119 17.1167L19.3735 8.13749C19.4333 7.91197 19.2419 7.69238 19.0145 7.69238Z" fill="white"/>
</svg>
