<svg width="62" height="62" viewBox="0 0 62 62" fill="none" xmlns="http://www.w3.org/2000/svg">
<path d="M43.4 8.52501C43.4 7.90838 43.645 7.31701 44.081 6.88099C44.517 6.44497 45.1084 6.20001 45.725 6.20001H53.475C54.0916 6.20001 54.683 6.44497 55.119 6.88099C55.555 7.31701 55.8 7.90838 55.8 8.52501V16.275C55.8 16.8916 55.555 17.483 55.119 17.919C54.683 18.3551 54.0916 18.6 53.475 18.6C52.8584 18.6 52.267 18.3551 51.831 17.919C51.395 17.483 51.15 16.8916 51.15 16.275V14.136L37.293 27.993C36.8571 28.4284 36.2661 28.673 35.65 28.673C35.0339 28.673 34.4429 28.4284 34.007 27.993L26.35 20.336L13.268 33.418C13.0551 33.6464 12.7985 33.8297 12.5133 33.9567C12.2281 34.0838 11.9202 34.1521 11.608 34.1576C11.2958 34.1632 10.9858 34.1057 10.6962 33.9888C10.4067 33.8719 10.1438 33.6978 9.92298 33.477C9.7022 33.2563 9.52815 32.9933 9.41122 32.7038C9.29428 32.4143 9.23686 32.1042 9.24237 31.792C9.24787 31.4798 9.3162 31.1719 9.44328 30.8867C9.57035 30.6015 9.75357 30.3449 9.982 30.132L24.707 15.407C25.1429 14.9716 25.7339 14.7271 26.35 14.7271C26.9661 14.7271 27.5571 14.9716 27.993 15.407L35.65 23.064L47.864 10.85H45.725C45.1084 10.85 44.517 10.6051 44.081 10.169C43.645 9.73301 43.4 9.14164 43.4 8.52501ZM11.625 43.4C12.2416 43.4 12.833 43.645 13.269 44.081C13.705 44.517 13.95 45.1084 13.95 45.725V53.475C13.95 54.0916 13.705 54.683 13.269 55.119C12.833 55.5551 12.2416 55.8 11.625 55.8C11.0084 55.8 10.417 55.5551 9.98098 55.119C9.54495 54.683 9.3 54.0916 9.3 53.475V45.725C9.3 45.1084 9.54495 44.517 9.98098 44.081C10.417 43.645 11.0084 43.4 11.625 43.4ZM26.35 36.425C26.35 35.8084 26.105 35.217 25.669 34.781C25.233 34.345 24.6416 34.1 24.025 34.1C23.4084 34.1 22.817 34.345 22.381 34.781C21.945 35.217 21.7 35.8084 21.7 36.425V53.475C21.7 54.0916 21.945 54.683 22.381 55.119C22.817 55.5551 23.4084 55.8 24.025 55.8C24.6416 55.8 25.233 55.5551 25.669 55.119C26.105 54.683 26.35 54.0916 26.35 53.475V36.425ZM36.425 40.3C37.0416 40.3 37.633 40.545 38.069 40.981C38.505 41.417 38.75 42.0084 38.75 42.625V53.475C38.75 54.0916 38.505 54.683 38.069 55.119C37.633 55.5551 37.0416 55.8 36.425 55.8C35.8084 55.8 35.217 55.5551 34.781 55.119C34.345 54.683 34.1 54.0916 34.1 53.475V42.625C34.1 42.0084 34.345 41.417 34.781 40.981C35.217 40.545 35.8084 40.3 36.425 40.3ZM51.15 30.225C51.15 29.6084 50.905 29.017 50.469 28.581C50.033 28.145 49.4416 27.9 48.825 27.9C48.2084 27.9 47.617 28.145 47.181 28.581C46.745 29.017 46.5 29.6084 46.5 30.225V53.475C46.5 54.0916 46.745 54.683 47.181 55.119C47.617 55.5551 48.2084 55.8 48.825 55.8C49.4416 55.8 50.033 55.5551 50.469 55.119C50.905 54.683 51.15 54.0916 51.15 53.475V30.225Z" fill="#1A1A1A"/>
</svg>
