<svg width="29" height="29" viewBox="0 0 29 29" fill="none" xmlns="http://www.w3.org/2000/svg">
<g id="mobile">
<g id="Icon">
<path d="M7.25 6.04167C7.25 4.70698 8.33198 3.625 9.66667 3.625H19.3333C20.668 3.625 21.75 4.70698 21.75 6.04167V22.9583C21.75 24.293 20.668 25.375 19.3333 25.375H9.66667C8.33198 25.375 7.25 24.293 7.25 22.9583V6.04167ZM19.3333 6.04167H9.66667V22.9583H19.3333V6.04167Z" fill="white"/>
<path d="M15.7083 20.5417C15.7083 21.209 15.1673 21.75 14.5 21.75C13.8327 21.75 13.2917 21.209 13.2917 20.5417C13.2917 19.8743 13.8327 19.3333 14.5 19.3333C15.1673 19.3333 15.7083 19.8743 15.7083 20.5417Z" fill="white"/>
</g>
</g>
</svg>
