<svg viewBox="0 0 30 30" xmlns="http://www.w3.org/2000/svg">
<path fill-rule="evenodd" clip-rule="evenodd" d="M4.37515 10C4.37515 6.20306 7.45314 3.125 11.2501 3.125C15.047 3.125 18.125 6.20306 18.125 10C18.125 12.3619 16.934 14.4456 15.1198 15.6833C19.3254 17.2239 22.3548 21.2037 22.4949 25.9096C22.5103 26.4271 22.1032 26.8592 21.5857 26.8746C21.0681 26.89 20.6361 26.4829 20.6207 25.9654C20.4705 20.9197 16.3324 16.875 11.2499 16.875C6.16747 16.875 2.02934 20.9197 1.87917 25.9654C1.86377 26.4829 1.43173 26.89 0.914196 26.8746C0.396658 26.8592 -0.0104024 26.4271 0.00500075 25.9096C0.145061 21.2037 3.17454 17.2238 7.38023 15.6832C5.56611 14.4455 4.37515 12.3618 4.37515 10ZM11.2501 5C8.4887 5 6.25015 7.23856 6.25015 10C6.25015 12.7614 8.4887 15 11.2501 15C14.0114 15 16.25 12.7614 16.25 10C16.25 7.23856 14.0114 5 11.2501 5Z"/>
<path d="M21.6125 10C21.4279 10 21.247 10.0131 21.0704 10.0384C20.5578 10.1117 20.0829 9.75563 20.0096 9.24308C19.9363 8.73053 20.2923 8.25559 20.8049 8.18228C21.0691 8.14449 21.3388 8.125 21.6125 8.125C24.7398 8.125 27.275 10.6602 27.275 13.7875C27.275 15.6323 26.3927 17.2699 25.0295 18.303C27.9438 19.6094 29.975 22.5353 29.975 25.9375C29.975 26.4553 29.5552 26.875 29.0375 26.875C28.5197 26.875 28.1 26.4553 28.1 25.9375C28.1 23.0051 26.1538 20.5249 23.4805 19.7227L22.8125 19.5222V17.4273L23.3253 17.1667C24.5584 16.5402 25.4 15.2613 25.4 13.7875C25.4 11.6957 23.7043 10 21.6125 10Z"/>
</svg>
