<svg xmlns="http://www.w3.org/2000/svg" xmlns:xlink="http://www.w3.org/1999/xlink"><defs><style>
    .sprite-symbol-usage {display: none;}
    .sprite-symbol-usage:target {display: inline;}
  </style><symbol viewBox="0 0 24 24" fill="none" id="icon-arrow-down">
<path d="M12 15.7131L18.01 9.70309L16.597 8.28809L12 12.8881L7.40399 8.28809L5.98999 9.70209L12 15.7131Z" fill="#C5C5C5" />
</symbol><symbol viewBox="0 0 1920 367" id="icon-bg">
    <path fill-rule="evenodd" clip-rule="evenodd" d="M-15.5974 122.255H150.666C316.929 122.255 649.455 122.255 981.981 101.879C1314.51 81.5031 1647.03 40.7516 1813.3 20.3758L1979.56 0V366.764H1813.3C1647.03 366.764 1314.51 366.764 981.981 366.764C649.455 366.764 316.929 366.764 150.666 366.764H-15.5974V122.255Z" />
</symbol><symbol viewBox="0 0 24 24" id="icon-char">
<path d="M3 5C3 3.89543 3.89543 3 5 3H19C20.1046 3 21 3.89543 21 5V19C21 20.1046 20.1046 21 19 21H5C3.89543 21 3 20.1046 3 19V5ZM19 5H5V19H19V5ZM12 7C12.5523 7 13 7.44772 13 8V16C13 16.5523 12.5523 17 12 17C11.4477 17 11 16.5523 11 16V8C11 7.44772 11.4477 7 12 7ZM16 9C16.5523 9 17 9.44772 17 10V16C17 16.5523 16.5523 17 16 17C15.4477 17 15 16.5523 15 16V10C15 9.44772 15.4477 9 16 9ZM8 11C8.55228 11 9 11.4477 9 12V16C9 16.5523 8.55228 17 8 17C7.44772 17 7 16.5523 7 16V12C7 11.4477 7.44772 11 8 11Z" />
</symbol><symbol viewBox="0 0 24 24" id="icon-computer">
<path d="M2 5C2 3.89543 2.89543 3 4 3H20C21.1046 3 22 3.89543 22 5V16C22 17.1046 21.1046 18 20 18H13V20H16C16.5523 20 17 20.4477 17 21C17 21.5523 16.5523 22 16 22H8C7.44772 22 7 21.5523 7 21C7 20.4477 7.44772 20 8 20H11V18H4C2.89543 18 2 17.1046 2 16V5ZM20 16V5H4V16H20Z" />
</symbol><symbol viewBox="0 0 29 34" id="icon-fire">
    <path fill-rule="evenodd" d="M16.213 30.944c5.89 0 10.251-4.208 10.251-10.003 0-3.464-1.586-5.17-3.885-7.644l-.031-.034c-2.09-2.248-4.554-4.967-5.294-9.717-.96.577-2.003 1.462-2.773 2.607-1.141 1.696-1.663 3.903-.313 6.662.875 1.786 1.127 4.06-.402 5.622-.954.974-2.556 1.631-4.289.87-1.09-.48-1.963-1.416-2.666-2.654-.823 1.047-1.385 2.58-1.385 4.288 0 5.7 4.77 10.003 10.787 10.003Zm3.02-29.452c-.026-.51-.432-.926-.918-.804-3.391.852-9.584 5.99-6.093 13.12.687 1.404.567 2.483.005 3.057-.928.948-2.719 1.014-4.172-2.69-.19-.484-.722-.754-1.165-.494-2.245 1.315-3.64 4.239-3.64 7.26 0 7.156 5.98 12.226 12.963 12.226 6.982 0 12.428-5.095 12.428-12.227 0-4.355-2.128-6.641-4.362-9.042-2.336-2.511-5.047-5.152-5.047-10.406Z" clip-rule="evenodd" />
</symbol><symbol viewBox="0 0 30 30" id="icon-globe">
<path fill-rule="evenodd" clip-rule="evenodd" d="M15 1.25C7.40608 1.25 1.25 7.40608 1.25 15C1.25 22.5939 7.40608 28.75 15 28.75C22.5939 28.75 28.75 22.5939 28.75 15C28.75 7.40608 22.5939 1.25 15 1.25ZM3.14117 14.375H9.0728C9.19816 10.579 10.4467 7.51207 11.689 5.37017C12.1765 4.52969 12.6646 3.82873 13.0869 3.27829C7.63862 4.16068 3.43283 8.75011 3.14117 14.375ZM9.10384 16.25H3.19C3.74833 21.5871 7.84184 25.8722 13.0869 26.7217C12.6646 26.1713 12.1765 25.4703 11.689 24.6299C10.5156 22.6068 9.33667 19.7585 9.10384 16.25ZM10.9835 16.25H19.0165C18.7878 19.3491 17.7411 21.8752 16.689 23.6891C16.0943 24.7146 15.5006 25.5072 15.0594 26.0398L15 26.111L14.9406 26.0398C14.4994 25.5072 13.9057 24.7146 13.311 23.6891C12.2589 21.8752 11.2122 19.3491 10.9835 16.25ZM19.051 14.375H10.949C11.0732 10.9896 12.189 8.24529 13.311 6.31089C13.9057 5.28544 14.4994 4.49281 14.9406 3.96022L15 3.88905L15.0594 3.96022C15.5006 4.49281 16.0943 5.28544 16.689 6.31089C17.811 8.24529 18.9268 10.9896 19.051 14.375ZM20.8962 16.25C20.6633 19.7585 19.4844 22.6068 18.311 24.6299C17.8235 25.4703 17.3354 26.1713 16.9131 26.7217C22.1582 25.8722 26.2517 21.5871 26.81 16.25H20.8962ZM26.8588 14.375H20.9272C20.8018 10.579 19.5533 7.51207 18.311 5.37017C17.8235 4.52969 17.3354 3.82873 16.9131 3.27829C22.3614 4.16068 26.5672 8.75011 26.8588 14.375Z" />
</symbol><symbol viewBox="0 0 328 186" fill="none" id="icon-graph">
<path d="M5.399 151.3V159H3.617V152.73H2.077V151.3H5.399ZM10.0366 159.132C9.39862 159.132 8.83028 158.974 8.33162 158.659C7.83295 158.344 7.44062 157.889 7.15462 157.295C6.87595 156.694 6.73662 155.979 6.73662 155.15C6.73662 154.321 6.87595 153.61 7.15462 153.016C7.44062 152.415 7.83295 151.956 8.33162 151.641C8.83028 151.326 9.39862 151.168 10.0366 151.168C10.6746 151.168 11.243 151.326 11.7416 151.641C12.2403 151.956 12.629 152.415 12.9076 153.016C13.1936 153.61 13.3366 154.321 13.3366 155.15C13.3366 155.979 13.1936 156.694 12.9076 157.295C12.629 157.889 12.2403 158.344 11.7416 158.659C11.243 158.974 10.6746 159.132 10.0366 159.132ZM10.0366 157.625C10.506 157.625 10.8726 157.423 11.1366 157.02C11.408 156.617 11.5436 155.993 11.5436 155.15C11.5436 154.307 11.408 153.683 11.1366 153.28C10.8726 152.877 10.506 152.675 10.0366 152.675C9.57462 152.675 9.20795 152.877 8.93662 153.28C8.67262 153.683 8.54062 154.307 8.54062 155.15C8.54062 155.993 8.67262 156.617 8.93662 157.02C9.20795 157.423 9.57462 157.625 10.0366 157.625ZM20.3734 159V155.458L18.6024 158.428H17.8764L16.1494 155.447V159H14.5984V153.082H16.3914L18.2834 156.503L20.2964 153.082H21.9024L21.9244 159H20.3734Z" fill="#0176FE" />
<path d="M8.182 120.548V122H2.363V120.845L5.333 118.04C5.64833 117.739 5.861 117.483 5.971 117.27C6.081 117.05 6.136 116.834 6.136 116.621C6.136 116.313 6.02967 116.078 5.817 115.917C5.61167 115.748 5.30733 115.664 4.904 115.664C4.56667 115.664 4.26233 115.73 3.991 115.862C3.71967 115.987 3.49233 116.177 3.309 116.434L2.011 115.598C2.31167 115.151 2.726 114.802 3.254 114.553C3.782 114.296 4.387 114.168 5.069 114.168C5.641 114.168 6.13967 114.263 6.565 114.454C6.99767 114.637 7.33133 114.901 7.566 115.246C7.808 115.583 7.929 115.983 7.929 116.445C7.929 116.863 7.841 117.255 7.665 117.622C7.489 117.989 7.148 118.407 6.642 118.876L4.871 120.548H8.182ZM12.1958 122.132C11.5578 122.132 10.9895 121.974 10.4908 121.659C9.99213 121.344 9.5998 120.889 9.3138 120.295C9.03513 119.694 8.8958 118.979 8.8958 118.15C8.8958 117.321 9.03513 116.61 9.3138 116.016C9.5998 115.415 9.99213 114.956 10.4908 114.641C10.9895 114.326 11.5578 114.168 12.1958 114.168C12.8338 114.168 13.4021 114.326 13.9008 114.641C14.3995 114.956 14.7881 115.415 15.0668 116.016C15.3528 116.61 15.4958 117.321 15.4958 118.15C15.4958 118.979 15.3528 119.694 15.0668 120.295C14.7881 120.889 14.3995 121.344 13.9008 121.659C13.4021 121.974 12.8338 122.132 12.1958 122.132ZM12.1958 120.625C12.6651 120.625 13.0318 120.423 13.2958 120.02C13.5671 119.617 13.7028 118.993 13.7028 118.15C13.7028 117.307 13.5671 116.683 13.2958 116.28C13.0318 115.877 12.6651 115.675 12.1958 115.675C11.7338 115.675 11.3671 115.877 11.0958 116.28C10.8318 116.683 10.6998 117.307 10.6998 118.15C10.6998 118.993 10.8318 119.617 11.0958 120.02C11.3671 120.423 11.7338 120.625 12.1958 120.625ZM22.5326 122V118.458L20.7616 121.428H20.0356L18.3086 118.447V122H16.7576V116.082H18.5506L20.4426 119.503L22.4556 116.082H24.0616L24.0836 122H22.5326Z" fill="#0176FE" />
<path d="M5.026 80.435C5.70067 80.545 6.21767 80.798 6.577 81.194C6.93633 81.5827 7.116 82.0667 7.116 82.646C7.116 83.0933 6.99867 83.5077 6.764 83.889C6.52933 84.263 6.17 84.5637 5.686 84.791C5.20933 85.0183 4.62267 85.132 3.926 85.132C3.38333 85.132 2.848 85.0623 2.32 84.923C1.79933 84.7763 1.35567 84.571 0.989 84.307L1.682 82.943C1.97533 83.163 2.31267 83.3353 2.694 83.46C3.08267 83.5773 3.47867 83.636 3.882 83.636C4.32933 83.636 4.68133 83.5517 4.938 83.383C5.19467 83.207 5.323 82.9613 5.323 82.646C5.323 82.0153 4.84267 81.7 3.882 81.7H3.068V80.523L4.652 78.73H1.374V77.3H6.764V78.455L5.026 80.435ZM11.2388 85.132C10.6008 85.132 10.0324 84.9743 9.53377 84.659C9.0351 84.3437 8.64277 83.889 8.35677 83.295C8.0781 82.6937 7.93877 81.9787 7.93877 81.15C7.93877 80.3213 8.0781 79.61 8.35677 79.016C8.64277 78.4147 9.0351 77.9563 9.53377 77.641C10.0324 77.3257 10.6008 77.168 11.2388 77.168C11.8768 77.168 12.4451 77.3257 12.9438 77.641C13.4424 77.9563 13.8311 78.4147 14.1098 79.016C14.3958 79.61 14.5388 80.3213 14.5388 81.15C14.5388 81.9787 14.3958 82.6937 14.1098 83.295C13.8311 83.889 13.4424 84.3437 12.9438 84.659C12.4451 84.9743 11.8768 85.132 11.2388 85.132ZM11.2388 83.625C11.7081 83.625 12.0748 83.4233 12.3388 83.02C12.6101 82.6167 12.7458 81.9933 12.7458 81.15C12.7458 80.3067 12.6101 79.6833 12.3388 79.28C12.0748 78.8767 11.7081 78.675 11.2388 78.675C10.7768 78.675 10.4101 78.8767 10.1388 79.28C9.87477 79.6833 9.74277 80.3067 9.74277 81.15C9.74277 81.9933 9.87477 82.6167 10.1388 83.02C10.4101 83.4233 10.7768 83.625 11.2388 83.625ZM21.5756 85V81.458L19.8046 84.428H19.0786L17.3516 81.447V85H15.8006V79.082H17.5936L19.4856 82.503L21.4986 79.082H23.1046L23.1266 85H21.5756Z" fill="#0176FE" />
<path d="M7.48 46.383H6.226V48H4.488V46.383H0.341V45.184L3.971 40.3H5.841L2.475 44.931H4.543V43.49H6.226V44.931H7.48V46.383ZM11.313 48.132C10.675 48.132 10.1067 47.9743 9.60798 47.659C9.10932 47.3437 8.71698 46.889 8.43098 46.295C8.15232 45.6937 8.01298 44.9787 8.01298 44.15C8.01298 43.3213 8.15232 42.61 8.43098 42.016C8.71698 41.4147 9.10932 40.9563 9.60798 40.641C10.1067 40.3257 10.675 40.168 11.313 40.168C11.951 40.168 12.5193 40.3257 13.018 40.641C13.5167 40.9563 13.9053 41.4147 14.184 42.016C14.47 42.61 14.613 43.3213 14.613 44.15C14.613 44.9787 14.47 45.6937 14.184 46.295C13.9053 46.889 13.5167 47.3437 13.018 47.659C12.5193 47.9743 11.951 48.132 11.313 48.132ZM11.313 46.625C11.7823 46.625 12.149 46.4233 12.413 46.02C12.6843 45.6167 12.82 44.9933 12.82 44.15C12.82 43.3067 12.6843 42.6833 12.413 42.28C12.149 41.8767 11.7823 41.675 11.313 41.675C10.851 41.675 10.4843 41.8767 10.213 42.28C9.94898 42.6833 9.81698 43.3067 9.81698 44.15C9.81698 44.9933 9.94898 45.6167 10.213 46.02C10.4843 46.4233 10.851 46.625 11.313 46.625ZM21.6498 48V44.458L19.8788 47.428H19.1528L17.4258 44.447V48H15.8748V42.082H17.6678L19.5598 45.503L21.5728 42.082H23.1788L23.2008 48H21.6498Z" fill="#0176FE" />
<path d="M4.069 6.193C5.15433 6.193 5.95367 6.40933 6.467 6.842C6.98767 7.27467 7.248 7.854 7.248 8.58C7.248 9.04933 7.13067 9.47833 6.896 9.867C6.66133 10.2483 6.302 10.5563 5.818 10.791C5.34133 11.0183 4.751 11.132 4.047 11.132C3.50433 11.132 2.969 11.0623 2.441 10.923C1.92033 10.7763 1.47667 10.571 1.11 10.307L1.814 8.943C2.10733 9.163 2.44467 9.33533 2.826 9.46C3.20733 9.57733 3.59967 9.636 4.003 9.636C4.45033 9.636 4.80233 9.548 5.059 9.372C5.31567 9.196 5.444 8.95033 5.444 8.635C5.444 8.305 5.30833 8.05567 5.037 7.887C4.773 7.71833 4.311 7.634 3.651 7.634H1.682L2.078 3.3H6.775V4.73H3.563L3.442 6.193H4.069ZM11.271 11.132C10.633 11.132 10.0647 10.9743 9.56599 10.659C9.06733 10.3437 8.67499 9.889 8.38899 9.295C8.11033 8.69367 7.97099 7.97867 7.97099 7.15C7.97099 6.32133 8.11033 5.61 8.38899 5.016C8.67499 4.41467 9.06733 3.95633 9.56599 3.641C10.0647 3.32567 10.633 3.168 11.271 3.168C11.909 3.168 12.4773 3.32567 12.976 3.641C13.4747 3.95633 13.8633 4.41467 14.142 5.016C14.428 5.61 14.571 6.32133 14.571 7.15C14.571 7.97867 14.428 8.69367 14.142 9.295C13.8633 9.889 13.4747 10.3437 12.976 10.659C12.4773 10.9743 11.909 11.132 11.271 11.132ZM11.271 9.625C11.7403 9.625 12.107 9.42333 12.371 9.02C12.6423 8.61667 12.778 7.99333 12.778 7.15C12.778 6.30667 12.6423 5.68333 12.371 5.28C12.107 4.87667 11.7403 4.675 11.271 4.675C10.809 4.675 10.4423 4.87667 10.171 5.28C9.90699 5.68333 9.77499 6.30667 9.77499 7.15C9.77499 7.99333 9.90699 8.61667 10.171 9.02C10.4423 9.42333 10.809 9.625 11.271 9.625ZM21.6078 11V7.458L19.8368 10.428H19.1108L17.3838 7.447V11H15.8328V5.082H17.6258L19.5178 8.503L21.5308 5.082H23.1368L23.1588 11H21.6078Z" fill="#0176FE" />
<path d="M50.898 173.2V183H49.876V174.096H43.674V183H42.652V173.2H50.898ZM57.0047 183.07C56.2954 183.07 55.6561 182.911 55.0867 182.594C54.5174 182.267 54.0694 181.819 53.7427 181.25C53.4161 180.681 53.2527 180.037 53.2527 179.318C53.2527 178.599 53.4161 177.955 53.7427 177.386C54.0694 176.817 54.5174 176.373 55.0867 176.056C55.6561 175.739 56.2954 175.58 57.0047 175.58C57.7141 175.58 58.3534 175.739 58.9227 176.056C59.4921 176.373 59.9354 176.817 60.2527 177.386C60.5794 177.955 60.7427 178.599 60.7427 179.318C60.7427 180.037 60.5794 180.681 60.2527 181.25C59.9354 181.819 59.4921 182.267 58.9227 182.594C58.3534 182.911 57.7141 183.07 57.0047 183.07ZM57.0047 182.188C57.5274 182.188 57.9941 182.071 58.4047 181.838C58.8247 181.595 59.1514 181.255 59.3847 180.816C59.6181 180.377 59.7347 179.878 59.7347 179.318C59.7347 178.758 59.6181 178.259 59.3847 177.82C59.1514 177.381 58.8247 177.045 58.4047 176.812C57.9941 176.569 57.5274 176.448 57.0047 176.448C56.4821 176.448 56.0107 176.569 55.5907 176.812C55.1801 177.045 54.8534 177.381 54.6107 177.82C54.3774 178.259 54.2607 178.758 54.2607 179.318C54.2607 179.878 54.3774 180.377 54.6107 180.816C54.8534 181.255 55.1801 181.595 55.5907 181.838C56.0107 182.071 56.4821 182.188 57.0047 182.188ZM65.5411 179.724H63.8611V183H62.8671V175.636H63.8611V178.87H65.5551L68.1451 175.636H69.2231L66.3251 179.206L69.4331 183H68.2571L65.5411 179.724ZM73.1003 173.2V183H72.0923V174.096H69.7823V173.2H73.1003Z" fill="#C5C5C5" />
<path d="M110.898 173.2V183H109.876V174.096H103.674V183H102.652V173.2H110.898ZM117.005 183.07C116.295 183.07 115.656 182.911 115.087 182.594C114.517 182.267 114.069 181.819 113.743 181.25C113.416 180.681 113.253 180.037 113.253 179.318C113.253 178.599 113.416 177.955 113.743 177.386C114.069 176.817 114.517 176.373 115.087 176.056C115.656 175.739 116.295 175.58 117.005 175.58C117.714 175.58 118.353 175.739 118.923 176.056C119.492 176.373 119.935 176.817 120.253 177.386C120.579 177.955 120.743 178.599 120.743 179.318C120.743 180.037 120.579 180.681 120.253 181.25C119.935 181.819 119.492 182.267 118.923 182.594C118.353 182.911 117.714 183.07 117.005 183.07ZM117.005 182.188C117.527 182.188 117.994 182.071 118.405 181.838C118.825 181.595 119.151 181.255 119.385 180.816C119.618 180.377 119.735 179.878 119.735 179.318C119.735 178.758 119.618 178.259 119.385 177.82C119.151 177.381 118.825 177.045 118.405 176.812C117.994 176.569 117.527 176.448 117.005 176.448C116.482 176.448 116.011 176.569 115.591 176.812C115.18 177.045 114.853 177.381 114.611 177.82C114.377 178.259 114.261 178.758 114.261 179.318C114.261 179.878 114.377 180.377 114.611 180.816C114.853 181.255 115.18 181.595 115.591 181.838C116.011 182.071 116.482 182.188 117.005 182.188ZM125.541 179.724H123.861V183H122.867V175.636H123.861V178.87H125.555L128.145 175.636H129.223L126.325 179.206L129.433 183H128.257L125.541 179.724ZM136.967 182.104V183H130.093V182.286L134.167 178.296C134.68 177.792 135.026 177.358 135.203 176.994C135.39 176.621 135.483 176.247 135.483 175.874C135.483 175.295 135.282 174.847 134.881 174.53C134.489 174.203 133.924 174.04 133.187 174.04C132.039 174.04 131.148 174.404 130.513 175.132L129.799 174.516C130.182 174.068 130.667 173.723 131.255 173.48C131.852 173.237 132.524 173.116 133.271 173.116C134.27 173.116 135.058 173.354 135.637 173.83C136.225 174.297 136.519 174.941 136.519 175.762C136.519 176.266 136.407 176.751 136.183 177.218C135.959 177.685 135.534 178.221 134.909 178.828L131.577 182.104H136.967Z" fill="#C5C5C5" />
<path d="M173.898 173.2V183H172.876V174.096H166.674V183H165.652V173.2H173.898ZM180.005 183.07C179.295 183.07 178.656 182.911 178.087 182.594C177.517 182.267 177.069 181.819 176.743 181.25C176.416 180.681 176.253 180.037 176.253 179.318C176.253 178.599 176.416 177.955 176.743 177.386C177.069 176.817 177.517 176.373 178.087 176.056C178.656 175.739 179.295 175.58 180.005 175.58C180.714 175.58 181.353 175.739 181.923 176.056C182.492 176.373 182.935 176.817 183.253 177.386C183.579 177.955 183.743 178.599 183.743 179.318C183.743 180.037 183.579 180.681 183.253 181.25C182.935 181.819 182.492 182.267 181.923 182.594C181.353 182.911 180.714 183.07 180.005 183.07ZM180.005 182.188C180.527 182.188 180.994 182.071 181.405 181.838C181.825 181.595 182.151 181.255 182.385 180.816C182.618 180.377 182.735 179.878 182.735 179.318C182.735 178.758 182.618 178.259 182.385 177.82C182.151 177.381 181.825 177.045 181.405 176.812C180.994 176.569 180.527 176.448 180.005 176.448C179.482 176.448 179.011 176.569 178.591 176.812C178.18 177.045 177.853 177.381 177.611 177.82C177.377 178.259 177.261 178.758 177.261 179.318C177.261 179.878 177.377 180.377 177.611 180.816C177.853 181.255 178.18 181.595 178.591 181.838C179.011 182.071 179.482 182.188 180.005 182.188ZM188.541 179.724H186.861V183H185.867V175.636H186.861V178.87H188.555L191.145 175.636H192.223L189.325 179.206L192.433 183H191.257L188.541 179.724ZM196.648 177.4C197.675 177.456 198.454 177.736 198.986 178.24C199.527 178.735 199.798 179.383 199.798 180.186C199.798 180.746 199.663 181.245 199.392 181.684C199.121 182.113 198.72 182.454 198.188 182.706C197.656 182.958 197.007 183.084 196.242 183.084C195.533 183.084 194.861 182.972 194.226 182.748C193.601 182.515 193.097 182.207 192.714 181.824L193.204 181.026C193.531 181.362 193.965 181.637 194.506 181.852C195.047 182.057 195.626 182.16 196.242 182.16C197.045 182.16 197.665 181.987 198.104 181.642C198.543 181.287 198.762 180.802 198.762 180.186C198.762 179.579 198.543 179.103 198.104 178.758C197.665 178.413 197.003 178.24 196.116 178.24H195.416V177.498L198.132 174.096H193.12V173.2H199.42V173.914L196.648 177.4Z" fill="#C5C5C5" />
<path d="M236.898 173.2V183H235.876V174.096H229.674V183H228.652V173.2H236.898ZM243.005 183.07C242.295 183.07 241.656 182.911 241.087 182.594C240.517 182.267 240.069 181.819 239.743 181.25C239.416 180.681 239.253 180.037 239.253 179.318C239.253 178.599 239.416 177.955 239.743 177.386C240.069 176.817 240.517 176.373 241.087 176.056C241.656 175.739 242.295 175.58 243.005 175.58C243.714 175.58 244.353 175.739 244.923 176.056C245.492 176.373 245.935 176.817 246.253 177.386C246.579 177.955 246.743 178.599 246.743 179.318C246.743 180.037 246.579 180.681 246.253 181.25C245.935 181.819 245.492 182.267 244.923 182.594C244.353 182.911 243.714 183.07 243.005 183.07ZM243.005 182.188C243.527 182.188 243.994 182.071 244.405 181.838C244.825 181.595 245.151 181.255 245.385 180.816C245.618 180.377 245.735 179.878 245.735 179.318C245.735 178.758 245.618 178.259 245.385 177.82C245.151 177.381 244.825 177.045 244.405 176.812C243.994 176.569 243.527 176.448 243.005 176.448C242.482 176.448 242.011 176.569 241.591 176.812C241.18 177.045 240.853 177.381 240.611 177.82C240.377 178.259 240.261 178.758 240.261 179.318C240.261 179.878 240.377 180.377 240.611 180.816C240.853 181.255 241.18 181.595 241.591 181.838C242.011 182.071 242.482 182.188 243.005 182.188ZM251.541 179.724H249.861V183H248.867V175.636H249.861V178.87H251.555L254.145 175.636H255.223L252.325 179.206L255.433 183H254.257L251.541 179.724ZM264.195 180.424H262.235V183H261.227V180.424H255.697V179.696L260.891 173.2H262.011L256.999 179.528H261.255V177.26H262.235V179.528H264.195V180.424Z" fill="#C5C5C5" />
<path d="M300.898 173.2V183H299.876V174.096H293.674V183H292.652V173.2H300.898ZM307.005 183.07C306.295 183.07 305.656 182.911 305.087 182.594C304.517 182.267 304.069 181.819 303.743 181.25C303.416 180.681 303.253 180.037 303.253 179.318C303.253 178.599 303.416 177.955 303.743 177.386C304.069 176.817 304.517 176.373 305.087 176.056C305.656 175.739 306.295 175.58 307.005 175.58C307.714 175.58 308.353 175.739 308.923 176.056C309.492 176.373 309.935 176.817 310.253 177.386C310.579 177.955 310.743 178.599 310.743 179.318C310.743 180.037 310.579 180.681 310.253 181.25C309.935 181.819 309.492 182.267 308.923 182.594C308.353 182.911 307.714 183.07 307.005 183.07ZM307.005 182.188C307.527 182.188 307.994 182.071 308.405 181.838C308.825 181.595 309.151 181.255 309.385 180.816C309.618 180.377 309.735 179.878 309.735 179.318C309.735 178.758 309.618 178.259 309.385 177.82C309.151 177.381 308.825 177.045 308.405 176.812C307.994 176.569 307.527 176.448 307.005 176.448C306.482 176.448 306.011 176.569 305.591 176.812C305.18 177.045 304.853 177.381 304.611 177.82C304.377 178.259 304.261 178.758 304.261 179.318C304.261 179.878 304.377 180.377 304.611 180.816C304.853 181.255 305.18 181.595 305.591 181.838C306.011 182.071 306.482 182.188 307.005 182.188ZM315.541 179.724H313.861V183H312.867V175.636H313.861V178.87H315.555L318.145 175.636H319.223L316.325 179.206L319.433 183H318.257L315.541 179.724ZM322.892 177.218C324.311 177.218 325.342 177.475 325.986 177.988C326.639 178.492 326.966 179.201 326.966 180.116C326.966 180.685 326.831 181.194 326.56 181.642C326.299 182.09 325.902 182.445 325.37 182.706C324.838 182.958 324.185 183.084 323.41 183.084C322.71 183.084 322.043 182.972 321.408 182.748C320.783 182.515 320.279 182.207 319.896 181.824L320.386 181.026C320.713 181.362 321.142 181.637 321.674 181.852C322.206 182.057 322.78 182.16 323.396 182.16C324.208 182.16 324.833 181.978 325.272 181.614C325.72 181.25 325.944 180.765 325.944 180.158C325.944 179.486 325.692 178.977 325.188 178.632C324.693 178.287 323.853 178.114 322.668 178.114H320.582L321.086 173.2H326.448V174.096H321.968L321.632 177.218H322.892Z" fill="#C5C5C5" />
<line x1="50" y1="0.5" x2="317" y2="0.5" stroke="#F0F0F0" />
<line x1="50" y1="37.5" x2="317" y2="37.5" stroke="#F0F0F0" />
<line x1="50" y1="74.5" x2="317" y2="74.5" stroke="#F0F0F0" />
<line x1="50" y1="111.5" x2="317" y2="111.5" stroke="#F0F0F0" />
<line x1="49" y1="159.5" x2="316" y2="159.5" stroke="#F0F0F0" />
<path d="M50 63C50 60.2386 52.2386 58 55 58H62C64.7614 58 67 60.2386 67 63V160H50V63Z" fill="#2BE2A0" />
<path d="M111 35C111 32.2386 113.239 30 116 30H123C125.761 30 128 32.2386 128 35V160H111V35Z" fill="#2BE2A0" />
<path d="M174 19C174 16.2386 176.239 14 179 14H186C188.761 14 191 16.2386 191 19V160H174V19Z" fill="#2BE2A0" />
<path d="M237 6C237 3.23857 239.239 1 242 1H249C251.761 1 254 3.23858 254 6V160H237V6Z" fill="#2BE2A0" />
<path d="M300 6C300 3.23857 302.239 1 305 1H312C314.761 1 317 3.23858 317 6V160H300V6Z" fill="#2BE2A0" />
</symbol><symbol viewBox="0 0 24 24" id="icon-laptop">
<path d="M2 5C2 3.89543 2.89543 3 4 3H20C21.1046 3 22 3.89543 22 5V16C22 17.1046 21.1046 18 20 18H4C2.89543 18 2 17.1046 2 16V5ZM20 5H4V16H20V5Z" />
<path d="M22 20C22 20.5523 21.5523 21 21 21H3C2.44772 21 2 20.5523 2 20C2 19.4477 2.44772 19 3 19L21 19C21.5523 19 22 19.4477 22 20Z" />
</symbol><symbol viewBox="0 0 24 24" fill="none" id="icon-location">
<path d="M12 21C10.7369 19.9227 9.56619 18.7416 8.5 17.4691C6.9 15.5581 5 12.712 5 10.0001C4.99858 7.1676 6.70425 4.61344 9.32107 3.52945C11.9379 2.44545 14.9501 3.04529 16.952 5.04905C18.2685 6.35966 19.0059 8.14244 19 10.0001C19 12.712 17.1 15.5581 15.5 17.4691C14.4338 18.7416 13.2631 19.9227 12 21ZM12 7.00005C10.9282 7.00005 9.93782 7.57185 9.40193 8.50005C8.86603 9.42825 8.86603 10.5718 9.40193 11.5001C9.93782 12.4283 10.9282 13.0001 12 13.0001C13.6569 13.0001 15 11.6569 15 10.0001C15 8.3432 13.6569 7.00005 12 7.00005Z" fill="#1A1A1A" />
</symbol><symbol viewBox="0 0 29 29" id="icon-mobile">
<g id="icon-mobile_mobile">
<g id="icon-mobile_Icon">
<path d="M7.25 6.04167C7.25 4.70698 8.33198 3.625 9.66667 3.625H19.3333C20.668 3.625 21.75 4.70698 21.75 6.04167V22.9583C21.75 24.293 20.668 25.375 19.3333 25.375H9.66667C8.33198 25.375 7.25 24.293 7.25 22.9583V6.04167ZM19.3333 6.04167H9.66667V22.9583H19.3333V6.04167Z" />
<path d="M15.7083 20.5417C15.7083 21.209 15.1673 21.75 14.5 21.75C13.8327 21.75 13.2917 21.209 13.2917 20.5417C13.2917 19.8743 13.8327 19.3333 14.5 19.3333C15.1673 19.3333 15.7083 19.8743 15.7083 20.5417Z" />
</g>
</g>
</symbol><symbol viewBox="0 0 30 30" id="icon-people">
<path fill-rule="evenodd" clip-rule="evenodd" d="M4.37515 10C4.37515 6.20306 7.45314 3.125 11.2501 3.125C15.047 3.125 18.125 6.20306 18.125 10C18.125 12.3619 16.934 14.4456 15.1198 15.6833C19.3254 17.2239 22.3548 21.2037 22.4949 25.9096C22.5103 26.4271 22.1032 26.8592 21.5857 26.8746C21.0681 26.89 20.6361 26.4829 20.6207 25.9654C20.4705 20.9197 16.3324 16.875 11.2499 16.875C6.16747 16.875 2.02934 20.9197 1.87917 25.9654C1.86377 26.4829 1.43173 26.89 0.914196 26.8746C0.396658 26.8592 -0.0104024 26.4271 0.00500075 25.9096C0.145061 21.2037 3.17454 17.2238 7.38023 15.6832C5.56611 14.4455 4.37515 12.3618 4.37515 10ZM11.2501 5C8.4887 5 6.25015 7.23856 6.25015 10C6.25015 12.7614 8.4887 15 11.2501 15C14.0114 15 16.25 12.7614 16.25 10C16.25 7.23856 14.0114 5 11.2501 5Z" />
<path d="M21.6125 10C21.4279 10 21.247 10.0131 21.0704 10.0384C20.5578 10.1117 20.0829 9.75563 20.0096 9.24308C19.9363 8.73053 20.2923 8.25559 20.8049 8.18228C21.0691 8.14449 21.3388 8.125 21.6125 8.125C24.7398 8.125 27.275 10.6602 27.275 13.7875C27.275 15.6323 26.3927 17.2699 25.0295 18.303C27.9438 19.6094 29.975 22.5353 29.975 25.9375C29.975 26.4553 29.5552 26.875 29.0375 26.875C28.5197 26.875 28.1 26.4553 28.1 25.9375C28.1 23.0051 26.1538 20.5249 23.4805 19.7227L22.8125 19.5222V17.4273L23.3253 17.1667C24.5584 16.5402 25.4 15.2613 25.4 13.7875C25.4 11.6957 23.7043 10 21.6125 10Z" />
</symbol><symbol viewBox="0 0 50 50" id="icon-plus">
<path fill-rule="evenodd" clip-rule="evenodd" d="M25 13.5833C25.5523 13.5833 26 14.031 26 14.5833V23.9999L35.4166 23.9999C35.9689 23.9999 36.4166 24.4476 36.4166 24.9999C36.4166 25.5522 35.9689 25.9999 35.4166 25.9999H26V35.4166C26 35.9689 25.5523 36.4166 25 36.4166C24.4477 36.4166 24 35.9689 24 35.4166V25.9999H14.5833C14.031 25.9999 13.5833 25.5522 13.5833 24.9999C13.5833 24.4476 14.031 23.9999 14.5833 23.9999L24 23.9999V14.5833C24 14.031 24.4477 13.5833 25 13.5833Z" />
</symbol><symbol viewBox="0 0 30 30" id="icon-star">
<path fill-rule="evenodd" clip-rule="evenodd" d="M15 0.3125C15.3568 0.3125 15.6828 0.515092 15.8407 0.835095L19.6636 8.58113L28.2118 9.82326C28.565 9.87458 28.8584 10.1219 28.9686 10.4613C29.0789 10.8007 28.9869 11.1733 28.7314 11.4223L22.5458 17.4518L24.0061 25.9655C24.0664 26.3172 23.9218 26.6727 23.6331 26.8824C23.3444 27.0922 22.9616 27.1199 22.6458 26.9538L15 22.9342L7.35421 26.9538C7.03835 27.1199 6.6556 27.0922 6.3669 26.8824C6.0782 26.6727 5.93362 26.3172 5.99394 25.9655L7.45416 17.4518L1.26858 11.4223C1.01305 11.1733 0.921082 10.8007 1.03135 10.4613C1.14163 10.1219 1.43502 9.87458 1.78816 9.82326L10.3364 8.58113L14.1593 0.835095C14.3172 0.515092 14.6431 0.3125 15 0.3125ZM15 3.36833L11.7997 9.85291C11.6631 10.1296 11.3991 10.3214 11.0938 10.3658L3.93762 11.4056L9.11587 16.4532C9.33683 16.6685 9.43765 16.9789 9.38549 17.283L8.16307 24.4102L14.5637 21.0452C14.8369 20.9016 15.1631 20.9016 15.4363 21.0452L21.8369 24.4102L20.6145 17.283C20.5623 16.9789 20.6632 16.6685 20.8841 16.4532L26.0624 11.4056L18.9062 10.3658C18.6009 10.3214 18.3369 10.1296 18.2003 9.85291L15 3.36833Z" />
</symbol><symbol viewBox="0 0 29 28" id="icon-star-fill">
<path d="M26.1048 10.7088C26.0315 10.4929 25.8965 10.3031 25.7166 10.1629C25.5366 10.0228 25.3196 9.93838 25.0922 9.92018L18.441 9.39168L15.5628 3.02052C15.4712 2.81531 15.3221 2.64103 15.1336 2.51868C14.945 2.39634 14.7251 2.33118 14.5004 2.33105C14.2756 2.33093 14.0557 2.39585 13.867 2.51799C13.6783 2.64012 13.5291 2.81425 13.4372 3.01935L10.559 9.39168L3.90784 9.92018C3.68437 9.93789 3.47074 10.0196 3.29249 10.1555C3.11424 10.2915 2.97894 10.4759 2.90275 10.6867C2.82657 10.8975 2.81274 11.1259 2.86291 11.3443C2.91309 11.5628 3.02514 11.7622 3.18568 11.9187L8.10084 16.7102L6.36251 24.2375C6.30973 24.4654 6.32664 24.7038 6.41107 24.9219C6.49549 25.14 6.64352 25.3278 6.83595 25.4607C7.02837 25.5936 7.25632 25.6657 7.49019 25.6674C7.72407 25.6692 7.95308 25.6007 8.14751 25.4707L14.5 21.2357L20.8525 25.4707C21.0512 25.6026 21.2856 25.6706 21.5241 25.6653C21.7626 25.6601 21.9937 25.582 22.1865 25.4414C22.3792 25.3009 22.5243 25.1047 22.6022 24.8793C22.6802 24.6538 22.6872 24.4099 22.6223 24.1803L20.4885 16.7137L25.7805 11.9514C26.127 11.6387 26.2542 11.151 26.1048 10.7088Z" />
</symbol><symbol viewBox="0 0 28 27" fill="none" id="icon-telegram">
<circle cx="14" cy="13.0769" r="13.0769" fill="#333333" />
<path d="M19.0145 7.69238C18.9727 7.69238 18.9248 7.69832 18.8829 7.71612L7.3178 12.0781C6.98874 12.2028 7.0007 12.6597 7.32977 12.7725L10.0101 13.6686L11.6256 16.8793L11.6315 16.8853C11.6614 16.9446 11.7213 16.9802 11.7871 16.9802C11.823 16.9802 11.8649 16.9683 11.9008 16.9387L13.4145 15.6627L11.7213 14.3927L11.8529 16.0663L10.6384 13.5678L17.1 9.71612L11.7213 14.3867L15.9094 17.5381C16.047 17.6449 16.2085 17.6924 16.3701 17.6924C16.6991 17.6924 17.0222 17.4787 17.1119 17.1167L19.3735 8.13749C19.4333 7.91197 19.2419 7.69238 19.0145 7.69238Z" fill="white" />
</symbol><symbol viewBox="0 0 513 185" fill="none" id="icon-timeline">
    <line x1="50.5" y1="159" x2="50.5" y2="2.18557e-08" stroke="#F0F0F0" />
    <line x1="94.5" y1="159" x2="94.5" y2="2.18557e-08" stroke="#F0F0F0" />
    <line x1="134.5" y1="159" x2="134.5" y2="2.18557e-08" stroke="#F0F0F0" />
    <line x1="169.5" y1="159" x2="169.5" y2="2.18557e-08" stroke="#F0F0F0" />
    <line x1="209.5" y1="159" x2="209.5" y2="2.18557e-08" stroke="#F0F0F0" />
    <line x1="250.5" y1="158" x2="250.5" y2="2.18557e-08" stroke="#F0F0F0" />
    <line x1="250.5" y1="159" x2="250.5" y2="1" stroke="#F0F0F0" />
    <line x1="285.5" y1="159" x2="285.5" y2="2.18557e-08" stroke="#F0F0F0" />
    <line x1="322.5" y1="159" x2="322.5" y2="-2.18557e-08" stroke="#F0F0F0" />
    <line x1="363.5" y1="159" x2="363.5" y2="2.18557e-08" stroke="#F0F0F0" />
    <line x1="405.5" y1="159" x2="405.5" y2="2.18557e-08" stroke="#F0F0F0" />
    <line x1="451.5" y1="159" x2="451.5" y2="2.18557e-08" stroke="#F0F0F0" />
    <line x1="498.5" y1="159" x2="498.5" y2="2.18557e-08" stroke="#F0F0F0" />
    <path d="M5.399 151.3V159H3.617V152.73H2.077V151.3H5.399ZM10.0366 159.132C9.39862 159.132 8.83028 158.974 8.33162 158.659C7.83295 158.344 7.44062 157.889 7.15462 157.295C6.87595 156.694 6.73662 155.979 6.73662 155.15C6.73662 154.321 6.87595 153.61 7.15462 153.016C7.44062 152.415 7.83295 151.956 8.33162 151.641C8.83028 151.326 9.39862 151.168 10.0366 151.168C10.6746 151.168 11.243 151.326 11.7416 151.641C12.2403 151.956 12.629 152.415 12.9076 153.016C13.1936 153.61 13.3366 154.321 13.3366 155.15C13.3366 155.979 13.1936 156.694 12.9076 157.295C12.629 157.889 12.2403 158.344 11.7416 158.659C11.243 158.974 10.6746 159.132 10.0366 159.132ZM10.0366 157.625C10.506 157.625 10.8726 157.423 11.1366 157.02C11.408 156.617 11.5436 155.993 11.5436 155.15C11.5436 154.307 11.408 153.683 11.1366 153.28C10.8726 152.877 10.506 152.675 10.0366 152.675C9.57462 152.675 9.20795 152.877 8.93662 153.28C8.67262 153.683 8.54062 154.307 8.54062 155.15C8.54062 155.993 8.67262 156.617 8.93662 157.02C9.20795 157.423 9.57462 157.625 10.0366 157.625ZM17.5024 159.132C16.8644 159.132 16.2961 158.974 15.7974 158.659C15.2988 158.344 14.9064 157.889 14.6204 157.295C14.3418 156.694 14.2024 155.979 14.2024 155.15C14.2024 154.321 14.3418 153.61 14.6204 153.016C14.9064 152.415 15.2988 151.956 15.7974 151.641C16.2961 151.326 16.8644 151.168 17.5024 151.168C18.1404 151.168 18.7088 151.326 19.2074 151.641C19.7061 151.956 20.0948 152.415 20.3734 153.016C20.6594 153.61 20.8024 154.321 20.8024 155.15C20.8024 155.979 20.6594 156.694 20.3734 157.295C20.0948 157.889 19.7061 158.344 19.2074 158.659C18.7088 158.974 18.1404 159.132 17.5024 159.132ZM17.5024 157.625C17.9718 157.625 18.3384 157.423 18.6024 157.02C18.8738 156.617 19.0094 155.993 19.0094 155.15C19.0094 154.307 18.8738 153.683 18.6024 153.28C18.3384 152.877 17.9718 152.675 17.5024 152.675C17.0404 152.675 16.6738 152.877 16.4024 153.28C16.1384 153.683 16.0064 154.307 16.0064 155.15C16.0064 155.993 16.1384 156.617 16.4024 157.02C16.6738 157.423 17.0404 157.625 17.5024 157.625Z" fill="#0176FE" />
    <path d="M8.182 120.548V122H2.363V120.845L5.333 118.04C5.64833 117.739 5.861 117.483 5.971 117.27C6.081 117.05 6.136 116.834 6.136 116.621C6.136 116.313 6.02967 116.078 5.817 115.917C5.61167 115.748 5.30733 115.664 4.904 115.664C4.56667 115.664 4.26233 115.73 3.991 115.862C3.71967 115.987 3.49233 116.177 3.309 116.434L2.011 115.598C2.31167 115.151 2.726 114.802 3.254 114.553C3.782 114.296 4.387 114.168 5.069 114.168C5.641 114.168 6.13967 114.263 6.565 114.454C6.99767 114.637 7.33133 114.901 7.566 115.246C7.808 115.583 7.929 115.983 7.929 116.445C7.929 116.863 7.841 117.255 7.665 117.622C7.489 117.989 7.148 118.407 6.642 118.876L4.871 120.548H8.182ZM12.1958 122.132C11.5578 122.132 10.9895 121.974 10.4908 121.659C9.99213 121.344 9.5998 120.889 9.3138 120.295C9.03513 119.694 8.8958 118.979 8.8958 118.15C8.8958 117.321 9.03513 116.61 9.3138 116.016C9.5998 115.415 9.99213 114.956 10.4908 114.641C10.9895 114.326 11.5578 114.168 12.1958 114.168C12.8338 114.168 13.4021 114.326 13.9008 114.641C14.3995 114.956 14.7881 115.415 15.0668 116.016C15.3528 116.61 15.4958 117.321 15.4958 118.15C15.4958 118.979 15.3528 119.694 15.0668 120.295C14.7881 120.889 14.3995 121.344 13.9008 121.659C13.4021 121.974 12.8338 122.132 12.1958 122.132ZM12.1958 120.625C12.6651 120.625 13.0318 120.423 13.2958 120.02C13.5671 119.617 13.7028 118.993 13.7028 118.15C13.7028 117.307 13.5671 116.683 13.2958 116.28C13.0318 115.877 12.6651 115.675 12.1958 115.675C11.7338 115.675 11.3671 115.877 11.0958 116.28C10.8318 116.683 10.6998 117.307 10.6998 118.15C10.6998 118.993 10.8318 119.617 11.0958 120.02C11.3671 120.423 11.7338 120.625 12.1958 120.625ZM19.6616 122.132C19.0236 122.132 18.4553 121.974 17.9566 121.659C17.458 121.344 17.0656 120.889 16.7796 120.295C16.501 119.694 16.3616 118.979 16.3616 118.15C16.3616 117.321 16.501 116.61 16.7796 116.016C17.0656 115.415 17.458 114.956 17.9566 114.641C18.4553 114.326 19.0236 114.168 19.6616 114.168C20.2996 114.168 20.868 114.326 21.3666 114.641C21.8653 114.956 22.254 115.415 22.5326 116.016C22.8186 116.61 22.9616 117.321 22.9616 118.15C22.9616 118.979 22.8186 119.694 22.5326 120.295C22.254 120.889 21.8653 121.344 21.3666 121.659C20.868 121.974 20.2996 122.132 19.6616 122.132ZM19.6616 120.625C20.131 120.625 20.4976 120.423 20.7616 120.02C21.033 119.617 21.1686 118.993 21.1686 118.15C21.1686 117.307 21.033 116.683 20.7616 116.28C20.4976 115.877 20.131 115.675 19.6616 115.675C19.1996 115.675 18.833 115.877 18.5616 116.28C18.2976 116.683 18.1656 117.307 18.1656 118.15C18.1656 118.993 18.2976 119.617 18.5616 120.02C18.833 120.423 19.1996 120.625 19.6616 120.625Z" fill="#0176FE" />
    <path d="M5.026 80.435C5.70067 80.545 6.21767 80.798 6.577 81.194C6.93633 81.5827 7.116 82.0667 7.116 82.646C7.116 83.0933 6.99867 83.5077 6.764 83.889C6.52933 84.263 6.17 84.5637 5.686 84.791C5.20933 85.0183 4.62267 85.132 3.926 85.132C3.38333 85.132 2.848 85.0623 2.32 84.923C1.79933 84.7763 1.35567 84.571 0.989 84.307L1.682 82.943C1.97533 83.163 2.31267 83.3353 2.694 83.46C3.08267 83.5773 3.47867 83.636 3.882 83.636C4.32933 83.636 4.68133 83.5517 4.938 83.383C5.19467 83.207 5.323 82.9613 5.323 82.646C5.323 82.0153 4.84267 81.7 3.882 81.7H3.068V80.523L4.652 78.73H1.374V77.3H6.764V78.455L5.026 80.435ZM11.2388 85.132C10.6008 85.132 10.0324 84.9743 9.53377 84.659C9.0351 84.3437 8.64277 83.889 8.35677 83.295C8.0781 82.6937 7.93877 81.9787 7.93877 81.15C7.93877 80.3213 8.0781 79.61 8.35677 79.016C8.64277 78.4147 9.0351 77.9563 9.53377 77.641C10.0324 77.3257 10.6008 77.168 11.2388 77.168C11.8768 77.168 12.4451 77.3257 12.9438 77.641C13.4424 77.9563 13.8311 78.4147 14.1098 79.016C14.3958 79.61 14.5388 80.3213 14.5388 81.15C14.5388 81.9787 14.3958 82.6937 14.1098 83.295C13.8311 83.889 13.4424 84.3437 12.9438 84.659C12.4451 84.9743 11.8768 85.132 11.2388 85.132ZM11.2388 83.625C11.7081 83.625 12.0748 83.4233 12.3388 83.02C12.6101 82.6167 12.7458 81.9933 12.7458 81.15C12.7458 80.3067 12.6101 79.6833 12.3388 79.28C12.0748 78.8767 11.7081 78.675 11.2388 78.675C10.7768 78.675 10.4101 78.8767 10.1388 79.28C9.87477 79.6833 9.74277 80.3067 9.74277 81.15C9.74277 81.9933 9.87477 82.6167 10.1388 83.02C10.4101 83.4233 10.7768 83.625 11.2388 83.625ZM18.7046 85.132C18.0666 85.132 17.4983 84.9743 16.9996 84.659C16.5009 84.3437 16.1086 83.889 15.8226 83.295C15.5439 82.6937 15.4046 81.9787 15.4046 81.15C15.4046 80.3213 15.5439 79.61 15.8226 79.016C16.1086 78.4147 16.5009 77.9563 16.9996 77.641C17.4983 77.3257 18.0666 77.168 18.7046 77.168C19.3426 77.168 19.9109 77.3257 20.4096 77.641C20.9083 77.9563 21.2969 78.4147 21.5756 79.016C21.8616 79.61 22.0046 80.3213 22.0046 81.15C22.0046 81.9787 21.8616 82.6937 21.5756 83.295C21.2969 83.889 20.9083 84.3437 20.4096 84.659C19.9109 84.9743 19.3426 85.132 18.7046 85.132ZM18.7046 83.625C19.1739 83.625 19.5406 83.4233 19.8046 83.02C20.0759 82.6167 20.2116 81.9933 20.2116 81.15C20.2116 80.3067 20.0759 79.6833 19.8046 79.28C19.5406 78.8767 19.1739 78.675 18.7046 78.675C18.2426 78.675 17.8759 78.8767 17.6046 79.28C17.3406 79.6833 17.2086 80.3067 17.2086 81.15C17.2086 81.9933 17.3406 82.6167 17.6046 83.02C17.8759 83.4233 18.2426 83.625 18.7046 83.625Z" fill="#0176FE" />
    <path d="M7.48 46.383H6.226V48H4.488V46.383H0.341V45.184L3.971 40.3H5.841L2.475 44.931H4.543V43.49H6.226V44.931H7.48V46.383ZM11.313 48.132C10.675 48.132 10.1067 47.9743 9.60798 47.659C9.10932 47.3437 8.71698 46.889 8.43098 46.295C8.15232 45.6937 8.01298 44.9787 8.01298 44.15C8.01298 43.3213 8.15232 42.61 8.43098 42.016C8.71698 41.4147 9.10932 40.9563 9.60798 40.641C10.1067 40.3257 10.675 40.168 11.313 40.168C11.951 40.168 12.5193 40.3257 13.018 40.641C13.5167 40.9563 13.9053 41.4147 14.184 42.016C14.47 42.61 14.613 43.3213 14.613 44.15C14.613 44.9787 14.47 45.6937 14.184 46.295C13.9053 46.889 13.5167 47.3437 13.018 47.659C12.5193 47.9743 11.951 48.132 11.313 48.132ZM11.313 46.625C11.7823 46.625 12.149 46.4233 12.413 46.02C12.6843 45.6167 12.82 44.9933 12.82 44.15C12.82 43.3067 12.6843 42.6833 12.413 42.28C12.149 41.8767 11.7823 41.675 11.313 41.675C10.851 41.675 10.4843 41.8767 10.213 42.28C9.94898 42.6833 9.81698 43.3067 9.81698 44.15C9.81698 44.9933 9.94898 45.6167 10.213 46.02C10.4843 46.4233 10.851 46.625 11.313 46.625ZM18.7788 48.132C18.1408 48.132 17.5725 47.9743 17.0738 47.659C16.5751 47.3437 16.1828 46.889 15.8968 46.295C15.6181 45.6937 15.4788 44.9787 15.4788 44.15C15.4788 43.3213 15.6181 42.61 15.8968 42.016C16.1828 41.4147 16.5751 40.9563 17.0738 40.641C17.5725 40.3257 18.1408 40.168 18.7788 40.168C19.4168 40.168 19.9851 40.3257 20.4838 40.641C20.9825 40.9563 21.3711 41.4147 21.6498 42.016C21.9358 42.61 22.0788 43.3213 22.0788 44.15C22.0788 44.9787 21.9358 45.6937 21.6498 46.295C21.3711 46.889 20.9825 47.3437 20.4838 47.659C19.9851 47.9743 19.4168 48.132 18.7788 48.132ZM18.7788 46.625C19.2481 46.625 19.6148 46.4233 19.8788 46.02C20.1501 45.6167 20.2858 44.9933 20.2858 44.15C20.2858 43.3067 20.1501 42.6833 19.8788 42.28C19.6148 41.8767 19.2481 41.675 18.7788 41.675C18.3168 41.675 17.9501 41.8767 17.6788 42.28C17.4148 42.6833 17.2828 43.3067 17.2828 44.15C17.2828 44.9933 17.4148 45.6167 17.6788 46.02C17.9501 46.4233 18.3168 46.625 18.7788 46.625Z" fill="#0176FE" />
    <path d="M4.069 6.193C5.15433 6.193 5.95367 6.40933 6.467 6.842C6.98767 7.27467 7.248 7.854 7.248 8.58C7.248 9.04933 7.13067 9.47833 6.896 9.867C6.66133 10.2483 6.302 10.5563 5.818 10.791C5.34133 11.0183 4.751 11.132 4.047 11.132C3.50433 11.132 2.969 11.0623 2.441 10.923C1.92033 10.7763 1.47667 10.571 1.11 10.307L1.814 8.943C2.10733 9.163 2.44467 9.33533 2.826 9.46C3.20733 9.57733 3.59967 9.636 4.003 9.636C4.45033 9.636 4.80233 9.548 5.059 9.372C5.31567 9.196 5.444 8.95033 5.444 8.635C5.444 8.305 5.30833 8.05567 5.037 7.887C4.773 7.71833 4.311 7.634 3.651 7.634H1.682L2.078 3.3H6.775V4.73H3.563L3.442 6.193H4.069ZM11.271 11.132C10.633 11.132 10.0647 10.9743 9.56599 10.659C9.06733 10.3437 8.67499 9.889 8.38899 9.295C8.11033 8.69367 7.97099 7.97867 7.97099 7.15C7.97099 6.32133 8.11033 5.61 8.38899 5.016C8.67499 4.41467 9.06733 3.95633 9.56599 3.641C10.0647 3.32567 10.633 3.168 11.271 3.168C11.909 3.168 12.4773 3.32567 12.976 3.641C13.4747 3.95633 13.8633 4.41467 14.142 5.016C14.428 5.61 14.571 6.32133 14.571 7.15C14.571 7.97867 14.428 8.69367 14.142 9.295C13.8633 9.889 13.4747 10.3437 12.976 10.659C12.4773 10.9743 11.909 11.132 11.271 11.132ZM11.271 9.625C11.7403 9.625 12.107 9.42333 12.371 9.02C12.6423 8.61667 12.778 7.99333 12.778 7.15C12.778 6.30667 12.6423 5.68333 12.371 5.28C12.107 4.87667 11.7403 4.675 11.271 4.675C10.809 4.675 10.4423 4.87667 10.171 5.28C9.90699 5.68333 9.77499 6.30667 9.77499 7.15C9.77499 7.99333 9.90699 8.61667 10.171 9.02C10.4423 9.42333 10.809 9.625 11.271 9.625ZM18.7368 11.132C18.0988 11.132 17.5305 10.9743 17.0318 10.659C16.5331 10.3437 16.1408 9.889 15.8548 9.295C15.5761 8.69367 15.4368 7.97867 15.4368 7.15C15.4368 6.32133 15.5761 5.61 15.8548 5.016C16.1408 4.41467 16.5331 3.95633 17.0318 3.641C17.5305 3.32567 18.0988 3.168 18.7368 3.168C19.3748 3.168 19.9431 3.32567 20.4418 3.641C20.9405 3.95633 21.3291 4.41467 21.6078 5.016C21.8938 5.61 22.0368 6.32133 22.0368 7.15C22.0368 7.97867 21.8938 8.69367 21.6078 9.295C21.3291 9.889 20.9405 10.3437 20.4418 10.659C19.9431 10.9743 19.3748 11.132 18.7368 11.132ZM18.7368 9.625C19.2061 9.625 19.5728 9.42333 19.8368 9.02C20.1081 8.61667 20.2438 7.99333 20.2438 7.15C20.2438 6.30667 20.1081 5.68333 19.8368 5.28C19.5728 4.87667 19.2061 4.675 18.7368 4.675C18.2748 4.675 17.9081 4.87667 17.6368 5.28C17.3728 5.68333 17.2408 6.30667 17.2408 7.15C17.2408 7.99333 17.3728 8.61667 17.6368 9.02C17.9081 9.42333 18.2748 9.625 18.7368 9.625Z" fill="#0176FE" />
    <path d="M44.596 172.2V182H43.574V179.032H40.648C40.5173 179.032 40.3307 179.023 40.088 179.004L38.03 182H36.924L39.15 178.822C38.4313 178.607 37.8807 178.229 37.498 177.688C37.1153 177.137 36.924 176.465 36.924 175.672C36.924 174.571 37.2693 173.717 37.96 173.11C38.66 172.503 39.6027 172.2 40.788 172.2H44.596ZM37.96 175.644C37.96 176.447 38.1933 177.067 38.66 177.506C39.136 177.935 39.8267 178.15 40.732 178.15H43.574V173.096H40.83C39.9153 173.096 39.206 173.315 38.702 173.754C38.2073 174.183 37.96 174.813 37.96 175.644ZM47.6679 174.636H48.6619V177.898H53.2959V174.636H54.2899V182H53.2959V178.752H48.6619V182H47.6679V174.636ZM61.8052 178.192C62.8038 178.425 63.3032 179.027 63.3032 179.998C63.3032 180.642 63.0652 181.137 62.5892 181.482C62.1132 181.827 61.4038 182 60.4612 182H57.1152V174.636H60.3632C61.2032 174.636 61.8612 174.799 62.3372 175.126C62.8132 175.453 63.0512 175.919 63.0512 176.526C63.0512 176.927 62.9392 177.273 62.7152 177.562C62.5005 177.842 62.1972 178.052 61.8052 178.192ZM58.0812 177.912H60.2932C60.8625 177.912 61.2965 177.805 61.5952 177.59C61.9032 177.375 62.0572 177.063 62.0572 176.652C62.0572 176.241 61.9032 175.933 61.5952 175.728C61.2965 175.523 60.8625 175.42 60.2932 175.42H58.0812V177.912ZM60.4192 181.216C61.0538 181.216 61.5298 181.113 61.8472 180.908C62.1645 180.703 62.3232 180.381 62.3232 179.942C62.3232 179.503 62.1785 179.181 61.8892 178.976C61.5998 178.761 61.1425 178.654 60.5172 178.654H58.0812V181.216H60.4192Z" fill="#C5C5C5" />
    <path d="M91.138 177.086C91.138 178.383 90.676 179.405 89.752 180.152C88.8373 180.889 87.554 181.281 85.902 181.328V182.336H84.936V181.328C83.284 181.272 81.996 180.875 81.072 180.138C80.1573 179.401 79.7 178.383 79.7 177.086C79.7 175.789 80.1573 174.771 81.072 174.034C81.996 173.297 83.284 172.9 84.936 172.844V171.864H85.902V172.844C87.5447 172.9 88.828 173.301 89.752 174.048C90.676 174.785 91.138 175.798 91.138 177.086ZM85.902 180.502C87.2553 180.446 88.3007 180.124 89.038 179.536C89.7753 178.948 90.144 178.131 90.144 177.086C90.144 176.041 89.7707 175.224 89.024 174.636C88.2867 174.048 87.246 173.731 85.902 173.684V180.502ZM80.694 177.086C80.694 178.131 81.0627 178.948 81.8 179.536C82.5467 180.115 83.592 180.437 84.936 180.502V173.684C83.5733 173.74 82.5233 174.062 81.786 174.65C81.058 175.229 80.694 176.041 80.694 177.086ZM99.6919 178.626H93.5319C93.5879 179.391 93.8819 180.012 94.4139 180.488C94.9459 180.955 95.6179 181.188 96.4299 181.188C96.8872 181.188 97.3072 181.109 97.6899 180.95C98.0726 180.782 98.4039 180.539 98.6839 180.222L99.2439 180.866C98.9172 181.258 98.5066 181.557 98.0119 181.762C97.5266 181.967 96.9899 182.07 96.4019 182.07C95.6459 182.07 94.9739 181.911 94.3859 181.594C93.8072 181.267 93.3546 180.819 93.0279 180.25C92.7012 179.681 92.5379 179.037 92.5379 178.318C92.5379 177.599 92.6919 176.955 92.9999 176.386C93.3172 175.817 93.7466 175.373 94.2879 175.056C94.8386 174.739 95.4546 174.58 96.1359 174.58C96.8172 174.58 97.4286 174.739 97.9699 175.056C98.5112 175.373 98.9359 175.817 99.2439 176.386C99.5519 176.946 99.7059 177.59 99.7059 178.318L99.6919 178.626ZM96.1359 175.434C95.4266 175.434 94.8292 175.663 94.3439 176.12C93.8679 176.568 93.5972 177.156 93.5319 177.884H98.7539C98.6886 177.156 98.4132 176.568 97.9279 176.12C97.4519 175.663 96.8546 175.434 96.1359 175.434ZM106.596 178.192C107.595 178.425 108.094 179.027 108.094 179.998C108.094 180.642 107.856 181.137 107.38 181.482C106.904 181.827 106.195 182 105.252 182H101.906V174.636H105.154C105.994 174.636 106.652 174.799 107.128 175.126C107.604 175.453 107.842 175.919 107.842 176.526C107.842 176.927 107.73 177.273 107.506 177.562C107.292 177.842 106.988 178.052 106.596 178.192ZM102.872 177.912H105.084C105.654 177.912 106.088 177.805 106.386 177.59C106.694 177.375 106.848 177.063 106.848 176.652C106.848 176.241 106.694 175.933 106.386 175.728C106.088 175.523 105.654 175.42 105.084 175.42H102.872V177.912ZM105.21 181.216C105.845 181.216 106.321 181.113 106.638 180.908C106.956 180.703 107.114 180.381 107.114 179.942C107.114 179.503 106.97 179.181 106.68 178.976C106.391 178.761 105.934 178.654 105.308 178.654H102.872V181.216H105.21Z" fill="#C5C5C5" />
    <path d="M135.83 172.2V182H134.836V174.16L130.986 180.754H130.496L126.646 174.202V182H125.652V172.2H126.506L130.762 179.466L134.976 172.2H135.83ZM141.428 174.58C142.39 174.58 143.127 174.823 143.64 175.308C144.154 175.784 144.41 176.493 144.41 177.436V182H143.458V180.852C143.234 181.235 142.903 181.533 142.464 181.748C142.035 181.963 141.522 182.07 140.924 182.07C140.103 182.07 139.45 181.874 138.964 181.482C138.479 181.09 138.236 180.572 138.236 179.928C138.236 179.303 138.46 178.799 138.908 178.416C139.366 178.033 140.089 177.842 141.078 177.842H143.416V177.394C143.416 176.759 143.239 176.279 142.884 175.952C142.53 175.616 142.012 175.448 141.33 175.448C140.864 175.448 140.416 175.527 139.986 175.686C139.557 175.835 139.188 176.045 138.88 176.316L138.432 175.574C138.806 175.257 139.254 175.014 139.776 174.846C140.299 174.669 140.85 174.58 141.428 174.58ZM141.078 181.286C141.638 181.286 142.119 181.16 142.52 180.908C142.922 180.647 143.22 180.273 143.416 179.788V178.584H141.106C139.846 178.584 139.216 179.023 139.216 179.9C139.216 180.329 139.38 180.67 139.706 180.922C140.033 181.165 140.49 181.286 141.078 181.286Z" fill="#C5C5C5" />
    <path d="M167.924 179.382H162.464L161.288 182H160.21L164.69 172.2H165.712L170.192 182H169.1L167.924 179.382ZM167.546 178.542L165.194 173.278L162.842 178.542H167.546ZM178.44 174.636V182H177.446V175.518H172.826V182H171.832V174.636H178.44Z" fill="#C5C5C5" />
    <path d="M205.83 172.2V182H204.836V174.16L200.986 180.754H200.496L196.646 174.202V182H195.652V172.2H196.506L200.762 179.466L204.976 172.2H205.83ZM211.428 174.58C212.39 174.58 213.127 174.823 213.64 175.308C214.154 175.784 214.41 176.493 214.41 177.436V182H213.458V180.852C213.234 181.235 212.903 181.533 212.464 181.748C212.035 181.963 211.522 182.07 210.924 182.07C210.103 182.07 209.45 181.874 208.964 181.482C208.479 181.09 208.236 180.572 208.236 179.928C208.236 179.303 208.46 178.799 208.908 178.416C209.366 178.033 210.089 177.842 211.078 177.842H213.416V177.394C213.416 176.759 213.239 176.279 212.884 175.952C212.53 175.616 212.012 175.448 211.33 175.448C210.864 175.448 210.416 175.527 209.986 175.686C209.557 175.835 209.188 176.045 208.88 176.316L208.432 175.574C208.806 175.257 209.254 175.014 209.776 174.846C210.299 174.669 210.85 174.58 211.428 174.58ZM211.078 181.286C211.638 181.286 212.119 181.16 212.52 180.908C212.922 180.647 213.22 180.273 213.416 179.788V178.584H211.106C209.846 178.584 209.216 179.023 209.216 179.9C209.216 180.329 209.38 180.67 209.706 180.922C210.033 181.165 210.49 181.286 211.078 181.286ZM217.057 174.636H218.051V180.488L222.965 174.636H223.847V182H222.853V176.148L217.953 182H217.057V174.636ZM220.403 173.572C219.768 173.572 219.264 173.413 218.891 173.096C218.517 172.779 218.326 172.331 218.317 171.752H219.031C219.04 172.116 219.171 172.41 219.423 172.634C219.675 172.849 220.001 172.956 220.403 172.956C220.804 172.956 221.131 172.849 221.383 172.634C221.644 172.41 221.779 172.116 221.789 171.752H222.503C222.493 172.331 222.297 172.779 221.915 173.096C221.541 173.413 221.037 173.572 220.403 173.572Z" fill="#C5C5C5" />
    <path d="M241.652 172.2H242.674V180.32L248.946 172.2H249.884V182H248.862V173.894L242.59 182H241.652V172.2ZM252.953 174.636H253.947V177.898H258.581V174.636H259.575V182H258.581V178.752H253.947V182H252.953V174.636Z" fill="#C5C5C5" />
    <path d="M276.652 172.2H277.674V180.32L283.946 172.2H284.884V182H283.862V173.894L277.59 182H276.652V172.2ZM293.973 174.636V182H292.979V175.518H289.451L289.353 177.338C289.278 178.869 289.101 180.045 288.821 180.866C288.541 181.687 288.042 182.098 287.323 182.098C287.127 182.098 286.889 182.061 286.609 181.986L286.679 181.132C286.847 181.169 286.964 181.188 287.029 181.188C287.412 181.188 287.701 181.011 287.897 180.656C288.093 180.301 288.224 179.863 288.289 179.34C288.354 178.817 288.41 178.127 288.457 177.268L288.583 174.636H293.973Z" fill="#C5C5C5" />
    <path d="M317.924 179.382H312.464L311.288 182H310.21L314.69 172.2H315.712L320.192 182H319.1L317.924 179.382ZM317.546 178.542L315.194 173.278L312.842 178.542H317.546ZM326.522 178.192C327.521 178.425 328.02 179.027 328.02 179.998C328.02 180.642 327.782 181.137 327.306 181.482C326.83 181.827 326.121 182 325.178 182H321.832V174.636H325.08C325.92 174.636 326.578 174.799 327.054 175.126C327.53 175.453 327.768 175.919 327.768 176.526C327.768 176.927 327.656 177.273 327.432 177.562C327.217 177.842 326.914 178.052 326.522 178.192ZM322.798 177.912H325.01C325.579 177.912 326.013 177.805 326.312 177.59C326.62 177.375 326.774 177.063 326.774 176.652C326.774 176.241 326.62 175.933 326.312 175.728C326.013 175.523 325.579 175.42 325.01 175.42H322.798V177.912ZM325.136 181.216C325.771 181.216 326.247 181.113 326.564 180.908C326.881 180.703 327.04 180.381 327.04 179.942C327.04 179.503 326.895 179.181 326.606 178.976C326.317 178.761 325.859 178.654 325.234 178.654H322.798V181.216H325.136ZM335.558 175.518H331.344V182H330.35V174.636H335.558V175.518Z" fill="#C5C5C5" />
    <path d="M355.936 182.084C354.965 182.084 354.088 181.869 353.304 181.44C352.529 181.011 351.918 180.418 351.47 179.662C351.031 178.897 350.812 178.043 350.812 177.1C350.812 176.157 351.031 175.308 351.47 174.552C351.918 173.787 352.534 173.189 353.318 172.76C354.102 172.331 354.979 172.116 355.95 172.116C356.678 172.116 357.35 172.237 357.966 172.48C358.582 172.723 359.105 173.077 359.534 173.544L358.876 174.202C358.111 173.427 357.145 173.04 355.978 173.04C355.203 173.04 354.499 173.217 353.864 173.572C353.229 173.927 352.73 174.412 352.366 175.028C352.011 175.644 351.834 176.335 351.834 177.1C351.834 177.865 352.011 178.556 352.366 179.172C352.73 179.788 353.229 180.273 353.864 180.628C354.499 180.983 355.203 181.16 355.978 181.16C357.154 181.16 358.12 180.768 358.876 179.984L359.534 180.642C359.105 181.109 358.577 181.468 357.952 181.72C357.336 181.963 356.664 182.084 355.936 182.084ZM367.547 178.626H361.387C361.443 179.391 361.737 180.012 362.269 180.488C362.801 180.955 363.473 181.188 364.285 181.188C364.743 181.188 365.163 181.109 365.545 180.95C365.928 180.782 366.259 180.539 366.539 180.222L367.099 180.866C366.773 181.258 366.362 181.557 365.867 181.762C365.382 181.967 364.845 182.07 364.257 182.07C363.501 182.07 362.829 181.911 362.241 181.594C361.663 181.267 361.21 180.819 360.883 180.25C360.557 179.681 360.393 179.037 360.393 178.318C360.393 177.599 360.547 176.955 360.855 176.386C361.173 175.817 361.602 175.373 362.143 175.056C362.694 174.739 363.31 174.58 363.991 174.58C364.673 174.58 365.284 174.739 365.825 175.056C366.367 175.373 366.791 175.817 367.099 176.386C367.407 176.946 367.561 177.59 367.561 178.318L367.547 178.626ZM363.991 175.434C363.282 175.434 362.685 175.663 362.199 176.12C361.723 176.568 361.453 177.156 361.387 177.884H366.609C366.544 177.156 366.269 176.568 365.783 176.12C365.307 175.663 364.71 175.434 363.991 175.434ZM369.762 174.636H370.756V177.898H375.39V174.636H376.384V182H375.39V178.752H370.756V182H369.762V174.636Z" fill="#C5C5C5" />
    <path d="M397.95 182.084C396.979 182.084 396.097 181.869 395.304 181.44C394.52 181.001 393.904 180.404 393.456 179.648C393.017 178.892 392.798 178.043 392.798 177.1C392.798 176.157 393.017 175.308 393.456 174.552C393.904 173.796 394.52 173.203 395.304 172.774C396.097 172.335 396.979 172.116 397.95 172.116C398.921 172.116 399.793 172.331 400.568 172.76C401.352 173.189 401.968 173.787 402.416 174.552C402.864 175.308 403.088 176.157 403.088 177.1C403.088 178.043 402.864 178.897 402.416 179.662C401.968 180.418 401.352 181.011 400.568 181.44C399.793 181.869 398.921 182.084 397.95 182.084ZM397.95 181.16C398.725 181.16 399.425 180.987 400.05 180.642C400.675 180.287 401.165 179.802 401.52 179.186C401.875 178.561 402.052 177.865 402.052 177.1C402.052 176.335 401.875 175.644 401.52 175.028C401.165 174.403 400.675 173.917 400.05 173.572C399.425 173.217 398.725 173.04 397.95 173.04C397.175 173.04 396.471 173.217 395.836 173.572C395.211 173.917 394.716 174.403 394.352 175.028C393.997 175.644 393.82 176.335 393.82 177.1C393.82 177.865 393.997 178.561 394.352 179.186C394.716 179.802 395.211 180.287 395.836 180.642C396.471 180.987 397.175 181.16 397.95 181.16ZM407.996 178.724H406.316V182H405.322V174.636H406.316V177.87H408.01L410.6 174.636H411.678L408.78 178.206L411.888 182H410.712L407.996 178.724ZM418.487 175.518H415.701V182H414.707V175.518H411.921V174.636H418.487V175.518Z" fill="#C5C5C5" />
    <path d="M442.842 172.2V182H441.82V177.478H435.688V182H434.652V172.2H435.688V176.568H441.82V172.2H442.842ZM448.95 182.07C448.241 182.07 447.601 181.911 447.032 181.594C446.463 181.267 446.015 180.819 445.688 180.25C445.361 179.681 445.198 179.037 445.198 178.318C445.198 177.599 445.361 176.955 445.688 176.386C446.015 175.817 446.463 175.373 447.032 175.056C447.601 174.739 448.241 174.58 448.95 174.58C449.659 174.58 450.299 174.739 450.868 175.056C451.437 175.373 451.881 175.817 452.198 176.386C452.525 176.955 452.688 177.599 452.688 178.318C452.688 179.037 452.525 179.681 452.198 180.25C451.881 180.819 451.437 181.267 450.868 181.594C450.299 181.911 449.659 182.07 448.95 182.07ZM448.95 181.188C449.473 181.188 449.939 181.071 450.35 180.838C450.77 180.595 451.097 180.255 451.33 179.816C451.563 179.377 451.68 178.878 451.68 178.318C451.68 177.758 451.563 177.259 451.33 176.82C451.097 176.381 450.77 176.045 450.35 175.812C449.939 175.569 449.473 175.448 448.95 175.448C448.427 175.448 447.956 175.569 447.536 175.812C447.125 176.045 446.799 176.381 446.556 176.82C446.323 177.259 446.206 177.758 446.206 178.318C446.206 178.878 446.323 179.377 446.556 179.816C446.799 180.255 447.125 180.595 447.536 180.838C447.956 181.071 448.427 181.188 448.95 181.188ZM460.209 174.636V182H459.299V179.564H456.989H456.709L455.001 182H453.923L455.757 179.424C455.187 179.265 454.749 178.995 454.441 178.612C454.133 178.229 453.979 177.744 453.979 177.156C453.979 176.335 454.259 175.709 454.819 175.28C455.379 174.851 456.144 174.636 457.115 174.636H460.209ZM454.987 177.184C454.987 178.276 455.682 178.822 457.073 178.822H459.299V175.518H457.143C455.705 175.518 454.987 176.073 454.987 177.184ZM466.613 174.818C467.294 174.818 467.901 174.972 468.433 175.28C468.974 175.579 469.394 176.003 469.693 176.554C469.992 177.095 470.141 177.716 470.141 178.416C470.141 179.135 469.982 179.774 469.665 180.334C469.357 180.885 468.923 181.314 468.363 181.622C467.803 181.93 467.159 182.084 466.431 182.084C465.208 182.084 464.261 181.655 463.589 180.796C462.917 179.937 462.581 178.752 462.581 177.24C462.581 175.663 462.88 174.454 463.477 173.614C464.084 172.774 465.026 172.205 466.305 171.906L469.609 171.15L469.777 172.06L466.669 172.774C465.614 173.007 464.84 173.423 464.345 174.02C463.85 174.608 463.58 175.481 463.533 176.638C463.832 176.069 464.247 175.625 464.779 175.308C465.311 174.981 465.922 174.818 466.613 174.818ZM466.459 181.258C466.972 181.258 467.43 181.141 467.831 180.908C468.242 180.665 468.559 180.329 468.783 179.9C469.016 179.471 469.133 178.985 469.133 178.444C469.133 177.903 469.021 177.427 468.797 177.016C468.573 176.605 468.256 176.288 467.845 176.064C467.444 175.831 466.982 175.714 466.459 175.714C465.936 175.714 465.47 175.831 465.059 176.064C464.658 176.288 464.34 176.605 464.107 177.016C463.883 177.427 463.771 177.903 463.771 178.444C463.771 178.985 463.883 179.471 464.107 179.9C464.34 180.329 464.662 180.665 465.073 180.908C465.484 181.141 465.946 181.258 466.459 181.258Z" fill="#C5C5C5" />
    <path d="M495.654 181.104V184.198H494.688V182H486.134L486.12 184.198H485.154L485.168 181.104H485.658C486.302 181.067 486.75 180.558 487.002 179.578C487.254 178.589 487.408 177.189 487.464 175.378L487.576 172.2H494.184V181.104H495.654ZM488.388 175.476C488.341 176.969 488.225 178.201 488.038 179.172C487.861 180.133 487.557 180.777 487.128 181.104H493.162V173.096H488.472L488.388 175.476ZM503.764 178.626H497.604C497.66 179.391 497.954 180.012 498.486 180.488C499.018 180.955 499.69 181.188 500.502 181.188C500.959 181.188 501.379 181.109 501.762 180.95C502.145 180.782 502.476 180.539 502.756 180.222L503.316 180.866C502.989 181.258 502.579 181.557 502.084 181.762C501.599 181.967 501.062 182.07 500.474 182.07C499.718 182.07 499.046 181.911 498.458 181.594C497.879 181.267 497.427 180.819 497.1 180.25C496.773 179.681 496.61 179.037 496.61 178.318C496.61 177.599 496.764 176.955 497.072 176.386C497.389 175.817 497.819 175.373 498.36 175.056C498.911 174.739 499.527 174.58 500.208 174.58C500.889 174.58 501.501 174.739 502.042 175.056C502.583 175.373 503.008 175.817 503.316 176.386C503.624 176.946 503.778 177.59 503.778 178.318L503.764 178.626ZM500.208 175.434C499.499 175.434 498.901 175.663 498.416 176.12C497.94 176.568 497.669 177.156 497.604 177.884H502.826C502.761 177.156 502.485 176.568 502 176.12C501.524 175.663 500.927 175.434 500.208 175.434ZM508.652 178.724H506.972V182H505.978V174.636H506.972V177.87H508.666L511.256 174.636H512.334L509.436 178.206L512.544 182H511.368L508.652 178.724Z" fill="#C5C5C5" />
    <path d="M49 123C49 123 85.3566 89.3451 112.715 69.6924C141.514 49.0046 180.214 36.1187 227.013 47.2737C267.015 56.8087 309.21 113.259 383.138 67.8112C457.067 22.3637 499 40.5002 499 40.5002" stroke="#EBEBEB" stroke-width="2.5" />
    <circle cx="51" cy="121" r="5" fill="#2BE2A0" />
    <circle cx="95" cy="81" r="7" fill="#1A1A1A" />
    <circle cx="135" cy="56" r="5" fill="#2BE2A0" />
    <circle cx="170" cy="46" r="5" fill="#2BE2A0" />
    <circle cx="210" cy="44" r="5" fill="#2BE2A0" />
    <circle cx="251" cy="57" r="5" fill="#2BE2A0" />
    <circle cx="286" cy="76" r="5" fill="#2BE2A0" />
    <circle cx="323" cy="86" r="5" fill="#2BE2A0" />
    <circle cx="364" cy="78" r="5" fill="#2BE2A0" />
    <circle cx="406" cy="55" r="5" fill="#2BE2A0" />
    <circle cx="452" cy="40" r="5" fill="#2BE2A0" />
    <circle cx="499" cy="40" r="5" fill="#2BE2A0" />
    <g filter="url(#icon-timeline_filter0_dd_328_2898)">
        
        <path fill-rule="evenodd" clip-rule="evenodd" d="M101 95L95 90L89 95H77C74.7909 95 73 96.7909 73 99V135C73 137.209 74.7909 139 77 139H200C202.209 139 204 137.209 204 135V99C204 96.7909 202.209 95 200 95H101Z" fill="white" />
        <path d="M95 90L95.6402 89.2318L95 88.6983L94.3598 89.2318L95 90ZM101 95L100.36 95.7682L100.638 96H101V95ZM89 95V96H89.362L89.6402 95.7682L89 95ZM94.3598 90.7682L100.36 95.7682L101.64 94.2318L95.6402 89.2318L94.3598 90.7682ZM89.6402 95.7682L95.6402 90.7682L94.3598 89.2318L88.3598 94.2318L89.6402 95.7682ZM77 96H89V94H77V96ZM74 99C74 97.3431 75.3431 96 77 96V94C74.2386 94 72 96.2386 72 99H74ZM74 135V99H72V135H74ZM77 138C75.3431 138 74 136.657 74 135H72C72 137.761 74.2386 140 77 140V138ZM200 138H77V140H200V138ZM203 135C203 136.657 201.657 138 200 138V140C202.761 140 205 137.761 205 135H203ZM203 99V135H205V99H203ZM200 96C201.657 96 203 97.3431 203 99H205C205 96.2386 202.761 94 200 94V96ZM101 96H200V94H101V96Z" fill="#F1F1F1" mask="url(#icon-timeline_path-44-inside-1_328_2898)" />
        <path d="M91.79 120H85.56V119.118L89.088 115.562C90.096 114.554 90.6 113.691 90.6 112.972C90.6 112.365 90.4087 111.885 90.026 111.53C89.6527 111.166 89.186 110.984 88.626 110.984C87.6273 110.984 86.8947 111.446 86.428 112.37L85.602 111.88C85.9007 111.283 86.316 110.825 86.848 110.508C87.38 110.191 87.9727 110.032 88.626 110.032C89.41 110.032 90.096 110.298 90.684 110.83C91.2813 111.343 91.58 112.057 91.58 112.972C91.58 113.513 91.4307 114.045 91.132 114.568C90.8333 115.081 90.376 115.646 89.76 116.262L86.96 119.048H91.79V120ZM99.3555 113.266C99.3555 114.003 99.1548 114.657 98.7535 115.226L95.5475 120H94.4415L96.8495 116.416C96.5975 116.472 96.3361 116.5 96.0655 116.5C95.0948 116.5 94.3061 116.201 93.6995 115.604C93.0835 115.007 92.7755 114.227 92.7755 113.266C92.7755 112.323 93.0835 111.549 93.6995 110.942C94.3248 110.335 95.1135 110.032 96.0655 110.032C97.0175 110.032 97.8061 110.335 98.4315 110.942C99.0475 111.549 99.3555 112.323 99.3555 113.266ZM94.3855 111.614C93.9655 112.034 93.7555 112.585 93.7555 113.266C93.7555 113.947 93.9655 114.498 94.3855 114.918C94.8241 115.338 95.3841 115.548 96.0655 115.548C96.7561 115.548 97.3115 115.338 97.7315 114.918C98.1608 114.498 98.3755 113.947 98.3755 113.266C98.3755 112.585 98.1608 112.034 97.7315 111.614C97.3115 111.194 96.7561 110.984 96.0655 110.984C95.3841 110.984 94.8241 111.194 94.3855 111.614ZM105.267 114.946C105.771 115.179 106.168 115.506 106.457 115.926C106.747 116.346 106.891 116.817 106.891 117.34C106.891 118.227 106.579 118.922 105.953 119.426C105.319 119.921 104.539 120.168 103.615 120.168C102.691 120.168 101.912 119.921 101.277 119.426C100.652 118.922 100.339 118.227 100.339 117.34C100.339 116.817 100.484 116.346 100.773 115.926C101.063 115.506 101.459 115.179 101.963 114.946C101.095 114.451 100.661 113.719 100.661 112.748C100.661 111.871 100.951 111.199 101.529 110.732C102.127 110.265 102.822 110.032 103.615 110.032C104.418 110.032 105.109 110.265 105.687 110.732C106.275 111.199 106.569 111.871 106.569 112.748C106.569 113.719 106.135 114.451 105.267 114.946ZM101.641 112.748C101.641 113.289 101.828 113.719 102.201 114.036C102.584 114.353 103.055 114.512 103.615 114.512C104.175 114.512 104.642 114.353 105.015 114.036C105.398 113.719 105.589 113.289 105.589 112.748C105.589 112.179 105.407 111.745 105.043 111.446C104.679 111.138 104.203 110.984 103.615 110.984C103.027 110.984 102.551 111.138 102.187 111.446C101.823 111.745 101.641 112.179 101.641 112.748ZM101.949 118.74C102.36 119.057 102.915 119.216 103.615 119.216C104.315 119.216 104.871 119.057 105.281 118.74C105.701 118.413 105.911 117.947 105.911 117.34C105.911 116.743 105.701 116.281 105.281 115.954C104.852 115.627 104.297 115.464 103.615 115.464C102.934 115.464 102.379 115.627 101.949 115.954C101.529 116.281 101.319 116.743 101.319 117.34C101.319 117.956 101.529 118.423 101.949 118.74ZM115.681 112.832C116.68 112.832 117.529 113.187 118.229 113.896C118.939 114.605 119.293 115.473 119.293 116.5C119.293 117.527 118.939 118.395 118.229 119.104C117.529 119.813 116.68 120.168 115.681 120.168C114.44 120.168 113.497 119.655 112.853 118.628V122.8H111.929V113H112.853V114.372C113.497 113.345 114.44 112.832 115.681 112.832ZM113.651 118.474C114.183 119.006 114.837 119.272 115.611 119.272C116.386 119.272 117.039 119.006 117.571 118.474C118.103 117.923 118.369 117.265 118.369 116.5C118.369 115.725 118.103 115.072 117.571 114.54C117.039 113.999 116.386 113.728 115.611 113.728C114.837 113.728 114.183 113.999 113.651 114.54C113.119 115.072 112.853 115.725 112.853 116.5C112.853 117.265 113.119 117.923 113.651 118.474ZM124.064 112.832C125.109 112.832 125.944 113.201 126.57 113.938C127.214 114.666 127.536 115.529 127.536 116.528C127.536 116.575 127.526 116.719 127.508 116.962H121.362C121.455 117.662 121.754 118.222 122.258 118.642C122.762 119.062 123.392 119.272 124.148 119.272C125.212 119.272 125.963 118.875 126.402 118.082L127.214 118.558C126.906 119.062 126.481 119.459 125.94 119.748C125.408 120.028 124.806 120.168 124.134 120.168C123.032 120.168 122.136 119.823 121.446 119.132C120.755 118.441 120.41 117.564 120.41 116.5C120.41 115.445 120.75 114.573 121.432 113.882C122.113 113.182 122.99 112.832 124.064 112.832ZM124.064 113.728C123.336 113.728 122.724 113.943 122.23 114.372C121.744 114.801 121.455 115.366 121.362 116.066H126.584C126.481 115.319 126.196 114.745 125.73 114.344C125.244 113.933 124.689 113.728 124.064 113.728ZM132.267 120.168C131.213 120.168 130.335 119.818 129.635 119.118C128.935 118.399 128.585 117.527 128.585 116.5C128.585 115.464 128.935 114.596 129.635 113.896C130.335 113.187 131.213 112.832 132.267 112.832C132.958 112.832 133.579 113 134.129 113.336C134.68 113.663 135.081 114.106 135.333 114.666L134.577 115.1C134.391 114.68 134.087 114.349 133.667 114.106C133.257 113.854 132.79 113.728 132.267 113.728C131.493 113.728 130.839 113.999 130.307 114.54C129.775 115.072 129.509 115.725 129.509 116.5C129.509 117.265 129.775 117.923 130.307 118.474C130.839 119.006 131.493 119.272 132.267 119.272C132.781 119.272 133.243 119.151 133.653 118.908C134.073 118.665 134.4 118.329 134.633 117.9L135.403 118.348C135.114 118.908 134.689 119.351 134.129 119.678C133.569 120.005 132.949 120.168 132.267 120.168ZM135.753 113H141.633V113.896H139.155V120H138.231V113.896H135.753V113ZM148.352 119.118C147.633 119.818 146.765 120.168 145.748 120.168C144.712 120.168 143.839 119.818 143.13 119.118C142.421 118.409 142.066 117.536 142.066 116.5C142.066 115.464 142.421 114.596 143.13 113.896C143.839 113.187 144.712 112.832 145.748 112.832C146.775 112.832 147.643 113.187 148.352 113.896C149.071 114.596 149.43 115.464 149.43 116.5C149.43 117.527 149.071 118.399 148.352 119.118ZM143.788 118.474C144.32 119.006 144.973 119.272 145.748 119.272C146.523 119.272 147.176 119.006 147.708 118.474C148.24 117.923 148.506 117.265 148.506 116.5C148.506 115.725 148.24 115.072 147.708 114.54C147.176 113.999 146.523 113.728 145.748 113.728C144.973 113.728 144.32 113.999 143.788 114.54C143.256 115.072 142.99 115.725 142.99 116.5C142.99 117.265 143.256 117.923 143.788 118.474ZM154.728 112.832C155.727 112.832 156.576 113.187 157.276 113.896C157.985 114.605 158.34 115.473 158.34 116.5C158.34 117.527 157.985 118.395 157.276 119.104C156.576 119.813 155.727 120.168 154.728 120.168C153.487 120.168 152.544 119.655 151.9 118.628V122.8H150.976V113H151.9V114.372C152.544 113.345 153.487 112.832 154.728 112.832ZM152.698 118.474C153.23 119.006 153.883 119.272 154.658 119.272C155.433 119.272 156.086 119.006 156.618 118.474C157.15 117.923 157.416 117.265 157.416 116.5C157.416 115.725 157.15 115.072 156.618 114.54C156.086 113.999 155.433 113.728 154.658 113.728C153.883 113.728 153.23 113.999 152.698 114.54C152.166 115.072 151.9 115.725 151.9 116.5C151.9 117.265 152.166 117.923 152.698 118.474ZM165.896 114.372V113H166.82V120H165.896V118.628C165.252 119.655 164.31 120.168 163.068 120.168C162.07 120.168 161.216 119.813 160.506 119.104C159.806 118.395 159.456 117.527 159.456 116.5C159.456 115.473 159.806 114.605 160.506 113.896C161.216 113.187 162.07 112.832 163.068 112.832C164.31 112.832 165.252 113.345 165.896 114.372ZM161.178 118.474C161.71 119.006 162.364 119.272 163.138 119.272C163.913 119.272 164.566 119.006 165.098 118.474C165.63 117.923 165.896 117.265 165.896 116.5C165.896 115.725 165.63 115.072 165.098 114.54C164.566 113.999 163.913 113.728 163.138 113.728C162.364 113.728 161.71 113.999 161.178 114.54C160.646 115.072 160.38 115.725 160.38 116.5C160.38 117.265 160.646 117.923 161.178 118.474ZM173.733 116.052V113H174.657V120H173.733V116.948H169.701V120H168.777V113H169.701V116.052H173.733ZM182.477 119.118C181.758 119.818 180.89 120.168 179.873 120.168C178.837 120.168 177.964 119.818 177.255 119.118C176.546 118.409 176.191 117.536 176.191 116.5C176.191 115.464 176.546 114.596 177.255 113.896C177.964 113.187 178.837 112.832 179.873 112.832C180.9 112.832 181.768 113.187 182.477 113.896C183.196 114.596 183.555 115.464 183.555 116.5C183.555 117.527 183.196 118.399 182.477 119.118ZM177.913 118.474C178.445 119.006 179.098 119.272 179.873 119.272C180.648 119.272 181.301 119.006 181.833 118.474C182.365 117.923 182.631 117.265 182.631 116.5C182.631 115.725 182.365 115.072 181.833 114.54C181.301 113.999 180.648 113.728 179.873 113.728C179.098 113.728 178.445 113.999 177.913 114.54C177.381 115.072 177.115 115.725 177.115 116.5C177.115 117.265 177.381 117.923 177.913 118.474ZM189.553 116.402C190.318 116.682 190.701 117.228 190.701 118.04C190.701 118.619 190.505 119.09 190.113 119.454C189.73 119.818 189.194 120 188.503 120H185.101V113H188.223C188.895 113 189.418 113.173 189.791 113.518C190.174 113.863 190.365 114.316 190.365 114.876C190.365 115.576 190.094 116.085 189.553 116.402ZM188.223 113.896H186.025V116.024H188.223C189.035 116.024 189.441 115.66 189.441 114.932C189.441 114.605 189.334 114.353 189.119 114.176C188.914 113.989 188.615 113.896 188.223 113.896ZM186.025 119.104H188.503C188.914 119.104 189.226 119.006 189.441 118.81C189.665 118.614 189.777 118.339 189.777 117.984C189.777 117.648 189.665 117.387 189.441 117.2C189.226 117.013 188.914 116.92 188.503 116.92H186.025V119.104Z" fill="#1A1A1A" />
    </g>
    <defs>
        <filter id="icon-timeline_filter0_dd_328_2898" x="57" y="78" width="163" height="81" filterUnits="userSpaceOnUse" color-interpolation-filters="sRGB">
            <feFlood flood-opacity="0" result="BackgroundImageFix"></feFlood>
            <feColorMatrix in="SourceAlpha" type="matrix" values="0 0 0 0 0 0 0 0 0 0 0 0 0 0 0 0 0 0 127 0" result="hardAlpha"></feColorMatrix>
            <feOffset dy="4"></feOffset>
            <feGaussianBlur stdDeviation="8"></feGaussianBlur>
            <feColorMatrix type="matrix" values="0 0 0 0 0.2 0 0 0 0 0.2 0 0 0 0 0.2 0 0 0 0.08 0"></feColorMatrix>
            <feBlend mode="normal" in2="BackgroundImageFix" result="effect1_dropShadow_328_2898"></feBlend>
            <feColorMatrix in="SourceAlpha" type="matrix" values="0 0 0 0 0 0 0 0 0 0 0 0 0 0 0 0 0 0 127 0" result="hardAlpha"></feColorMatrix>
            <feOffset dy="4"></feOffset>
            <feGaussianBlur stdDeviation="2"></feGaussianBlur>
            <feColorMatrix type="matrix" values="0 0 0 0 0.2 0 0 0 0 0.2 0 0 0 0 0.2 0 0 0 0.04 0"></feColorMatrix>
            <feBlend mode="normal" in2="effect1_dropShadow_328_2898" result="effect2_dropShadow_328_2898"></feBlend>
            <feBlend mode="normal" in="SourceGraphic" in2="effect2_dropShadow_328_2898" result="shape"></feBlend>
        </filter>
    </defs>
</symbol><mask id="icon-timeline_path-44-inside-1_328_2898" fill="white">
            <path fill-rule="evenodd" clip-rule="evenodd" d="M101 95L95 90L89 95H77C74.7909 95 73 96.7909 73 99V135C73 137.209 74.7909 139 77 139H200C202.209 139 204 137.209 204 135V99C204 96.7909 202.209 95 200 95H101Z" />
        </mask><symbol viewBox="0 0 27 27" fill="none" id="icon-viber">
<circle cx="13.0769" cy="13.0769" r="13.0769" fill="#333333" />
<path d="M13.0816 19.2305C12.0043 19.2305 10.9467 18.9452 10.0121 18.4041L7.61153 19.2305L8.10344 16.6923C7.33114 15.6347 6.92285 14.3901 6.92285 13.0767C6.92285 9.68249 9.68248 6.92285 13.0767 6.92285C16.4709 6.92285 19.2305 9.68249 19.2305 13.0767C19.2404 16.466 16.4807 19.2305 13.0816 19.2305ZM10.1252 17.3957L10.3121 17.5138C11.1484 18.0401 12.1076 18.3156 13.0865 18.3156C15.9741 18.3156 18.3254 15.9642 18.3254 13.0767C18.3254 10.1892 15.9741 7.83781 13.0865 7.83781C10.1941 7.83289 7.84273 10.1842 7.84273 13.0718C7.84273 14.2475 8.22642 15.3592 8.95445 16.2938L9.08235 16.4561L8.8118 17.8433L10.1252 17.3957Z" fill="white" />
<path d="M9.97759 10.7106C9.97759 10.7106 10.3367 10.0809 10.6318 10.0416C10.927 10.0071 11.3058 10.0071 11.4091 10.199C11.5124 10.3908 11.9698 11.5124 11.9698 11.5124C11.9698 11.5124 12.0485 11.7042 11.9256 11.8912C11.8026 12.0732 11.532 12.3437 11.532 12.3437C11.532 12.3437 11.3795 12.5356 11.532 12.7422C11.6845 12.9488 11.9157 13.3226 12.3978 13.8047C12.8799 14.2868 13.8047 14.6311 13.8047 14.6311C13.8047 14.6311 13.9375 14.6508 14.0211 14.5672C14.1047 14.4836 14.5622 13.9129 14.5622 13.9129C14.5622 13.9129 14.7098 13.726 14.9508 13.8342C15.1919 13.9474 16.2495 14.4737 16.2495 14.4737C16.2495 14.4737 16.3725 14.518 16.3725 14.7049C16.3725 14.8918 16.2987 15.3493 16.1413 15.5018C15.9888 15.6543 15.5362 16.1315 14.8574 16.1315C14.1785 16.1315 12.5651 15.5805 11.7042 14.7197C10.8434 13.8588 10.0809 12.9881 9.89889 12.1962C9.73164 11.3943 9.75623 11.0352 9.97759 10.7106Z" fill="white" />
</symbol><symbol viewBox="0 0 27 27" fill="none" id="icon-vk">
<circle cx="13.9231" cy="13.0769" r="13.0769" fill="#333333" />
<path d="M17.0116 13.0712C17.2332 13.1815 17.4479 13.309 17.654 13.4513C18.0259 13.7083 18.363 14.0052 18.6683 14.3384C19.0754 14.7825 19.4094 15.2765 19.6719 15.8191C19.838 16.1622 19.9694 16.5182 20.0734 16.8847C20.0814 16.9128 20.0787 16.9235 20.0451 16.9235C19.3426 16.9226 18.64 16.9225 17.9375 16.9238C17.9002 16.9238 17.8938 16.9044 17.8849 16.8772C17.7309 16.4047 17.5101 15.9664 17.208 15.5711C16.7494 14.9712 16.1721 14.5359 15.4471 14.3075C15.2438 14.2435 15.0357 14.2028 14.8244 14.1767C14.7994 14.1736 14.7918 14.1814 14.794 14.2049C14.7951 14.2168 14.7942 14.2289 14.7942 14.241C14.7942 15.1157 14.7942 15.9904 14.7942 16.8651C14.7942 16.9228 14.7942 16.9226 14.7358 16.9228C14.4551 16.924 14.1745 16.9192 13.8947 16.897C12.8333 16.8123 11.8324 16.532 10.9213 15.9664C10.4922 15.7 10.1056 15.3809 9.76074 15.0112C9.09094 14.2934 8.62894 13.4537 8.31097 12.53C8.13956 12.032 8.01589 11.5219 7.93013 11.0023C7.87203 10.6498 7.83051 10.2956 7.80394 9.93939C7.78772 9.72214 7.78052 9.50452 7.7698 9.287C7.76773 9.24515 7.77556 9.23136 7.82141 9.23145C8.49094 9.23316 9.16048 9.23289 9.82992 9.2319C9.86487 9.23181 9.87775 9.23695 9.87847 9.27699C9.88406 9.58938 9.9045 9.90088 9.93891 10.2116C10.0009 10.7716 10.1109 11.3211 10.2908 11.8556C10.4474 12.3206 10.6536 12.7615 10.9314 13.1671C11.2547 13.6392 11.6503 14.0349 12.1543 14.3141C12.3355 14.4145 12.5256 14.4937 12.7259 14.5482C12.7656 14.559 12.7743 14.5515 12.7741 14.5118C12.773 14.1887 12.7735 13.8655 12.7735 13.5424C12.7735 12.1266 12.7735 10.7108 12.7736 9.29503C12.7736 9.22135 12.7665 9.23298 12.8355 9.23289C13.4705 9.23253 14.1055 9.23316 14.7405 9.23172C14.7831 9.23163 14.7952 9.24082 14.7951 9.28529C14.7936 10.2637 14.794 11.2422 14.794 12.2206C14.794 12.2775 14.7938 12.2759 14.8515 12.2671C15.2836 12.201 15.6565 12.0042 15.9971 11.7406C16.5207 11.3355 16.918 10.8247 17.23 10.2444C17.3978 9.93226 17.531 9.60598 17.6261 9.26436C17.6326 9.24073 17.6425 9.23199 17.6687 9.23208C18.3096 9.23298 18.9506 9.2328 19.5917 9.23289C19.6004 9.23289 19.6093 9.23451 19.6284 9.23641C19.2927 10.8845 18.3881 12.1364 17.0116 13.0712Z" fill="#FEFEFF" />
</symbol></defs><use id="icon-arrow-down-usage" xlink:href="#icon-arrow-down" class="sprite-symbol-usage" /><use id="icon-bg-usage" xlink:href="#icon-bg" class="sprite-symbol-usage" /><use id="icon-char-usage" xlink:href="#icon-char" class="sprite-symbol-usage" /><use id="icon-computer-usage" xlink:href="#icon-computer" class="sprite-symbol-usage" /><use id="icon-fire-usage" xlink:href="#icon-fire" class="sprite-symbol-usage" /><use id="icon-globe-usage" xlink:href="#icon-globe" class="sprite-symbol-usage" /><use id="icon-graph-usage" xlink:href="#icon-graph" class="sprite-symbol-usage" /><use id="icon-laptop-usage" xlink:href="#icon-laptop" class="sprite-symbol-usage" /><use id="icon-location-usage" xlink:href="#icon-location" class="sprite-symbol-usage" /><use id="icon-mobile-usage" xlink:href="#icon-mobile" class="sprite-symbol-usage" /><use id="icon-people-usage" xlink:href="#icon-people" class="sprite-symbol-usage" /><use id="icon-plus-usage" xlink:href="#icon-plus" class="sprite-symbol-usage" /><use id="icon-star-usage" xlink:href="#icon-star" class="sprite-symbol-usage" /><use id="icon-star-fill-usage" xlink:href="#icon-star-fill" class="sprite-symbol-usage" /><use id="icon-telegram-usage" xlink:href="#icon-telegram" class="sprite-symbol-usage" /><use id="icon-timeline-usage" xlink:href="#icon-timeline" class="sprite-symbol-usage" /><use id="icon-viber-usage" xlink:href="#icon-viber" class="sprite-symbol-usage" /><use id="icon-vk-usage" xlink:href="#icon-vk" class="sprite-symbol-usage" /></svg>