<svg xmlns="http://www.w3.org/2000/svg" xmlns:xlink="http://www.w3.org/1999/xlink"><defs><style>
    .sprite-symbol-usage {display: none;}
    .sprite-symbol-usage:target {display: inline;}
  </style><symbol viewBox="0 0 24 24" fill="none" id="icon-arrow-down">
<path d="M12 15.7131L18.01 9.70309L16.597 8.28809L12 12.8881L7.40399 8.28809L5.98999 9.70209L12 15.7131Z" fill="#C5C5C5" />
</symbol><symbol viewBox="0 0 1920 367" id="icon-bg">
    <path fill-rule="evenodd" clip-rule="evenodd" d="M-15.5974 122.255H150.666C316.929 122.255 649.455 122.255 981.981 101.879C1314.51 81.5031 1647.03 40.7516 1813.3 20.3758L1979.56 0V366.764H1813.3C1647.03 366.764 1314.51 366.764 981.981 366.764C649.455 366.764 316.929 366.764 150.666 366.764H-15.5974V122.255Z" />
</symbol><symbol viewBox="0 0 24 24" id="icon-char">
<path d="M3 5C3 3.89543 3.89543 3 5 3H19C20.1046 3 21 3.89543 21 5V19C21 20.1046 20.1046 21 19 21H5C3.89543 21 3 20.1046 3 19V5ZM19 5H5V19H19V5ZM12 7C12.5523 7 13 7.44772 13 8V16C13 16.5523 12.5523 17 12 17C11.4477 17 11 16.5523 11 16V8C11 7.44772 11.4477 7 12 7ZM16 9C16.5523 9 17 9.44772 17 10V16C17 16.5523 16.5523 17 16 17C15.4477 17 15 16.5523 15 16V10C15 9.44772 15.4477 9 16 9ZM8 11C8.55228 11 9 11.4477 9 12V16C9 16.5523 8.55228 17 8 17C7.44772 17 7 16.5523 7 16V12C7 11.4477 7.44772 11 8 11Z" />
</symbol><symbol viewBox="0 0 30 30" fill="none" id="icon-clock">
<g id="icon-clock_clock">
<g id="icon-clock_clock_2">
<path id="icon-clock_Vector" d="M15 8.91895V15L19.0541 19.0541" stroke="white" stroke-width="2" stroke-linecap="round" stroke-linejoin="round" />
<path id="icon-clock_Vector_2" d="M27.5 15C27.5 8.09644 21.9036 2.5 15 2.5C8.09644 2.5 2.5 8.09644 2.5 15C2.5 21.9036 8.09644 27.5 15 27.5C21.9036 27.5 27.5 21.9036 27.5 15Z" stroke="white" stroke-width="2" />
</g>
</g>
</symbol><symbol viewBox="0 0 24 24" id="icon-computer">
<path d="M2 5C2 3.89543 2.89543 3 4 3H20C21.1046 3 22 3.89543 22 5V16C22 17.1046 21.1046 18 20 18H13V20H16C16.5523 20 17 20.4477 17 21C17 21.5523 16.5523 22 16 22H8C7.44772 22 7 21.5523 7 21C7 20.4477 7.44772 20 8 20H11V18H4C2.89543 18 2 17.1046 2 16V5ZM20 16V5H4V16H20Z" />
</symbol><symbol viewBox="0 0 29 34" id="icon-fire">
    <path fill-rule="evenodd" d="M16.213 30.944c5.89 0 10.251-4.208 10.251-10.003 0-3.464-1.586-5.17-3.885-7.644l-.031-.034c-2.09-2.248-4.554-4.967-5.294-9.717-.96.577-2.003 1.462-2.773 2.607-1.141 1.696-1.663 3.903-.313 6.662.875 1.786 1.127 4.06-.402 5.622-.954.974-2.556 1.631-4.289.87-1.09-.48-1.963-1.416-2.666-2.654-.823 1.047-1.385 2.58-1.385 4.288 0 5.7 4.77 10.003 10.787 10.003Zm3.02-29.452c-.026-.51-.432-.926-.918-.804-3.391.852-9.584 5.99-6.093 13.12.687 1.404.567 2.483.005 3.057-.928.948-2.719 1.014-4.172-2.69-.19-.484-.722-.754-1.165-.494-2.245 1.315-3.64 4.239-3.64 7.26 0 7.156 5.98 12.226 12.963 12.226 6.982 0 12.428-5.095 12.428-12.227 0-4.355-2.128-6.641-4.362-9.042-2.336-2.511-5.047-5.152-5.047-10.406Z" clip-rule="evenodd" />
</symbol><symbol viewBox="0 0 30 30" id="icon-globe">
<path fill-rule="evenodd" clip-rule="evenodd" d="M15 1.25C7.40608 1.25 1.25 7.40608 1.25 15C1.25 22.5939 7.40608 28.75 15 28.75C22.5939 28.75 28.75 22.5939 28.75 15C28.75 7.40608 22.5939 1.25 15 1.25ZM3.14117 14.375H9.0728C9.19816 10.579 10.4467 7.51207 11.689 5.37017C12.1765 4.52969 12.6646 3.82873 13.0869 3.27829C7.63862 4.16068 3.43283 8.75011 3.14117 14.375ZM9.10384 16.25H3.19C3.74833 21.5871 7.84184 25.8722 13.0869 26.7217C12.6646 26.1713 12.1765 25.4703 11.689 24.6299C10.5156 22.6068 9.33667 19.7585 9.10384 16.25ZM10.9835 16.25H19.0165C18.7878 19.3491 17.7411 21.8752 16.689 23.6891C16.0943 24.7146 15.5006 25.5072 15.0594 26.0398L15 26.111L14.9406 26.0398C14.4994 25.5072 13.9057 24.7146 13.311 23.6891C12.2589 21.8752 11.2122 19.3491 10.9835 16.25ZM19.051 14.375H10.949C11.0732 10.9896 12.189 8.24529 13.311 6.31089C13.9057 5.28544 14.4994 4.49281 14.9406 3.96022L15 3.88905L15.0594 3.96022C15.5006 4.49281 16.0943 5.28544 16.689 6.31089C17.811 8.24529 18.9268 10.9896 19.051 14.375ZM20.8962 16.25C20.6633 19.7585 19.4844 22.6068 18.311 24.6299C17.8235 25.4703 17.3354 26.1713 16.9131 26.7217C22.1582 25.8722 26.2517 21.5871 26.81 16.25H20.8962ZM26.8588 14.375H20.9272C20.8018 10.579 19.5533 7.51207 18.311 5.37017C17.8235 4.52969 17.3354 3.82873 16.9131 3.27829C22.3614 4.16068 26.5672 8.75011 26.8588 14.375Z" />
</symbol><symbol viewBox="0 0 62 62" fill="none" id="icon-graph">
<path d="M43.4 8.52501C43.4 7.90838 43.645 7.31701 44.081 6.88099C44.517 6.44497 45.1084 6.20001 45.725 6.20001H53.475C54.0916 6.20001 54.683 6.44497 55.119 6.88099C55.555 7.31701 55.8 7.90838 55.8 8.52501V16.275C55.8 16.8916 55.555 17.483 55.119 17.919C54.683 18.3551 54.0916 18.6 53.475 18.6C52.8584 18.6 52.267 18.3551 51.831 17.919C51.395 17.483 51.15 16.8916 51.15 16.275V14.136L37.293 27.993C36.8571 28.4284 36.2661 28.673 35.65 28.673C35.0339 28.673 34.4429 28.4284 34.007 27.993L26.35 20.336L13.268 33.418C13.0551 33.6464 12.7985 33.8297 12.5133 33.9567C12.2281 34.0838 11.9202 34.1521 11.608 34.1576C11.2958 34.1632 10.9858 34.1057 10.6962 33.9888C10.4067 33.8719 10.1438 33.6978 9.92298 33.477C9.7022 33.2563 9.52815 32.9933 9.41122 32.7038C9.29428 32.4143 9.23686 32.1042 9.24237 31.792C9.24787 31.4798 9.3162 31.1719 9.44328 30.8867C9.57035 30.6015 9.75357 30.3449 9.982 30.132L24.707 15.407C25.1429 14.9716 25.7339 14.7271 26.35 14.7271C26.9661 14.7271 27.5571 14.9716 27.993 15.407L35.65 23.064L47.864 10.85H45.725C45.1084 10.85 44.517 10.6051 44.081 10.169C43.645 9.73301 43.4 9.14164 43.4 8.52501ZM11.625 43.4C12.2416 43.4 12.833 43.645 13.269 44.081C13.705 44.517 13.95 45.1084 13.95 45.725V53.475C13.95 54.0916 13.705 54.683 13.269 55.119C12.833 55.5551 12.2416 55.8 11.625 55.8C11.0084 55.8 10.417 55.5551 9.98098 55.119C9.54495 54.683 9.3 54.0916 9.3 53.475V45.725C9.3 45.1084 9.54495 44.517 9.98098 44.081C10.417 43.645 11.0084 43.4 11.625 43.4ZM26.35 36.425C26.35 35.8084 26.105 35.217 25.669 34.781C25.233 34.345 24.6416 34.1 24.025 34.1C23.4084 34.1 22.817 34.345 22.381 34.781C21.945 35.217 21.7 35.8084 21.7 36.425V53.475C21.7 54.0916 21.945 54.683 22.381 55.119C22.817 55.5551 23.4084 55.8 24.025 55.8C24.6416 55.8 25.233 55.5551 25.669 55.119C26.105 54.683 26.35 54.0916 26.35 53.475V36.425ZM36.425 40.3C37.0416 40.3 37.633 40.545 38.069 40.981C38.505 41.417 38.75 42.0084 38.75 42.625V53.475C38.75 54.0916 38.505 54.683 38.069 55.119C37.633 55.5551 37.0416 55.8 36.425 55.8C35.8084 55.8 35.217 55.5551 34.781 55.119C34.345 54.683 34.1 54.0916 34.1 53.475V42.625C34.1 42.0084 34.345 41.417 34.781 40.981C35.217 40.545 35.8084 40.3 36.425 40.3ZM51.15 30.225C51.15 29.6084 50.905 29.017 50.469 28.581C50.033 28.145 49.4416 27.9 48.825 27.9C48.2084 27.9 47.617 28.145 47.181 28.581C46.745 29.017 46.5 29.6084 46.5 30.225V53.475C46.5 54.0916 46.745 54.683 47.181 55.119C47.617 55.5551 48.2084 55.8 48.825 55.8C49.4416 55.8 50.033 55.5551 50.469 55.119C50.905 54.683 51.15 54.0916 51.15 53.475V30.225Z" fill="#1A1A1A" />
</symbol><symbol viewBox="0 0 60 60" fill="none" id="icon-handshake">
<path d="M54.275 21.775C57.4 18.65 55.975 15 54.275 13.225L46.775 5.72501C43.625 2.60001 40 4.02501 38.225 5.72501L33.975 10H27.5C22.75 10 20 12.5 18.6 15.375L7.50001 26.475V36.475L5.72501 38.225C2.60001 41.375 4.02501 45 5.72501 46.775L13.225 54.275C14.575 55.625 16.025 56.125 17.4 56.125C19.175 56.125 20.8 55.25 21.775 54.275L28.525 47.5H37.5C41.75 47.5 43.9 44.85 44.675 42.25C47.5 41.5 49.05 39.35 49.675 37.25C53.55 36.25 55 32.575 55 30V22.5H53.525L54.275 21.775ZM50 30C50 31.125 49.525 32.5 47.5 32.5H45V35C45 36.125 44.525 37.5 42.5 37.5H40V40C40 41.125 39.525 42.5 37.5 42.5H26.475L18.275 50.7C17.5 51.425 17.05 51 16.775 50.725L9.30001 43.275C8.57501 42.5 9.00001 42.05 9.27501 41.775L12.5 38.525V28.525L17.5 23.525V27.5C17.5 30.525 19.5 35 25 35C30.5 35 32.5 30.525 32.5 27.5H50V30ZM50.725 18.225L46.475 22.5H27.5V27.5C27.5 28.625 27.025 30 25 30C22.975 30 22.5 28.625 22.5 27.5V20C22.5 18.85 22.925 15 27.5 15H36.025L41.725 9.30001C42.5 8.57501 42.95 9.00001 43.225 9.27501L50.7 16.725C51.425 17.5 51 17.95 50.725 18.225Z" fill="#1A1A1A" />
</symbol><symbol viewBox="0 0 24 24" id="icon-laptop">
<path d="M2 5C2 3.89543 2.89543 3 4 3H20C21.1046 3 22 3.89543 22 5V16C22 17.1046 21.1046 18 20 18H4C2.89543 18 2 17.1046 2 16V5ZM20 5H4V16H20V5Z" />
<path d="M22 20C22 20.5523 21.5523 21 21 21H3C2.44772 21 2 20.5523 2 20C2 19.4477 2.44772 19 3 19L21 19C21.5523 19 22 19.4477 22 20Z" />
</symbol><symbol viewBox="0 0 24 24" fill="none" id="icon-location">
<path d="M12 21C10.7369 19.9227 9.56619 18.7416 8.5 17.4691C6.9 15.5581 5 12.712 5 10.0001C4.99858 7.1676 6.70425 4.61344 9.32107 3.52945C11.9379 2.44545 14.9501 3.04529 16.952 5.04905C18.2685 6.35966 19.0059 8.14244 19 10.0001C19 12.712 17.1 15.5581 15.5 17.4691C14.4338 18.7416 13.2631 19.9227 12 21ZM12 7.00005C10.9282 7.00005 9.93782 7.57185 9.40193 8.50005C8.86603 9.42825 8.86603 10.5718 9.40193 11.5001C9.93782 12.4283 10.9282 13.0001 12 13.0001C13.6569 13.0001 15 11.6569 15 10.0001C15 8.3432 13.6569 7.00005 12 7.00005Z" fill="#1A1A1A" />
</symbol><symbol viewBox="0 0 29 29" id="icon-mobile">
<g id="icon-mobile_mobile">
<g id="icon-mobile_Icon">
<path d="M7.25 6.04167C7.25 4.70698 8.33198 3.625 9.66667 3.625H19.3333C20.668 3.625 21.75 4.70698 21.75 6.04167V22.9583C21.75 24.293 20.668 25.375 19.3333 25.375H9.66667C8.33198 25.375 7.25 24.293 7.25 22.9583V6.04167ZM19.3333 6.04167H9.66667V22.9583H19.3333V6.04167Z" />
<path d="M15.7083 20.5417C15.7083 21.209 15.1673 21.75 14.5 21.75C13.8327 21.75 13.2917 21.209 13.2917 20.5417C13.2917 19.8743 13.8327 19.3333 14.5 19.3333C15.1673 19.3333 15.7083 19.8743 15.7083 20.5417Z" />
</g>
</g>
</symbol><symbol viewBox="0 0 30 30" id="icon-people">
<path fill-rule="evenodd" clip-rule="evenodd" d="M4.37515 10C4.37515 6.20306 7.45314 3.125 11.2501 3.125C15.047 3.125 18.125 6.20306 18.125 10C18.125 12.3619 16.934 14.4456 15.1198 15.6833C19.3254 17.2239 22.3548 21.2037 22.4949 25.9096C22.5103 26.4271 22.1032 26.8592 21.5857 26.8746C21.0681 26.89 20.6361 26.4829 20.6207 25.9654C20.4705 20.9197 16.3324 16.875 11.2499 16.875C6.16747 16.875 2.02934 20.9197 1.87917 25.9654C1.86377 26.4829 1.43173 26.89 0.914196 26.8746C0.396658 26.8592 -0.0104024 26.4271 0.00500075 25.9096C0.145061 21.2037 3.17454 17.2238 7.38023 15.6832C5.56611 14.4455 4.37515 12.3618 4.37515 10ZM11.2501 5C8.4887 5 6.25015 7.23856 6.25015 10C6.25015 12.7614 8.4887 15 11.2501 15C14.0114 15 16.25 12.7614 16.25 10C16.25 7.23856 14.0114 5 11.2501 5Z" />
<path d="M21.6125 10C21.4279 10 21.247 10.0131 21.0704 10.0384C20.5578 10.1117 20.0829 9.75563 20.0096 9.24308C19.9363 8.73053 20.2923 8.25559 20.8049 8.18228C21.0691 8.14449 21.3388 8.125 21.6125 8.125C24.7398 8.125 27.275 10.6602 27.275 13.7875C27.275 15.6323 26.3927 17.2699 25.0295 18.303C27.9438 19.6094 29.975 22.5353 29.975 25.9375C29.975 26.4553 29.5552 26.875 29.0375 26.875C28.5197 26.875 28.1 26.4553 28.1 25.9375C28.1 23.0051 26.1538 20.5249 23.4805 19.7227L22.8125 19.5222V17.4273L23.3253 17.1667C24.5584 16.5402 25.4 15.2613 25.4 13.7875C25.4 11.6957 23.7043 10 21.6125 10Z" />
</symbol><symbol viewBox="0 0 50 50" id="icon-plus">
<path fill-rule="evenodd" clip-rule="evenodd" d="M25 13.5833C25.5523 13.5833 26 14.031 26 14.5833V23.9999L35.4166 23.9999C35.9689 23.9999 36.4166 24.4476 36.4166 24.9999C36.4166 25.5522 35.9689 25.9999 35.4166 25.9999H26V35.4166C26 35.9689 25.5523 36.4166 25 36.4166C24.4477 36.4166 24 35.9689 24 35.4166V25.9999H14.5833C14.031 25.9999 13.5833 25.5522 13.5833 24.9999C13.5833 24.4476 14.031 23.9999 14.5833 23.9999L24 23.9999V14.5833C24 14.031 24.4477 13.5833 25 13.5833Z" />
</symbol><symbol viewBox="0 0 30 30" id="icon-star">
<path fill-rule="evenodd" clip-rule="evenodd" d="M15 0.3125C15.3568 0.3125 15.6828 0.515092 15.8407 0.835095L19.6636 8.58113L28.2118 9.82326C28.565 9.87458 28.8584 10.1219 28.9686 10.4613C29.0789 10.8007 28.9869 11.1733 28.7314 11.4223L22.5458 17.4518L24.0061 25.9655C24.0664 26.3172 23.9218 26.6727 23.6331 26.8824C23.3444 27.0922 22.9616 27.1199 22.6458 26.9538L15 22.9342L7.35421 26.9538C7.03835 27.1199 6.6556 27.0922 6.3669 26.8824C6.0782 26.6727 5.93362 26.3172 5.99394 25.9655L7.45416 17.4518L1.26858 11.4223C1.01305 11.1733 0.921082 10.8007 1.03135 10.4613C1.14163 10.1219 1.43502 9.87458 1.78816 9.82326L10.3364 8.58113L14.1593 0.835095C14.3172 0.515092 14.6431 0.3125 15 0.3125ZM15 3.36833L11.7997 9.85291C11.6631 10.1296 11.3991 10.3214 11.0938 10.3658L3.93762 11.4056L9.11587 16.4532C9.33683 16.6685 9.43765 16.9789 9.38549 17.283L8.16307 24.4102L14.5637 21.0452C14.8369 20.9016 15.1631 20.9016 15.4363 21.0452L21.8369 24.4102L20.6145 17.283C20.5623 16.9789 20.6632 16.6685 20.8841 16.4532L26.0624 11.4056L18.9062 10.3658C18.6009 10.3214 18.3369 10.1296 18.2003 9.85291L15 3.36833Z" />
</symbol><symbol viewBox="0 0 29 28" id="icon-star-fill">
<path d="M26.1048 10.7088C26.0315 10.4929 25.8965 10.3031 25.7166 10.1629C25.5366 10.0228 25.3196 9.93838 25.0922 9.92018L18.441 9.39168L15.5628 3.02052C15.4712 2.81531 15.3221 2.64103 15.1336 2.51868C14.945 2.39634 14.7251 2.33118 14.5004 2.33105C14.2756 2.33093 14.0557 2.39585 13.867 2.51799C13.6783 2.64012 13.5291 2.81425 13.4372 3.01935L10.559 9.39168L3.90784 9.92018C3.68437 9.93789 3.47074 10.0196 3.29249 10.1555C3.11424 10.2915 2.97894 10.4759 2.90275 10.6867C2.82657 10.8975 2.81274 11.1259 2.86291 11.3443C2.91309 11.5628 3.02514 11.7622 3.18568 11.9187L8.10084 16.7102L6.36251 24.2375C6.30973 24.4654 6.32664 24.7038 6.41107 24.9219C6.49549 25.14 6.64352 25.3278 6.83595 25.4607C7.02837 25.5936 7.25632 25.6657 7.49019 25.6674C7.72407 25.6692 7.95308 25.6007 8.14751 25.4707L14.5 21.2357L20.8525 25.4707C21.0512 25.6026 21.2856 25.6706 21.5241 25.6653C21.7626 25.6601 21.9937 25.582 22.1865 25.4414C22.3792 25.3009 22.5243 25.1047 22.6022 24.8793C22.6802 24.6538 22.6872 24.4099 22.6223 24.1803L20.4885 16.7137L25.7805 11.9514C26.127 11.6387 26.2542 11.151 26.1048 10.7088Z" />
</symbol><symbol viewBox="0 0 58 59" fill="none" id="icon-system">
<path d="M40.1558 29.6443C40.1586 27.336 39.4471 25.0896 38.1289 23.2448L43.2153 17.9321C44.2099 18.3674 45.2742 18.5996 46.3513 18.6163C47.3257 18.6485 48.2966 18.4783 49.2085 18.1153C50.1204 17.7524 50.9554 17.2039 51.6657 16.5012C52.376 15.7985 52.9478 14.9553 53.3484 14.0199C53.7489 13.0845 53.9703 12.0752 54 11.0496C54 8.91473 53.1942 6.86728 51.7597 5.35768C50.3253 3.84808 48.3798 3 46.3513 3C44.3227 3 42.3772 3.84808 40.9428 5.35768C39.5084 6.86728 38.7025 8.91473 38.7025 11.0496C38.7074 12.2946 39.024 13.5162 39.6204 14.5915L34.534 19.9445C32.746 18.8912 30.7317 18.337 28.6827 18.3345C26.1529 18.2978 23.6824 19.1423 21.6558 20.7364C19.6293 22.3305 18.1602 24.585 17.4773 27.1489H14.8385C14.2609 25.6458 13.2655 24.3613 11.9826 23.4636C10.6997 22.5659 9.18918 22.0969 7.64873 22.1179C5.68717 22.0527 3.78097 22.8081 2.34744 24.2187C0.91391 25.6293 0.0698355 27.5802 0 29.6443C0.0296714 30.6698 0.251103 31.6791 0.651637 32.6145C1.05217 33.5499 1.62395 34.3931 2.3343 35.0958C3.04464 35.7986 3.87962 36.3471 4.79151 36.71C5.70339 37.0729 6.6743 37.2431 7.64873 37.2109C9.18918 37.2319 10.6997 36.7628 11.9826 35.8651C13.2655 34.9674 14.2609 33.683 14.8385 32.1799H17.4773C18.1602 34.7438 19.6293 36.9982 21.6558 38.5924C23.6824 40.1865 26.1529 41.0309 28.6827 40.9942C30.1444 41.0425 31.6007 40.7872 32.9685 40.2428C34.3364 39.6985 35.5888 38.8757 36.6544 37.8216C37.7199 36.7675 38.5776 35.5028 39.1784 34.0997C39.7792 32.6965 40.1113 31.1826 40.1558 29.6443ZM46.3513 8.55424C47.0457 8.48695 47.7371 8.71164 48.2746 9.17922C48.812 9.64679 49.1517 10.3192 49.2195 11.0496C49.1081 11.7656 48.7584 12.4166 48.233 12.8863C47.7076 13.356 47.0407 13.6139 46.3513 13.6139C45.6619 13.6139 44.9949 13.356 44.4695 12.8863C43.9441 12.4166 43.5945 11.7656 43.483 11.0496C43.5603 10.3234 43.9026 9.65723 44.4378 9.19164C44.9729 8.72605 45.659 8.49751 46.3513 8.55424ZM7.64873 32.1799C6.95051 32.236 6.25919 32.002 5.723 31.528C5.18681 31.054 4.84845 30.3777 4.78045 29.6443C4.85771 28.9181 5.20005 28.2519 5.73521 27.7863C6.27037 27.3207 6.95648 27.0921 7.64873 27.1489C8.34097 27.0921 9.02708 27.3207 9.56224 27.7863C10.0974 28.2519 10.4397 28.9181 10.517 29.6443C10.449 30.3777 10.1106 31.054 9.57445 31.528C9.03827 32.002 8.34695 32.236 7.64873 32.1799ZM28.6827 35.9632C27.0009 36.0512 25.3542 35.4366 24.1008 34.2532C22.8474 33.0698 22.0888 31.4133 21.9901 29.6443C22.0887 27.8785 22.8486 26.226 24.1032 25.049C25.3578 23.872 27.0047 23.2666 28.6827 23.3655C30.3583 23.2773 31.9995 23.8864 33.2519 25.0612C34.5042 26.2361 35.2669 27.8824 35.3754 29.6443C35.2669 31.4095 34.5055 33.0598 33.2543 34.2411C32.0032 35.4224 30.362 36.0406 28.6827 35.9632Z" fill="#1A1A1A" />
<path d="M7.73333 14.922C8.82477 14.9293 9.90534 14.6988 10.904 14.2457L17.7093 21.3666C18.6947 20.0128 19.8978 18.8422 21.2667 17.9056L14.5387 10.9438C15.1416 9.88105 15.4617 8.67357 15.4667 7.44301C15.3961 5.40284 14.5426 3.47457 13.0933 2.08031C11.6439 0.686056 9.71659 -0.0605818 7.73333 0.00384907C5.75008 -0.0605818 3.8228 0.686056 2.37341 2.08031C0.924019 3.47457 0.070608 5.40284 0 7.44301C0.0299996 8.45666 0.253881 9.45428 0.658845 10.3789C1.06381 11.3034 1.64192 12.1368 2.36012 12.8314C3.07832 13.526 3.92254 14.0681 4.84451 14.4268C5.76648 14.7855 6.74813 14.9538 7.73333 14.922ZM7.73333 4.97655C8.43324 4.92048 9.12694 5.14637 9.66802 5.60656C10.2091 6.06675 10.5552 6.72523 10.6333 7.44301C10.5646 8.16799 10.2225 8.83639 9.68036 9.3049C9.13824 9.77341 8.43928 10.0047 7.73333 9.94926C7.02739 10.0047 6.32842 9.77341 5.7863 9.3049C5.24419 8.83639 4.90208 8.16799 4.83333 7.44301C4.91145 6.72523 5.25757 6.06675 5.79865 5.60656C6.33973 5.14637 7.03343 4.92048 7.73333 4.97655ZM50.2667 43.7636C49.1752 43.7563 48.0947 43.9868 47.096 44.4399L40.2907 37.2792C39.2838 38.5938 38.0679 39.7236 36.6947 40.6209L43.4227 47.5429C42.8315 48.6088 42.5247 49.8165 42.5333 51.0437C42.5333 53.1538 43.3481 55.1775 44.7984 56.6696C46.2487 58.1617 48.2157 59 50.2667 59C52.3177 59 54.2847 58.1617 55.735 56.6696C57.1852 55.1775 58 53.1538 58 51.0437C57.89 49.0317 57.0194 47.1437 55.5743 45.7834C54.1293 44.423 52.2243 43.6981 50.2667 43.7636ZM50.2667 53.709C49.5607 53.7645 48.8618 53.5332 48.3196 53.0647C47.7775 52.5962 47.4354 51.9278 47.3667 51.2028C47.4794 50.4951 47.8329 49.8517 48.3641 49.3874C48.8953 48.9231 49.5696 48.6682 50.2667 48.6682C50.9637 48.6682 51.638 48.9231 52.1692 49.3874C52.7004 49.8517 53.054 50.4951 53.1667 51.2028C53.0979 51.9278 52.7558 52.5962 52.2137 53.0647C51.6716 53.5332 50.9726 53.7645 50.2667 53.709Z" fill="#1A1A1A" />
</symbol><symbol viewBox="0 0 28 27" fill="none" id="icon-telegram">
<circle cx="14" cy="13.0769" r="13.0769" fill="#333333" />
<path d="M19.0145 7.69238C18.9727 7.69238 18.9248 7.69832 18.8829 7.71612L7.3178 12.0781C6.98874 12.2028 7.0007 12.6597 7.32977 12.7725L10.0101 13.6686L11.6256 16.8793L11.6315 16.8853C11.6614 16.9446 11.7213 16.9802 11.7871 16.9802C11.823 16.9802 11.8649 16.9683 11.9008 16.9387L13.4145 15.6627L11.7213 14.3927L11.8529 16.0663L10.6384 13.5678L17.1 9.71612L11.7213 14.3867L15.9094 17.5381C16.047 17.6449 16.2085 17.6924 16.3701 17.6924C16.6991 17.6924 17.0222 17.4787 17.1119 17.1167L19.3735 8.13749C19.4333 7.91197 19.2419 7.69238 19.0145 7.69238Z" fill="white" />
</symbol><symbol viewBox="0 0 295 121" fill="none" id="icon-timeline">
<path d="M1.00017 2.62556C38.9851 0.153921 102 13 142 48C181.401 82.4757 200.894 118.476 294.001 119.126" stroke="#2BE2A0" stroke-width="3" />
</symbol><symbol viewBox="0 0 27 27" fill="none" id="icon-viber">
<circle cx="13.0769" cy="13.0769" r="13.0769" fill="#333333" />
<path d="M13.0816 19.2305C12.0043 19.2305 10.9467 18.9452 10.0121 18.4041L7.61153 19.2305L8.10344 16.6923C7.33114 15.6347 6.92285 14.3901 6.92285 13.0767C6.92285 9.68249 9.68248 6.92285 13.0767 6.92285C16.4709 6.92285 19.2305 9.68249 19.2305 13.0767C19.2404 16.466 16.4807 19.2305 13.0816 19.2305ZM10.1252 17.3957L10.3121 17.5138C11.1484 18.0401 12.1076 18.3156 13.0865 18.3156C15.9741 18.3156 18.3254 15.9642 18.3254 13.0767C18.3254 10.1892 15.9741 7.83781 13.0865 7.83781C10.1941 7.83289 7.84273 10.1842 7.84273 13.0718C7.84273 14.2475 8.22642 15.3592 8.95445 16.2938L9.08235 16.4561L8.8118 17.8433L10.1252 17.3957Z" fill="white" />
<path d="M9.97759 10.7106C9.97759 10.7106 10.3367 10.0809 10.6318 10.0416C10.927 10.0071 11.3058 10.0071 11.4091 10.199C11.5124 10.3908 11.9698 11.5124 11.9698 11.5124C11.9698 11.5124 12.0485 11.7042 11.9256 11.8912C11.8026 12.0732 11.532 12.3437 11.532 12.3437C11.532 12.3437 11.3795 12.5356 11.532 12.7422C11.6845 12.9488 11.9157 13.3226 12.3978 13.8047C12.8799 14.2868 13.8047 14.6311 13.8047 14.6311C13.8047 14.6311 13.9375 14.6508 14.0211 14.5672C14.1047 14.4836 14.5622 13.9129 14.5622 13.9129C14.5622 13.9129 14.7098 13.726 14.9508 13.8342C15.1919 13.9474 16.2495 14.4737 16.2495 14.4737C16.2495 14.4737 16.3725 14.518 16.3725 14.7049C16.3725 14.8918 16.2987 15.3493 16.1413 15.5018C15.9888 15.6543 15.5362 16.1315 14.8574 16.1315C14.1785 16.1315 12.5651 15.5805 11.7042 14.7197C10.8434 13.8588 10.0809 12.9881 9.89889 12.1962C9.73164 11.3943 9.75623 11.0352 9.97759 10.7106Z" fill="white" />
</symbol><symbol viewBox="0 0 27 27" fill="none" id="icon-vk">
<circle cx="13.9231" cy="13.0769" r="13.0769" fill="#333333" />
<path d="M17.0116 13.0712C17.2332 13.1815 17.4479 13.309 17.654 13.4513C18.0259 13.7083 18.363 14.0052 18.6683 14.3384C19.0754 14.7825 19.4094 15.2765 19.6719 15.8191C19.838 16.1622 19.9694 16.5182 20.0734 16.8847C20.0814 16.9128 20.0787 16.9235 20.0451 16.9235C19.3426 16.9226 18.64 16.9225 17.9375 16.9238C17.9002 16.9238 17.8938 16.9044 17.8849 16.8772C17.7309 16.4047 17.5101 15.9664 17.208 15.5711C16.7494 14.9712 16.1721 14.5359 15.4471 14.3075C15.2438 14.2435 15.0357 14.2028 14.8244 14.1767C14.7994 14.1736 14.7918 14.1814 14.794 14.2049C14.7951 14.2168 14.7942 14.2289 14.7942 14.241C14.7942 15.1157 14.7942 15.9904 14.7942 16.8651C14.7942 16.9228 14.7942 16.9226 14.7358 16.9228C14.4551 16.924 14.1745 16.9192 13.8947 16.897C12.8333 16.8123 11.8324 16.532 10.9213 15.9664C10.4922 15.7 10.1056 15.3809 9.76074 15.0112C9.09094 14.2934 8.62894 13.4537 8.31097 12.53C8.13956 12.032 8.01589 11.5219 7.93013 11.0023C7.87203 10.6498 7.83051 10.2956 7.80394 9.93939C7.78772 9.72214 7.78052 9.50452 7.7698 9.287C7.76773 9.24515 7.77556 9.23136 7.82141 9.23145C8.49094 9.23316 9.16048 9.23289 9.82992 9.2319C9.86487 9.23181 9.87775 9.23695 9.87847 9.27699C9.88406 9.58938 9.9045 9.90088 9.93891 10.2116C10.0009 10.7716 10.1109 11.3211 10.2908 11.8556C10.4474 12.3206 10.6536 12.7615 10.9314 13.1671C11.2547 13.6392 11.6503 14.0349 12.1543 14.3141C12.3355 14.4145 12.5256 14.4937 12.7259 14.5482C12.7656 14.559 12.7743 14.5515 12.7741 14.5118C12.773 14.1887 12.7735 13.8655 12.7735 13.5424C12.7735 12.1266 12.7735 10.7108 12.7736 9.29503C12.7736 9.22135 12.7665 9.23298 12.8355 9.23289C13.4705 9.23253 14.1055 9.23316 14.7405 9.23172C14.7831 9.23163 14.7952 9.24082 14.7951 9.28529C14.7936 10.2637 14.794 11.2422 14.794 12.2206C14.794 12.2775 14.7938 12.2759 14.8515 12.2671C15.2836 12.201 15.6565 12.0042 15.9971 11.7406C16.5207 11.3355 16.918 10.8247 17.23 10.2444C17.3978 9.93226 17.531 9.60598 17.6261 9.26436C17.6326 9.24073 17.6425 9.23199 17.6687 9.23208C18.3096 9.23298 18.9506 9.2328 19.5917 9.23289C19.6004 9.23289 19.6093 9.23451 19.6284 9.23641C19.2927 10.8845 18.3881 12.1364 17.0116 13.0712Z" fill="#FEFEFF" />
</symbol><symbol viewBox="0 0 60 62" fill="none" id="icon-way">
<path d="M12.5 20.6667C16.6421 20.6667 20 17.1969 20 12.9167C20 8.63648 16.6421 5.16669 12.5 5.16669C8.35786 5.16669 5 8.63648 5 12.9167C5 17.1969 8.35786 20.6667 12.5 20.6667Z" stroke="#1A1A1A" stroke-width="5" />
<path d="M47.5 56.8334C51.6421 56.8334 55 53.3636 55 49.0834C55 44.8032 51.6421 41.3334 47.5 41.3334C43.3579 41.3334 40 44.8032 40 49.0834C40 53.3636 43.3579 56.8334 47.5 56.8334Z" stroke="#1A1A1A" stroke-width="5" />
<path d="M27.5 10.9792C27.0027 10.9792 26.5258 11.1833 26.1742 11.5467C25.8225 11.91 25.625 12.4028 25.625 12.9167C25.625 13.4305 25.8225 13.9234 26.1742 14.2867C26.5258 14.6501 27.0027 14.8542 27.5 14.8542V10.9792ZM32.5 49.0834L33.825 50.4525C34.1761 50.0892 34.3734 49.5968 34.3734 49.0834C34.3734 48.5699 34.1761 48.0775 33.825 47.7142L32.5 49.0834ZM30.075 43.8392C29.7196 43.4969 29.2494 43.3106 28.7637 43.3195C28.2779 43.3283 27.8145 43.5317 27.4709 43.8867C27.1274 44.2416 26.9306 44.7206 26.9221 45.2225C26.9135 45.7245 27.0938 46.2102 27.425 46.5775L30.075 43.8392ZM27.425 51.5892C27.0938 51.9565 26.9135 52.4423 26.9221 52.9442C26.9306 53.4461 27.1274 53.9251 27.4709 54.28C27.8145 54.635 28.2779 54.8384 28.7637 54.8472C29.2494 54.8561 29.7196 54.6698 30.075 54.3275L27.425 51.5892ZM26.0075 35.9239C26.4272 35.6477 26.7236 35.2107 26.8314 34.7087C26.9392 34.2068 26.8497 33.6812 26.5825 33.2475C26.3153 32.8138 25.8923 32.5076 25.4066 32.3962C24.9209 32.2847 24.4122 32.3772 23.9925 32.6534L26.0075 35.9213V35.9239ZM33 26.7298C32.5803 27.0059 32.2839 27.443 32.1761 27.9449C32.0683 28.4468 32.1578 28.9724 32.425 29.4061C32.6922 29.8398 33.1152 30.146 33.6009 30.2575C34.0866 30.3689 34.5953 30.2764 35.015 30.0003L33 26.7298ZM40.33 10.9792H27.5V14.8542H40.33V10.9792ZM32.5 47.1459H19.67V51.0209H32.5V47.1459ZM33.825 47.7142L30.075 43.8392L27.425 46.5775L31.175 50.4525L33.825 47.7142ZM31.175 47.7142L27.425 51.5892L30.075 54.3275L33.825 50.4525L31.175 47.7142ZM19.67 47.1459C16.545 47.1459 15.355 42.9273 17.9925 41.1913L15.98 37.9234C10.1775 41.7389 12.7925 51.0209 19.67 51.0209V47.1459ZM40.33 14.8542C43.455 14.8542 44.645 19.0728 42.0075 20.8088L44.02 24.0767C49.8225 20.2611 47.2075 10.9792 40.33 10.9792V14.8542ZM23.9925 32.6534L15.98 37.9234L17.9925 41.1913L26.0075 35.9213L23.9925 32.6534ZM42.0075 20.8088L33 26.7298L35.015 30.0003L44.02 24.0767L42.0075 20.8088Z" fill="#1A1A1A" />
</symbol></defs><use id="icon-arrow-down-usage" xlink:href="#icon-arrow-down" class="sprite-symbol-usage" /><use id="icon-bg-usage" xlink:href="#icon-bg" class="sprite-symbol-usage" /><use id="icon-char-usage" xlink:href="#icon-char" class="sprite-symbol-usage" /><use id="icon-clock-usage" xlink:href="#icon-clock" class="sprite-symbol-usage" /><use id="icon-computer-usage" xlink:href="#icon-computer" class="sprite-symbol-usage" /><use id="icon-fire-usage" xlink:href="#icon-fire" class="sprite-symbol-usage" /><use id="icon-globe-usage" xlink:href="#icon-globe" class="sprite-symbol-usage" /><use id="icon-graph-usage" xlink:href="#icon-graph" class="sprite-symbol-usage" /><use id="icon-handshake-usage" xlink:href="#icon-handshake" class="sprite-symbol-usage" /><use id="icon-laptop-usage" xlink:href="#icon-laptop" class="sprite-symbol-usage" /><use id="icon-location-usage" xlink:href="#icon-location" class="sprite-symbol-usage" /><use id="icon-mobile-usage" xlink:href="#icon-mobile" class="sprite-symbol-usage" /><use id="icon-people-usage" xlink:href="#icon-people" class="sprite-symbol-usage" /><use id="icon-plus-usage" xlink:href="#icon-plus" class="sprite-symbol-usage" /><use id="icon-star-usage" xlink:href="#icon-star" class="sprite-symbol-usage" /><use id="icon-star-fill-usage" xlink:href="#icon-star-fill" class="sprite-symbol-usage" /><use id="icon-system-usage" xlink:href="#icon-system" class="sprite-symbol-usage" /><use id="icon-telegram-usage" xlink:href="#icon-telegram" class="sprite-symbol-usage" /><use id="icon-timeline-usage" xlink:href="#icon-timeline" class="sprite-symbol-usage" /><use id="icon-viber-usage" xlink:href="#icon-viber" class="sprite-symbol-usage" /><use id="icon-vk-usage" xlink:href="#icon-vk" class="sprite-symbol-usage" /><use id="icon-way-usage" xlink:href="#icon-way" class="sprite-symbol-usage" /></svg>